<svg xmlns="http://www.w3.org/2000/svg" width="96" height="96" viewBox="0 0 96 96"><g transform="translate(0 0)"><path d="M75.575,20.425A10.212,10.212,0,1,1,85.8,10.229,10.246,10.246,0,0,1,75.575,20.425Zm0-16.353A6.124,6.124,0,1,0,81.7,10.2,6.147,6.147,0,0,0,75.575,4.071Z" fill="#3747ff"/><path d="M96,67.4H89.876V63.327h2.053V32.673a4.75,4.75,0,0,0-2.625-3.9,39.291,39.291,0,0,0-13.729-2.288V22.376a43.645,43.645,0,0,1,15.176,2.557A8.883,8.883,0,0,1,96,32.673Z" fill="#3747ff"/><path d="M83.752,34.726h4.071V96H83.752Z" fill="#3747ff"/><path d="M63.327,30.62H67.4V95.966H63.327Z" fill="#3747ff"/><path d="M73.523,65.346h4.071V96H73.523Z" fill="#3747ff"/><path d="M67.4,34.726H38.8V22.477H75.575v4.071H42.9V30.62H67.4Z" fill="#3747ff"/><path d="M58.044,71.47H0V0H63.731V4.071H4.105V67.4H58.044Z" fill="#3747ff"/><path d="M14.3,12.248H42.9V16.32H14.3Z" fill="#3747ff"/><path d="M14.3,20.425H32.673V24.5H14.3Z" fill="#3747ff"/><path d="M14.3,40.85H57.2v4.071H14.3Z" fill="#3747ff"/><path d="M14.3,49.026H49.464V53.1H14.3Z" fill="#3747ff"/></g></svg>