<svg xmlns="http://www.w3.org/2000/svg" width="98" height="98" viewBox="0 0 98 98"><path d="M88.8,20.42A8.033,8.033,0,0,0,77.581,9.2a49.014,49.014,0,0,0-56.8-.257,1.914,1.914,0,1,0,2.208,3.128,44.8,44.8,0,0,1,18.378-7.6,24.58,24.58,0,0,0-2.3,3.562,61.918,61.918,0,0,0-5.574,17.257,8.054,8.054,0,0,0-7.226,6.1H7.39a45.019,45.019,0,0,1,4.089-7.552A1.914,1.914,0,0,0,8.3,21.7a49.019,49.019,0,0,0,.9,55.876A8.033,8.033,0,0,0,20.42,88.8,49,49,0,0,0,98,49a48.52,48.52,0,0,0-9.2-28.58Zm3.215,42.361H71.608a8.069,8.069,0,0,0-5.231-5.7c.151-2.659.232-5.368.232-8.082,0-4.733-.229-9.364-.671-13.781h26.1a45.43,45.43,0,0,1-.024,27.562ZM49,94.172c-3.207,0-6.677-4.666-9.282-12.482a84.449,84.449,0,0,1-3.352-15.08H55.994a8.071,8.071,0,0,0,4.733,5.513C57.816,87.337,52.795,94.172,49,94.172ZM15.7,74.266a7.988,7.988,0,0,0-3.565.837,45.022,45.022,0,0,1-4.751-8.493H32.506A89.084,89.084,0,0,0,36.086,82.9a35.8,35.8,0,0,0,5.25,10.629A44.6,44.6,0,0,1,22.9,85.87a8.035,8.035,0,0,0-7.2-11.6ZM35.219,49c0-2.612.077-5.218.22-7.775a8.06,8.06,0,0,0,6.438-6.006H62.092A134.919,134.919,0,0,1,62.781,49c0,2.6-.076,5.2-.219,7.752a8.061,8.061,0,0,0-6.568,6.029H35.908A135.025,135.025,0,0,1,35.219,49ZM63.8,68.906A4.211,4.211,0,1,1,68.012,64.7,4.216,4.216,0,0,1,63.8,68.906ZM61.914,15.1A35.8,35.8,0,0,0,56.663,4.471,44.594,44.594,0,0,1,75.1,12.13,8.035,8.035,0,0,0,85.871,22.9a45,45,0,0,1,4.751,8.493H65.494A89.1,89.1,0,0,0,61.914,15.1Zm24.6.6a4.211,4.211,0,1,1-4.211-4.211A4.216,4.216,0,0,1,86.517,15.7ZM49,3.828c3.207,0,6.677,4.666,9.282,12.482a84.452,84.452,0,0,1,3.352,15.08H41.877a8.071,8.071,0,0,0-4.614-5.462C40.172,10.68,45.2,3.828,49,3.828ZM34.07,29.094A4.211,4.211,0,1,1,29.859,33.3,4.216,4.216,0,0,1,34.07,29.094Zm-7.807,6.125a8.069,8.069,0,0,0,5.357,5.742c-.149,2.645-.229,5.339-.229,8.039,0,4.733.229,9.364.671,13.781H5.958a45.535,45.535,0,0,1,.011-27.562ZM11.484,82.3A4.211,4.211,0,1,1,15.7,86.516,4.216,4.216,0,0,1,11.484,82.3Zm45.16,11.217a24.559,24.559,0,0,0,2.279-3.528A61.86,61.86,0,0,0,64.514,72.7a8.055,8.055,0,0,0,7.094-6.092H90.6A45.321,45.321,0,0,1,56.644,93.522Z" fill="#3747ff"/><path d="M15.324,18a1.915,1.915,0,1,0-1.353-.561A1.925,1.925,0,0,0,15.324,18Z" fill="#3747ff"/></svg>