<svg xmlns="http://www.w3.org/2000/svg" width="115.106" height="94" viewBox="0 0 115.106 94"><g transform="translate(-1399.447 -1492)"><g transform="translate(1393.337 1476.331)"><path d="M44.447,25.8h2.776V37.415a16.941,16.941,0,0,0-.846,5.314,17.286,17.286,0,1,0,34.573,0,16.949,16.949,0,0,0-.846-5.313V25.8h2.776a5.059,5.059,0,0,0,1.084-.123V32.52h3.979V20.733a5.069,5.069,0,0,0-5.063-5.063H44.447a5.063,5.063,0,0,0,0,10.127ZM63.65,56.05A13.334,13.334,0,0,1,50.584,40.262H76.742A13.334,13.334,0,0,1,63.65,56.05ZM76.125,36.284H51.2V25.8H76.125ZM44.447,19.648H82.882a1.1,1.1,0,0,1,1.084,1.084,1.086,1.086,0,0,1-1.084,1.084H44.447a1.085,1.085,0,0,1-1.083-1.084A1.1,1.1,0,0,1,44.447,19.648Z" fill="#3747ff"/><path d="M93.539,66.483a23.091,23.091,0,0,0-9.673,2.154,32.185,32.185,0,0,0-40.073.156,23.388,23.388,0,0,0-10.035-2.31C18.512,66.483,6.11,81.846,6.11,100.73h3.979c0-16.69,10.619-30.268,23.67-30.268a19.224,19.224,0,0,1,6.671,1.227c-9.151,8.776-15.062,22.532-15.062,37.981h3.979C29.347,85.422,44.861,65.7,63.93,65.7s34.584,19.726,34.584,43.973h3.979c0-15.53-5.972-29.353-15.207-38.122a18.855,18.855,0,0,1,6.252-1.085c13.068,0,23.7,13.577,23.7,30.268h3.979c0-18.884-12.413-34.247-27.676-34.247Z" fill="#3747ff"/><path d="M81,53.725A12.733,12.733,0,1,0,93.736,40.991,12.747,12.747,0,0,0,81,53.725ZM93.735,44.97a8.755,8.755,0,1,1-8.753,8.755A8.765,8.765,0,0,1,93.735,44.97Z" fill="#3747ff"/><path d="M33.592,66.458A12.734,12.734,0,1,0,20.859,53.725,12.747,12.747,0,0,0,33.592,66.458Zm0-21.489a8.755,8.755,0,1,1-8.754,8.755A8.764,8.764,0,0,1,33.592,44.97Z" fill="#3747ff"/></g></g></svg>