<svg xmlns="http://www.w3.org/2000/svg" width="120" height="87.422" viewBox="0 0 120 87.422"><g transform="translate(0 -16.289)"><path d="M113.141,58.67h-41.7a1.782,1.782,0,0,1-1.206-3.1L79.9,46.726V34.76A6.866,6.866,0,0,1,86.758,27.9h26.383A6.865,6.865,0,0,1,120,34.76V51.811A6.865,6.865,0,0,1,113.141,58.67ZM76.033,55.1h37.108a3.3,3.3,0,0,0,3.29-3.294V34.76a3.3,3.3,0,0,0-3.29-3.294H86.758a3.3,3.3,0,0,0-3.294,3.294V47.512a1.783,1.783,0,0,1-.577,1.315Z" fill="#3747ff"/><path d="M59.183,26.6H55.1a1.783,1.783,0,1,1,0-3.565h4.085a1.783,1.783,0,0,1,0,3.565Z" fill="#3747ff"/><path d="M106.606,103.711H7.676A7.683,7.683,0,0,1,0,96.035V92.392a1.781,1.781,0,0,1,1.783-1.783H53.115a1.783,1.783,0,0,1,0,3.565H3.565v1.857a4.115,4.115,0,0,0,4.111,4.111h98.929a4.115,4.115,0,0,0,4.111-4.111V94.174H61.171a1.783,1.783,0,1,1,0-3.565H112.5a1.781,1.781,0,0,1,1.783,1.783v3.644a7.688,7.688,0,0,1-7.68,7.676Z" fill="#3747ff"/><path d="M53.11,94.174H7.759a1.781,1.781,0,0,1-1.783-1.783V23.969a7.687,7.687,0,0,1,7.676-7.68h86.977a7.684,7.684,0,0,1,7.676,7.68v5.714a1.783,1.783,0,1,1-3.565,0V23.969a4.115,4.115,0,0,0-4.111-4.111H13.652a4.115,4.115,0,0,0-4.111,4.111v66.64H53.11a1.782,1.782,0,1,1,0,3.565Z" fill="#3747ff"/><path d="M106.522,94.174H61.171a1.783,1.783,0,0,1,0-3.565H104.74V56.887a1.783,1.783,0,1,1,3.565,0v35.5A1.784,1.784,0,0,1,106.522,94.174Z" fill="#3747ff"/><path d="M57.138,98.2a5.817,5.817,0,0,1-5.81-5.815,1.783,1.783,0,0,1,3.565,0,2.245,2.245,0,0,0,4.491,0,1.783,1.783,0,0,1,3.565,0A5.815,5.815,0,0,1,57.138,98.2Z" fill="#3747ff"/><path d="M74.308,81.3a1.781,1.781,0,0,1-1.783-1.783V71.6a1.235,1.235,0,0,0-.057-.376c-.018-.057-.03-.109-.044-.166-.494-2.35-2.7-7.82-12.39-7.82h-2.49a1.792,1.792,0,0,1-.406-.048,1.793,1.793,0,0,1-.406.048h-2.49c-9.694,0-11.9,5.47-12.39,7.82-.013.057-.026.114-.044.166a1.2,1.2,0,0,0-.057.376v7.921a1.783,1.783,0,0,1-3.565,0V71.6a4.723,4.723,0,0,1,.2-1.354c.494-2.263,2.678-8.655,11.595-10.223a8.7,8.7,0,0,1-1.962-5.5V47.992a8.728,8.728,0,0,1,8.72-8.72h.808a8.728,8.728,0,0,1,8.72,8.72v6.522a8.673,8.673,0,0,1-1.962,5.5c8.912,1.568,11.1,7.96,11.595,10.223A4.742,4.742,0,0,1,76.09,71.6v7.921A1.776,1.776,0,0,1,74.308,81.3ZM56.736,42.837a5.161,5.161,0,0,0-5.155,5.151V54.51a5.158,5.158,0,0,0,5.155,5.151,1.792,1.792,0,0,1,.406.048,1.793,1.793,0,0,1,.406-.048A5.161,5.161,0,0,0,62.7,54.51V47.988a5.158,5.158,0,0,0-5.155-5.151h-.812Z" fill="#3747ff"/></g></svg>