<svg xmlns="http://www.w3.org/2000/svg" width="116" height="116" viewBox="0 0 116 116"><g transform="translate(-14.5 -14.5)"><path d="M72.5,84.583A14.5,14.5,0,1,0,87,99.083,14.5,14.5,0,0,0,72.5,84.583Zm0,19.334a4.834,4.834,0,1,1,4.833-4.834A4.837,4.837,0,0,1,72.5,103.917Z"/><path d="M82.167,120.833H62.833a9.667,9.667,0,0,0-9.667,9.667H91.833A9.663,9.663,0,0,0,82.167,120.833Z"/><path d="M116,84.583a14.5,14.5,0,1,0,14.5,14.5A14.5,14.5,0,0,0,116,84.583Zm0,19.334a4.834,4.834,0,1,1,4.833-4.834A4.836,4.836,0,0,1,116,103.917Z"/><path d="M130.5,120.833H106.333a9.666,9.666,0,0,0-9.666,9.667H130.5Z"/><path d="M29,14.5A14.5,14.5,0,1,0,43.5,29,14.5,14.5,0,0,0,29,14.5Zm0,19.333A4.833,4.833,0,1,1,33.831,29,4.832,4.832,0,0,1,29,33.833Z"/><path d="M130.5,14.5H53.167v9.667h67.666v43.5H53.167v9.666H130.5Z"/><path d="M70.38,41.615A37.161,37.161,0,0,1,43.5,53.167h-29V130.5h9.669v-29h9.664v29H43.5V62.833a46.928,46.928,0,0,0,33.833-14.5ZM33.831,91.833H24.167v-29h9.664Z"/></g></svg>