<svg xmlns="http://www.w3.org/2000/svg" width="89.454" height="82" viewBox="0 0 89.454 82"><g transform="translate(0 -3.727)"><path d="M19.954,42.318l-2.635-2.635L8,49a1.864,1.864,0,0,0,0,2.635l9.318,9.318,2.635-2.635-8-8Z" fill="#3747ff"/><path d="M55.363,49l-9.318-9.318L43.41,42.318l8,8-8,8,2.635,2.635,9.318-9.318A1.864,1.864,0,0,0,55.363,49Z" fill="#3747ff"/><rect width="27.516" height="3.727" transform="translate(22.589 62.481) rotate(-61.718)" fill="#3747ff"/><path d="M52.182,29.818h-41a1.864,1.864,0,0,0-1.864,1.864v5.591h3.727V33.545H50.318v3.727h3.727V31.682A1.863,1.863,0,0,0,52.182,29.818Z" fill="#3747ff"/><path d="M50.318,65.227v3.727H13.045V65.227H9.318v5.591a1.864,1.864,0,0,0,1.864,1.864h41a1.864,1.864,0,0,0,1.864-1.864V65.227Z" fill="#3747ff"/><rect width="3.727" height="3.727" transform="translate(18.636 74.545)" fill="#3747ff"/><rect width="3.727" height="3.727" transform="translate(26.091 74.545)" fill="#3747ff"/><rect width="3.727" height="3.727" transform="translate(33.545 74.545)" fill="#3747ff"/><rect width="3.727" height="3.727" transform="translate(41 74.545)" fill="#3747ff"/><path d="M61.5,3.727h-41a1.864,1.864,0,0,0-1.318.546L.546,22.91A1.864,1.864,0,0,0,0,24.227V83.864a1.864,1.864,0,0,0,1.864,1.864H61.5a1.864,1.864,0,0,0,1.864-1.864V5.591A1.864,1.864,0,0,0,61.5,3.727ZM59.636,82H3.727V26.091H20.5a1.864,1.864,0,0,0,1.864-1.864V13.045H18.636v9.318H6.362L21.271,7.455H59.636Z" fill="#3747ff"/><path d="M74.545,3.727H67.091V7.454h5.591V82H67.091v3.727h7.455a1.864,1.864,0,0,0,1.864-1.864V5.591A1.864,1.864,0,0,0,74.545,3.727Z" fill="#3747ff"/><path d="M87.591,3.727H80.136V7.454h5.591V82H80.136v3.727h7.455a1.864,1.864,0,0,0,1.864-1.864V5.591A1.864,1.864,0,0,0,87.591,3.727Z" fill="#3747ff"/><path d="M55.909,11.182h-20.5v3.727H54.045v3.727H35.409v3.727h20.5A1.864,1.864,0,0,0,57.773,20.5V13.045A1.864,1.864,0,0,0,55.909,11.182Z" fill="#3747ff"/><rect width="3.727" height="3.727" transform="translate(27.955 18.636)" fill="#3747ff"/><rect width="3.727" height="3.727" transform="translate(27.955 11.182)" fill="#3747ff"/></g></svg>