<svg xmlns="http://www.w3.org/2000/svg" width="79.614" height="58" viewBox="0 0 79.614 58"><g transform="translate(0 -10.807)"><path d="M75.063,38.924H47.4a1.182,1.182,0,0,1-.8-2.055L53.006,31V23.061a4.555,4.555,0,0,1,4.553-4.55h17.5a4.555,4.555,0,0,1,4.55,4.55V34.374A4.555,4.555,0,0,1,75.063,38.924ZM50.444,36.556H75.063a2.186,2.186,0,0,0,2.182-2.185V23.061a2.186,2.186,0,0,0-2.182-2.185h-17.5a2.187,2.187,0,0,0-2.185,2.185v8.461a1.183,1.183,0,0,1-.383.873Z" fill="#fff"/><path d="M39.265,17.647h-2.71a1.183,1.183,0,0,1,0-2.365h2.71a1.183,1.183,0,1,1,0,2.365Z" fill="#fff"/><path d="M70.727,68.807H5.092A5.1,5.1,0,0,1,0,63.714V61.3a1.182,1.182,0,0,1,1.183-1.183H35.239a1.183,1.183,0,1,1,0,2.365H2.365v1.232a2.73,2.73,0,0,0,2.727,2.727H70.727a2.73,2.73,0,0,0,2.727-2.727V62.479H40.583a1.183,1.183,0,0,1,0-2.365H74.64A1.182,1.182,0,0,1,75.823,61.3v2.417a5.1,5.1,0,0,1-5.1,5.092Z" fill="#fff"/><path d="M35.236,62.479H5.148A1.182,1.182,0,0,1,3.965,61.3V15.9a5.1,5.1,0,0,1,5.092-5.1h57.7a5.1,5.1,0,0,1,5.092,5.1v3.791a1.183,1.183,0,1,1-2.365,0V15.9a2.73,2.73,0,0,0-2.727-2.727H9.058A2.73,2.73,0,0,0,6.33,15.9V60.114H35.236a1.183,1.183,0,1,1,0,2.365Z" fill="#fff"/><path d="M70.672,62.479H40.583a1.183,1.183,0,0,1,0-2.365H69.489V37.741a1.183,1.183,0,1,1,2.365,0V61.3A1.184,1.184,0,0,1,70.672,62.479Z" fill="#fff"/><path d="M37.908,65.152a3.859,3.859,0,0,1-3.855-3.858,1.183,1.183,0,0,1,2.365,0,1.49,1.49,0,1,0,2.98,0,1.183,1.183,0,0,1,2.365,0,3.858,3.858,0,0,1-3.855,3.858Z" fill="#fff"/><path d="M49.3,53.938a1.182,1.182,0,0,1-1.183-1.183V47.5a.819.819,0,0,0-.038-.249c-.012-.038-.02-.072-.029-.11-.328-1.559-1.788-5.188-8.22-5.188H38.178a1.189,1.189,0,0,1-.27-.032,1.189,1.189,0,0,1-.27.032H35.987c-6.432,0-7.892,3.629-8.22,5.188-.009.038-.017.075-.029.11a.8.8,0,0,0-.038.249v5.255a1.183,1.183,0,1,1-2.365,0V47.5a3.134,3.134,0,0,1,.131-.9c.328-1.5,1.777-5.742,7.692-6.782a5.771,5.771,0,0,1-1.3-3.652V31.84a5.79,5.79,0,0,1,5.785-5.785h.536a5.79,5.79,0,0,1,5.785,5.785v4.327a5.754,5.754,0,0,1-1.3,3.652c5.913,1.04,7.362,5.281,7.692,6.782a3.146,3.146,0,0,1,.128.9v5.255A1.178,1.178,0,0,1,49.3,53.938ZM37.642,28.42a3.424,3.424,0,0,0-3.42,3.417v4.327a3.422,3.422,0,0,0,3.42,3.417,1.189,1.189,0,0,1,.27.032,1.189,1.189,0,0,1,.27-.032,3.424,3.424,0,0,0,3.42-3.417V31.838a3.422,3.422,0,0,0-3.42-3.417h-.539Z" fill="#fff"/></g></svg>