<svg xmlns="http://www.w3.org/2000/svg" width="74" height="75.793" viewBox="0 0 74 75.793"><g transform="translate(-0.896 0)"><path d="M34.861,28.153a1.267,1.267,0,0,1-.975-.458,2.035,2.035,0,0,0-3.14,0,1.265,1.265,0,1,1-1.951-1.61,4.564,4.564,0,0,1,7.041,0,1.263,1.263,0,0,1-.17,1.78A1.284,1.284,0,0,1,34.861,28.153Z" fill="#fff"/><path d="M46.028,28.153a1.267,1.267,0,0,1-.975-.458,2.035,2.035,0,0,0-3.14,0,1.265,1.265,0,1,1-1.951-1.61,4.564,4.564,0,0,1,7.041,0,1.263,1.263,0,0,1-.975,2.068Z" fill="#fff"/><path d="M59.146,75.793h-42.5a1.263,1.263,0,0,1-1.263-1.263V45.7a3.8,3.8,0,0,1,3.8-3.8H56.611a3.8,3.8,0,0,1,3.8,3.8V74.529a1.262,1.262,0,0,1-1.263,1.263Zm-41.234-2.53H57.88V45.7a1.275,1.275,0,0,0-1.273-1.273H19.185A1.275,1.275,0,0,0,17.912,45.7Z" fill="#fff"/><path d="M2.159,75.78A1.263,1.263,0,0,1,.9,74.517V70.492a7.618,7.618,0,0,1,.328-2.211A24.272,24.272,0,0,1,16.166,50.863a1.264,1.264,0,1,1,.963,2.337A21.776,21.776,0,0,0,3.682,68.861c-.009.04-.019.081-.031.118a5.017,5.017,0,0,0-.232,1.514v4.025a1.258,1.258,0,0,1-1.26,1.263Z" fill="#fff"/><path d="M50.607,44.423a1.265,1.265,0,0,1-1.04-1.984,13.111,13.111,0,0,0,2.344-7.505V21.354A13.193,13.193,0,0,0,38.734,8.177H37.05A13.191,13.191,0,0,0,23.873,21.354v13.58A13.086,13.086,0,0,0,26.124,42.3a1.265,1.265,0,1,1-2.1,1.415,15.625,15.625,0,0,1-2.684-8.781V21.354a15.72,15.72,0,0,1,15.7-15.7h1.684a15.72,15.72,0,0,1,15.7,15.7v13.58a15.608,15.608,0,0,1-2.8,8.948,1.232,1.232,0,0,1-1.031.542Z" fill="#fff"/><path d="M73.636,75.78a1.263,1.263,0,0,1-1.263-1.263V70.492a5,5,0,0,0-.232-1.514c-.013-.04-.022-.077-.031-.118A21.768,21.768,0,0,0,58.663,53.2a1.264,1.264,0,1,1,.963-2.337A24.273,24.273,0,0,1,74.568,68.282a7.527,7.527,0,0,1,.328,2.211v4.025a1.254,1.254,0,0,1-1.26,1.263Z" fill="#fff"/><path d="M58.831,23.165A1.263,1.263,0,0,1,57.567,21.9v-.548A18.849,18.849,0,0,0,38.74,2.526H37.056A18.849,18.849,0,0,0,18.228,21.354V21.9a1.263,1.263,0,0,1-2.527,0v-.548A21.379,21.379,0,0,1,37.056,0H38.74A21.378,21.378,0,0,1,60.094,21.354V21.9a1.262,1.262,0,0,1-1.263,1.263Z" fill="#fff"/><path d="M18.612,37.677h-3.3a5.289,5.289,0,0,1-5.282-5.282V25.918a5.289,5.289,0,0,1,5.282-5.282h3.3a5.289,5.289,0,0,1,5.282,5.282v6.477A5.291,5.291,0,0,1,18.612,37.677Zm-3.3-14.512a2.756,2.756,0,0,0-2.753,2.753v6.477a2.756,2.756,0,0,0,2.753,2.753h3.3a2.756,2.756,0,0,0,2.753-2.753V25.918a2.756,2.756,0,0,0-2.753-2.753Z" fill="#fff"/><path d="M60.481,37.677h-3.3A5.289,5.289,0,0,1,51.9,32.395V25.918a5.289,5.289,0,0,1,5.282-5.282h3.3a5.289,5.289,0,0,1,5.282,5.282v6.477A5.287,5.287,0,0,1,60.481,37.677Zm-3.3-14.512a2.756,2.756,0,0,0-2.753,2.753v6.477a2.756,2.756,0,0,0,2.753,2.753h3.3a2.756,2.756,0,0,0,2.753-2.753V25.918a2.756,2.756,0,0,0-2.753-2.753Z" fill="#fff"/><path d="M37.9,62.641a6.118,6.118,0,1,1,6.118-6.118A6.125,6.125,0,0,1,37.9,62.641Zm0-9.706a3.589,3.589,0,1,0,3.589,3.589A3.593,3.593,0,0,0,37.9,52.934Z" fill="#fff"/></g></svg>