<svg xmlns="http://www.w3.org/2000/svg" width="80" height="79.969" viewBox="0 0 80 79.969"><g transform="translate(0 -0.015)"><rect width="2.5" height="2.5" transform="translate(6.251 63.735)" fill="#fff"/><path d="M56.124,60.676l-1.25-2.5a1.262,1.262,0,0,0-.625-.589L45.95,54l-.668-2.071a10.262,10.262,0,0,0,3.468-8.191v-10a1.25,1.25,0,0,0-.366-.884A12.164,12.164,0,0,0,40,29.985a12.165,12.165,0,0,0-8.383,2.866,1.25,1.25,0,0,0-.366.884v10a10.263,10.263,0,0,0,3.466,8.19L34.048,54l-8.291,3.59a1.262,1.262,0,0,0-.625.589l-1.25,2.5a1.25,1.25,0,0,0-.131.559V79.984h2.5V61.529l.912-1.83,7.526-3.258L38.75,60.5v6.982h2.5V60.5l4.06-4.06L52.836,59.7l.914,1.83V79.984h2.5V61.234A1.249,1.249,0,0,0,56.124,60.676ZM33.75,34.318A10.376,10.376,0,0,1,40,32.485a10.374,10.374,0,0,1,6.25,1.832V39.8c-.625-.164-1.25-.477-1.25-1.069a1.25,1.25,0,0,0-1.25-1.25h-7.5A1.25,1.25,0,0,0,35,38.735c0,.592-.625.9-1.25,1.069V34.318ZM40,58.217l-3.546-3.546.477-1.479a8.959,8.959,0,0,0,6.137,0l.477,1.479Zm0-6.982c-4.612,0-6.25-4.04-6.25-7.5V42.367a4.438,4.438,0,0,0,3.522-2.382h5.455a4.438,4.438,0,0,0,3.522,2.382v1.367C46.25,47.195,44.612,51.235,40,51.235Z" fill="#fff"/><rect width="2.5" height="7.5" transform="translate(30 72.485)" fill="#fff"/><rect width="2.5" height="7.5" transform="translate(47.5 72.485)" fill="#fff"/><path d="M54.758,19.246,41.009.5a1.3,1.3,0,0,0-2.017,0L25.242,19.246a1.25,1.25,0,0,0,1.009,1.99h5v5h2.5v-6.25a1.25,1.25,0,0,0-1.25-1.25H28.718L40,3.35,51.282,18.736H47.5a1.25,1.25,0,0,0-1.25,1.25v6.25h2.5v-5h5a1.25,1.25,0,0,0,1.009-1.99Z" fill="#fff"/><path d="M79.757,36.745,66.008,18a1.3,1.3,0,0,0-2.017,0L50.241,36.745a1.25,1.25,0,0,0,1.009,1.99h5v8.75h2.5v-10a1.25,1.25,0,0,0-1.25-1.25H53.717L65,20.849,76.281,36.235H65v2.5h6.25v22.5h2.5v-22.5h5a1.25,1.25,0,0,0,1.009-1.99Z" fill="#fff"/><path d="M29.759,36.745,16.009,18a1.3,1.3,0,0,0-2.017,0L.242,36.745a1.25,1.25,0,0,0,1.009,1.99h5v22.5h2.5v-22.5H15v-2.5H3.718L15,20.849,26.283,36.235H22.5a1.25,1.25,0,0,0-1.25,1.25v10h2.5v-8.75h5a1.25,1.25,0,0,0,1.009-1.99Z" fill="#fff"/><rect width="2.5" height="2.5" transform="translate(21.251 49.985)" fill="#fff"/><rect width="2.5" height="2.5" transform="translate(56.25 49.985)" fill="#fff"/><rect width="2.5" height="2.5" transform="translate(71.249 63.735)" fill="#fff"/></g></svg>