<svg xmlns="http://www.w3.org/2000/svg" width="90" height="90" viewBox="0 0 90 90"><path d="M23.379,14.59a1.758,1.758,0,1,0,1.758,1.758A1.758,1.758,0,0,0,23.379,14.59Z" fill="#3747ff"/><path d="M45,0C20.746,0,0,20.707,0,45,0,69.26,20.71,90,45,90c24.254,0,45-20.707,45-45C90,20.74,69.29,0,45,0Zm0,86.484c-22.487,0-41.484-19-41.484-41.484S22.513,3.516,45,3.516,86.484,22.513,86.484,45,67.487,86.484,45,86.484Z" fill="#3747ff"/><path d="M45,7.559a39.329,39.329,0,0,0-16.359,3.569A1.758,1.758,0,1,0,30.154,14.3,35.694,35.694,0,0,1,45,11.074C63.39,11.074,78.926,26.61,78.926,45S63.39,78.926,45,78.926,11.074,63.39,11.074,45a34.508,34.508,0,0,1,8.455-22.715A1.758,1.758,0,0,0,16.9,19.948,38.066,38.066,0,0,0,7.559,45C7.559,65.343,24.627,82.441,45,82.441c20.343,0,37.441-17.069,37.441-37.441C82.441,24.657,65.373,7.559,45,7.559Z" fill="#3747ff"/><path d="M66.094,36.211h-12.3v-12.3a1.758,1.758,0,0,0-1.758-1.758H37.969a1.758,1.758,0,0,0-1.758,1.758v12.3h-12.3a1.758,1.758,0,0,0-1.758,1.758V52.031a1.758,1.758,0,0,0,1.758,1.758h12.3v12.3a1.758,1.758,0,0,0,1.758,1.758H52.031a1.758,1.758,0,0,0,1.758-1.758v-12.3h12.3a1.758,1.758,0,0,0,1.758-1.758V37.969A1.758,1.758,0,0,0,66.094,36.211ZM64.336,50.273h-12.3a1.758,1.758,0,0,0-1.758,1.758v12.3H39.727v-12.3a1.758,1.758,0,0,0-1.758-1.758h-12.3V39.727h12.3a1.758,1.758,0,0,0,1.758-1.758v-12.3H50.273v12.3a1.758,1.758,0,0,0,1.758,1.758h12.3Z" fill="#3747ff"/></svg>