<svg xmlns="http://www.w3.org/2000/svg" width="80.539" height="90" viewBox="0 0 80.539 90"><g transform="translate(-0.088)"><path d="M39.121,66.213a1.758,1.758,0,1,0,1.244-.515A1.765,1.765,0,0,0,39.121,66.213Zm0,0" fill="#3747ff"/><path d="M60.58,71.676a1.761,1.761,0,1,0,1.243.516A1.771,1.771,0,0,0,60.58,71.676Zm0,0" fill="#3747ff"/><path d="M71.834,13.295H70.251V1.758A1.758,1.758,0,0,0,68.493,0H12.222a1.759,1.759,0,0,0-1.758,1.758V13.295H8.88A8.8,8.8,0,0,0,.088,22.087V66.4A8.8,8.8,0,0,0,8.88,75.193H31.571v4.26a8.8,8.8,0,0,0-8.621,8.788A1.759,1.759,0,0,0,24.709,90h31.31a1.759,1.759,0,0,0,1.758-1.758,8.8,8.8,0,0,0-8.621-8.788v-4.26h4.918a1.758,1.758,0,1,0,0-3.517H8.88A5.281,5.281,0,0,1,3.6,66.4V63.236h73.5V66.4a5.281,5.281,0,0,1-5.275,5.275H67.79a1.758,1.758,0,1,0,0,3.517h4.044A8.8,8.8,0,0,0,80.627,66.4V22.087a8.8,8.8,0,0,0-8.792-8.792ZM53.959,86.483H26.768a5.286,5.286,0,0,1,4.975-3.517H48.985a5.285,5.285,0,0,1,4.974,3.517Zm-8.319-11.29v4.221H35.088V75.193Zm21.1-71.676v7.878H13.98V3.517ZM13.98,59.719v-23a1.758,1.758,0,1,0-3.517,0v23H3.605V22.087A5.281,5.281,0,0,1,8.88,16.812h1.583V23a1.758,1.758,0,1,0,3.517,0V14.912H66.734V59.719Zm56.271,0V16.812h1.583a5.281,5.281,0,0,1,5.275,5.275V59.719Zm0,0" fill="#3747ff"/><path d="M41.94,9.215H60.111a1.758,1.758,0,0,0,0-3.517H41.94a1.758,1.758,0,1,0,0,3.517Zm0,0" fill="#3747ff"/><path d="M24.835,9.215A1.761,1.761,0,1,0,23.592,8.7,1.77,1.77,0,0,0,24.835,9.215Zm0,0" fill="#3747ff"/><path d="M18.4,9.215A1.759,1.759,0,1,0,17.154,8.7,1.77,1.77,0,0,0,18.4,9.215Zm0,0" fill="#3747ff"/><path d="M31.271,9.215A1.759,1.759,0,1,0,30.028,8.7,1.766,1.766,0,0,0,31.271,9.215Zm0,0" fill="#3747ff"/><path d="M12.222,28.1a1.759,1.759,0,1,0,1.243.515A1.772,1.772,0,0,0,12.222,28.1Zm0,0" fill="#3747ff"/><path d="M30.841,28.7a1.759,1.759,0,0,0-2.487,0l-7.747,7.747a1.758,1.758,0,0,0,0,2.487l7.747,7.747a1.759,1.759,0,1,0,2.487-2.487l-6.5-6.5,6.5-6.5a1.76,1.76,0,0,0,0-2.488Zm0,0" fill="#3747ff"/><path d="M52.361,28.7a1.759,1.759,0,1,0-2.487,2.487l6.5,6.5-6.5,6.5a1.759,1.759,0,0,0,2.487,2.487l7.747-7.747a1.759,1.759,0,0,0,0-2.487Zm0,0" fill="#3747ff"/><path d="M44.473,28.517a1.758,1.758,0,0,0-2.321.893l-6.8,15.31a1.759,1.759,0,1,0,3.214,1.428l6.8-15.31a1.759,1.759,0,0,0-.893-2.321Zm0,0" fill="#3747ff"/></g></svg>