<svg xmlns="http://www.w3.org/2000/svg" width="96" height="96" viewBox="0 0 96 96"><g transform="translate(-2 -2)"><path d="M94.571,26H87.714V22.571a3.428,3.428,0,0,0-3.429-3.429H67.143A28.589,28.589,0,0,0,50,24.882a27.328,27.328,0,0,0-6.857-3.8V12.286a10.286,10.286,0,1,0-20.571,0V56.857a3.432,3.432,0,0,0,.576,1.9L30,69.045a3.428,3.428,0,0,0,5.705,0l6.857-10.286a3.432,3.432,0,0,0,.576-1.9V28.635a18.984,18.984,0,0,1,4.433,3.218,3.529,3.529,0,0,0,4.848,0A21.443,21.443,0,0,1,67.143,26H80.857V74H67.143A28.579,28.579,0,0,0,50,79.741,28.579,28.579,0,0,0,32.857,74H19.143V22.571a3.429,3.429,0,0,0-6.857,0V26H5.429A3.428,3.428,0,0,0,2,29.429V87.714a3.428,3.428,0,0,0,3.429,3.429H32.857A21.443,21.443,0,0,1,47.576,97a3.427,3.427,0,0,0,4.848,0,21.443,21.443,0,0,1,14.719-5.853H94.571A3.428,3.428,0,0,0,98,87.714V29.429A3.428,3.428,0,0,0,94.571,26ZM32.857,50a11.581,11.581,0,0,0-3.429.58V20.553a5.112,5.112,0,0,1,6.857,0V50.58A11.58,11.58,0,0,0,32.857,50Zm0-41.143a3.432,3.432,0,0,1,3.429,3.429v.58a11.581,11.581,0,0,0-3.429-.58,11.581,11.581,0,0,0-3.429.58v-.58A3.432,3.432,0,0,1,32.857,8.857Zm0,52.105L30.549,57.5a5.008,5.008,0,0,1,4.616,0ZM91.143,84.286h-24A28.579,28.579,0,0,0,50,90.026a28.579,28.579,0,0,0-17.143-5.741h-24V32.857h3.429V77.429a3.428,3.428,0,0,0,3.429,3.429H32.857A21.443,21.443,0,0,1,47.576,86.71a3.427,3.427,0,0,0,4.848,0,21.443,21.443,0,0,1,14.719-5.853H84.286a3.428,3.428,0,0,0,3.429-3.429V32.857h3.429Z" fill="#3747ff"/><path d="M18,24.281a3.429,3.429,0,0,0,4.848,0c1.246-1.247,5.069-2.426,7.862-2.426h3.429a3.429,3.429,0,1,0,0-6.857H30.714c-3.2,0-9.479,1.2-12.71,4.431a3.429,3.429,0,0,0,0,4.85Z" transform="translate(36.429 31.571)" fill="#3747ff"/><path d="M18,28.281a3.429,3.429,0,0,0,4.848,0c1.246-1.247,5.069-2.426,7.862-2.426h3.429a3.429,3.429,0,1,0,0-6.857H30.714c-3.2,0-9.479,1.2-12.71,4.431a3.429,3.429,0,0,0,0,4.85Z" transform="translate(36.429 41.286)" fill="#3747ff"/><path d="M20.429,21.286a3.423,3.423,0,0,0,2.424-1c1.246-1.247,5.069-2.426,7.862-2.426h3.429a3.429,3.429,0,1,0,0-6.857H30.714c-3.2,0-9.479,1.2-12.71,4.431a3.429,3.429,0,0,0,2.424,5.854Z" transform="translate(36.429 21.857)" fill="#3747ff"/></g></svg>