<svg xmlns="http://www.w3.org/2000/svg" width="86" height="89.74" viewBox="0 0 86 89.74"><g transform="translate(-1.87)"><path d="M78.522,86h-67.3a1.87,1.87,0,1,0,0,3.739h67.3a1.87,1.87,0,1,0,0-3.739Z" fill="#3747ff"/><path d="M87.8,53.881a1.737,1.737,0,0,0-.067-.359l-.015-.034v0L72.779,16.127s-.008,0-.008-.011a1.865,1.865,0,0,0-1.727-1.159h-24.3V10.873a5.609,5.609,0,1,0-3.739,0v4.083H18.7a1.86,1.86,0,0,0-1.727,1.167s-.008,0-.008.011L2.019,53.492v0L2,53.53a1.69,1.69,0,0,0-.067.359,1.509,1.509,0,0,0-.067.329c0,.008,0,.015,0,.022s0,.034,0,.049a16.819,16.819,0,0,0,33.637,0c0-.019,0-.034,0-.049s0-.015,0-.022a1.676,1.676,0,0,0-.067-.337,1.737,1.737,0,0,0-.067-.359l-.015-.034v0L21.459,18.7H43V78.522H18.7a1.87,1.87,0,1,0,0,3.739H71.044a1.87,1.87,0,1,0,0-3.739h-24.3V18.7H68.281L54.363,53.489v0l-.015.034a1.69,1.69,0,0,0-.067.359,1.868,1.868,0,0,0-.064.333c0,.008,0,.015,0,.022s0,.034,0,.049a16.819,16.819,0,0,0,33.637,0c0-.019,0-.034,0-.049s0-.015,0-.022A1.653,1.653,0,0,0,87.8,53.881ZM18.7,67.3A13.105,13.105,0,0,1,5.743,56.087H31.652A13.112,13.112,0,0,1,18.7,67.3ZM30.889,52.348H6.5L18.7,21.859ZM44.87,7.478a1.87,1.87,0,1,1,1.87-1.87A1.87,1.87,0,0,1,44.87,7.478ZM71.044,21.859,83.237,52.348H58.847Zm0,45.446A13.105,13.105,0,0,1,58.091,56.087H84A13.112,13.112,0,0,1,71.044,67.3Z" fill="#3747ff"/></g></svg>