<svg xmlns="http://www.w3.org/2000/svg" width="117.422" height="98.998" viewBox="0 0 117.422 98.998"><path d="M115.521,81.062l-9.5-4.748c10.415-8.064,4.717-25.073-8.624-25.093-13.341.021-19.039,17.032-8.623,25.093L80.82,80.293,68.076,73.921c15.572-9.389,9.075-33.643-9.365-33.754-18.44.112-24.936,24.369-9.364,33.754L36.6,80.293l-7.958-3.979c10.415-8.064,4.717-25.073-8.624-25.093C6.68,51.242.982,68.253,11.4,76.314L1.9,81.062A3.44,3.44,0,0,0,0,84.139v38.69a3.44,3.44,0,0,0,3.44,3.44H33.163v9.456a3.44,3.44,0,0,0,3.44,3.44H80.82a3.44,3.44,0,0,0,3.44-3.44v-9.456h29.723a3.44,3.44,0,0,0,3.44-3.44V84.139A3.44,3.44,0,0,0,115.521,81.062ZM20.021,58.1a7.162,7.162,0,0,1,7.154,7.154c-.36,9.477-13.949,9.475-14.307,0A7.161,7.161,0,0,1,20.021,58.1Zm13.141,61.287H6.88V86.265l13.141-6.571,13.141,6.571Zm14.25-61.043a11.312,11.312,0,0,1,11.3-11.3c14.969.568,14.965,22.032,0,22.6A11.311,11.311,0,0,1,47.412,58.346Zm14.961,54.113-3.662,3.662-3.662-3.662,3.662-20.143ZM77.38,132.285H40.043V86.265L54.1,79.239,47.957,113a3.44,3.44,0,0,0,.952,3.048l7.369,7.369a3.44,3.44,0,0,0,4.865,0l7.369-7.369A3.441,3.441,0,0,0,69.465,113L63.326,79.239l14.053,7.027v46.02ZM97.4,58.1a7.162,7.162,0,0,1,7.153,7.154c-.36,9.477-13.949,9.474-14.307,0A7.162,7.162,0,0,1,97.4,58.1Zm13.141,61.287H84.26V86.265L97.4,79.695l13.141,6.571Z" transform="translate(0 -40.167)" fill="#3747ff"/></svg>