<svg xmlns="http://www.w3.org/2000/svg" width="90" height="85.56" viewBox="0 0 90 85.56"><g transform="translate(0)"><path d="M89.837,70.578a7.662,7.662,0,0,0-9.212-5.91l-9.381,2.148V62.981a37.055,37.055,0,0,0,5.234-6.2,36.354,36.354,0,0,0,5.139-12.1,37.082,37.082,0,0,0,.071-15.741,1.758,1.758,0,0,0-3.438.736,33.523,33.523,0,0,1-.064,14.237,32.852,32.852,0,0,1-4.644,10.936,31.3,31.3,0,0,1-2.3,3.032V38.392a1.758,1.758,0,0,0-1.758-1.758H55.581V17.863a1.758,1.758,0,0,0-1.752-1.758l-15.663-.053h-.005A1.758,1.758,0,0,0,36.4,17.81v9.765H22.5a1.758,1.758,0,0,0-1.758,1.758V46.74H16.821V44.352A1.758,1.758,0,0,0,15.064,42.6h-1.8A33.269,33.269,0,0,1,14.7,25.355c.328-.9.7-1.8,1.105-2.677a1.758,1.758,0,1,0-3.187-1.484c-.45.965-.862,1.962-1.224,2.962A36.733,36.733,0,0,0,9.694,42.6H1.758A1.758,1.758,0,0,0,0,44.353v30.9a1.758,1.758,0,0,0,1.758,1.758H15.064a1.758,1.758,0,0,0,1.758-1.758V73.579h6.612L50.219,84.085a21.157,21.157,0,0,0,13.009.814l20.994-5.336a7.648,7.648,0,0,0,5.615-8.985ZM67.729,40.15V67.62L63.03,68.7c-.505.115-1.016.207-1.53.278a17.844,17.844,0,0,1-5.894-.171l-.025-.005V66.132a8.141,8.141,0,0,0,1.082-6.849,7.894,7.894,0,0,0-.827-1.843q-.121-.2-.251-.383l0-.005v-16.9H67.729ZM39.919,19.574l12.147.041V54.26l-6.789-2.81-5.359-2.219ZM24.254,31.091H36.4V47.775l-2.18-.9a1.755,1.755,0,0,0-.672-.134h-9.3Zm-10.948,42.4H3.515V46.11h9.79Zm70.051,2.663L62.362,81.492a17.666,17.666,0,0,1-10.86-.679L24.408,70.185a1.756,1.756,0,0,0-.642-.121H16.821V50.256H33.2l11.374,4.708L50.8,57.54a4.4,4.4,0,0,1,2.353,5.7,5.026,5.026,0,0,1-.7,1.235,4.531,4.531,0,0,1-4.607,1.59l-.041-.01c-.1-.025-.2-.055-.3-.088L35.666,61.415l-.147-.056a1.758,1.758,0,0,0-1.261,3.281s6.669,2.564,11.754,4.525c.1.04.2.077.306.111l3.9,1.5A32.281,32.281,0,0,0,53.807,72a21.327,21.327,0,0,0,10.009.126l6.064-1.388.019-.005L81.41,68.095a4.147,4.147,0,0,1,1.947,8.061Zm0,0" fill="#3747ff"/><path d="M22.479,12.5a1.751,1.751,0,0,0,1.178-.453A33.032,33.032,0,0,1,48.063,3.586a32.97,32.97,0,0,1,9.583,2.087A1.758,1.758,0,1,0,58.9,2.389,36.477,36.477,0,0,0,48.294.078,36.55,36.55,0,0,0,21.3,9.44,1.758,1.758,0,0,0,22.479,12.5Zm0,0" fill="#3747ff"/><path d="M62.382,25.047a1.759,1.759,0,0,0,2.48-.174L79.325,8.226A1.758,1.758,0,1,0,76.672,5.92L62.209,22.568a1.757,1.757,0,0,0,.174,2.479Zm0,0" fill="#3747ff"/><path d="M75.343,17.532a4.413,4.413,0,1,0,4.413,4.413A4.418,4.418,0,0,0,75.343,17.532Zm0,5.311a.9.9,0,1,1,.9-.9A.9.9,0,0,1,75.343,22.843Zm0,0" fill="#3747ff"/><path d="M65.581,13.619a4.413,4.413,0,1,0-4.413-4.413A4.418,4.418,0,0,0,65.581,13.619Zm0-5.311a.9.9,0,1,1-.9.9A.9.9,0,0,1,65.581,8.308Zm0,0" fill="#3747ff"/><path d="M16.23,16.633a1.757,1.757,0,1,0,.647-2.134,1.772,1.772,0,0,0-.647,2.134Zm0,0" fill="#3747ff"/></g></svg>