<svg width="117" height="117" viewBox="0 0 117 117" fill="none" xmlns="http://www.w3.org/2000/svg">
<g clip-path="url(#clip0_171_2)">
<path d="M111.619 0H5.38063C2.41373 0 0 2.41373 0 5.38063V44.0254C0 44.974 0.768628 45.7427 1.71722 45.7427C2.66581 45.7427 3.43444 44.974 3.43444 44.0254V12.593H94.288C95.2366 12.593 96.0053 11.8243 96.0053 10.8757C96.0053 9.92714 95.2366 9.15851 94.288 9.15851H3.43444V5.38063C3.43444 4.30748 4.30748 3.43444 5.38063 3.43444H111.619C112.693 3.43444 113.566 4.30748 113.566 5.38063V9.15851H102.62C101.671 9.15851 100.903 9.92714 100.903 10.8757C100.903 11.8243 101.671 12.593 102.62 12.593H113.566V76.9315H3.43444V51.9317C3.43444 50.9832 2.66581 50.2145 1.71722 50.2145C0.768628 50.2145 0 50.9832 0 51.9317V85.9755C0 88.9424 2.41373 91.3562 5.38063 91.3562H45.7926V103.32L37.4679 108.315C36.9505 108.625 36.6341 109.184 36.6341 109.788V115.283C36.6341 116.231 37.4027 117 38.3513 117H78.6487C79.5973 117 80.366 116.231 80.366 115.283V109.788C80.366 109.184 80.0495 108.625 79.5321 108.315L71.2074 103.32V91.3562H111.619C114.586 91.3562 117 88.9424 117 85.9755V5.38063C117 2.41373 114.586 0 111.619 0ZM76.9315 113.566H40.0685V110.76L47.3646 106.382C49.0663 107.607 52.7853 109.673 58.5 109.673C64.2147 109.673 67.9337 107.607 69.6354 106.382L76.9315 110.76V113.566ZM67.773 103.496C66.6277 104.363 63.5653 106.239 58.5 106.239C53.4278 106.239 50.3643 104.358 49.227 103.497V91.3562H67.773V103.496ZM113.566 85.9755C113.566 87.0487 112.693 87.9217 111.619 87.9217H5.38063C4.30748 87.9217 3.43444 87.0487 3.43444 85.9755V80.366H113.566V85.9755Z" fill="#3747FF"/>
<path d="M91.4705 73.0392C92.4191 73.0392 93.1877 72.2705 93.1877 71.3219V18.2026C93.1877 17.254 92.4191 16.4854 91.4705 16.4854H25.5292C24.5806 16.4854 23.812 17.254 23.812 18.2026V71.3219C23.812 72.2705 24.5806 73.0392 25.5292 73.0392H91.4705ZM27.2465 69.6047V30.91H89.7533V69.6047H27.2465ZM27.2465 19.9198H89.7533V27.4756H27.2465V19.9198Z" fill="#3747FF"/>
<path d="M84.1437 25.5294C85.1553 25.5294 85.9754 24.7093 85.9754 23.6977C85.9754 22.686 85.1553 21.866 84.1437 21.866C83.1321 21.866 82.312 22.686 82.312 23.6977C82.312 24.7093 83.1321 25.5294 84.1437 25.5294Z" fill="#3747FF"/>
<path d="M76.8171 25.5294C77.8287 25.5294 78.6488 24.7093 78.6488 23.6977C78.6488 22.686 77.8287 21.866 76.8171 21.866C75.8054 21.866 74.9854 22.686 74.9854 23.6977C74.9854 24.7093 75.8054 25.5294 76.8171 25.5294Z" fill="#3747FF"/>
<path d="M69.4904 25.5294C70.502 25.5294 71.3221 24.7093 71.3221 23.6977C71.3221 22.686 70.502 21.866 69.4904 21.866C68.4788 21.866 67.6587 22.686 67.6587 23.6977C67.6587 24.7093 68.4788 25.5294 69.4904 25.5294Z" fill="#3747FF"/>
<path d="M45.0606 40.8003C44.3898 40.1299 43.3027 40.1299 42.632 40.8003L35.3052 48.1271C34.6346 48.798 34.6346 49.8851 35.3052 50.5557L42.632 57.8825C43.3306 58.5806 44.5098 58.5341 45.152 57.7838C45.7274 57.1116 45.6859 56.079 45.0609 55.4537L38.9478 49.3415L45.0604 43.2291C45.731 42.5583 45.731 41.4711 45.0606 40.8003Z" fill="#3747FF"/>
<path d="M74.3681 40.8003C73.6972 40.1299 72.6101 40.1299 71.9395 40.8003C71.2689 41.4711 71.2689 42.5583 71.9395 43.2289L78.0521 49.3413L71.9395 55.4537C71.3144 56.079 71.2728 57.1116 71.8484 57.7838C72.4904 58.5339 73.6698 58.5804 74.3683 57.8825L81.6951 50.5557C82.3658 49.8848 82.3658 48.7977 81.6951 48.1271L74.3681 40.8003Z" fill="#3747FF"/>
<path d="M64.6122 40.8002L49.9586 55.4538C49.3336 56.0791 49.2919 57.1118 49.8675 57.784C50.5095 58.5341 51.6889 58.5805 52.3875 57.8827L67.0411 43.229C67.7117 42.5582 67.7117 41.4711 67.0411 40.8004C66.3702 40.13 65.2831 40.13 64.6122 40.8002Z" fill="#3747FF"/>
</g>
<defs>
<clipPath id="clip0_171_2">
<rect width="117" height="117" fill="white"/>
</clipPath>
</defs>
</svg>
