<svg xmlns="http://www.w3.org/2000/svg" width="87.745" height="89" viewBox="0 0 87.745 89"><g transform="translate(-1.415 -0.16)"><circle cx="1.415" cy="1.415" r="1.415" transform="translate(43.872 41.042)" fill="#3747ff"/><path d="M45.288,49.533a7.065,7.065,0,0,0,5.9-10.972L55.544,34.2a7.1,7.1,0,1,0-2-2L49.184,36.56a7.063,7.063,0,0,0-10.829,4.482H35.121a4.246,4.246,0,1,0,0,2.83h3.234a7.089,7.089,0,0,0,6.933,5.661ZM59.44,24.059A4.246,4.246,0,1,1,55.194,28.3,4.251,4.251,0,0,1,59.44,24.059ZM45.288,38.211a4.246,4.246,0,1,1-4.246,4.246A4.251,4.251,0,0,1,45.288,38.211ZM31.135,43.872a1.415,1.415,0,1,1,1.415-1.415A1.417,1.417,0,0,1,31.135,43.872Z" fill="#3747ff"/><circle cx="1.415" cy="1.415" r="1.415" transform="translate(58.025 26.889)" fill="#3747ff"/><path d="M3.106,66.516h3.97V77.838h2.83V63.686H8.215l4.522-7.236,4.522,7.236H15.568V89.16H18.4V66.516h3.97L12.737,51.108Z" fill="#3747ff"/><path d="M7.076,80.669h2.83V89.16H7.076Z" fill="#3747ff"/><path d="M72.177,18.4h2.83V12.737H73.316L77.838,5.5l4.522,7.236H80.669V38.211H83.5V15.568h3.97L77.838.16,68.207,15.568h3.97Z" fill="#3747ff"/><path d="M87.766,59.424a4.042,4.042,0,0,1-2.624-6.336l.821-1.149-7.7-7.7-1.151.822a3.994,3.994,0,0,1-3.314.6,27.817,27.817,0,0,0,1.186-7.453h.023V21.229h-2.83v4.223A27.66,27.66,0,0,0,47.352,9.907h-4.13a27.726,27.726,0,0,0-4.843.451L31.237,3.215,29.172,5.279a1.322,1.322,0,0,1-1.465.26,1.3,1.3,0,0,1-.818-1.2V1.415H15.568v2.92a1.352,1.352,0,0,1-2.281.944L11.221,3.215l-8.006,8,2.063,2.066a1.321,1.321,0,0,1,.262,1.465,1.3,1.3,0,0,1-1.206.817H1.415V26.889h2.92a1.319,1.319,0,0,1,1.22.855,1.3,1.3,0,0,1-.277,1.428L3.215,31.237l8,8,2.065-2.063a1.322,1.322,0,0,1,1.465-.26,1.3,1.3,0,0,1,.818,1.2h.02A27.491,27.491,0,0,0,30.855,62.3l1.7.848v3.371a2.833,2.833,0,0,0,2.83,2.83h5.661v1.2l1.4.232a3.991,3.991,0,0,1,2.413,1.4H35.381a2.833,2.833,0,0,0-2.83,2.83v1.415A12.727,12.727,0,0,0,55.2,84.4a4.058,4.058,0,0,1,1.793.3,4,4,0,0,1,2.43,3.06l.235,1.4h10.89l.228-1.393a4.043,4.043,0,0,1,6.337-2.624l1.151.821,7.7-7.7-.819-1.146a4.042,4.042,0,0,1,2.614-6.339l1.4-.232V59.656ZM55.194,72.177H54.53a12.625,12.625,0,0,1-1.428-2.83h2.092a2.786,2.786,0,0,0,.893-.159A9.9,9.9,0,1,0,68.24,55.7a27.557,27.557,0,0,0,1.826-2.331A12.736,12.736,0,1,1,58.025,75.683v-.675A2.833,2.833,0,0,0,55.194,72.177Zm5.661-13.8a25.192,25.192,0,0,1-2.4,1.386l-.43.215V41.042h2.83Zm-2.83,4.765,1.7-.848a27.913,27.913,0,0,0,6.163-4.2,7.061,7.061,0,1,1-7.859,7ZM11.285,35.174l-.064.064-4-4,.062-.062a4.182,4.182,0,0,0-2.947-7.113H4.246V18.4h.089a4.182,4.182,0,0,0,2.947-7.113l-.062-.064,4-4,.064.062A4.182,4.182,0,0,0,18.4,4.335V4.246h5.661v.089a4.183,4.183,0,0,0,7.114,2.948l.064-.064,3.9,3.9a27.45,27.45,0,0,0-5.592,2.438A11.309,11.309,0,1,0,16.288,31.384a27.1,27.1,0,0,0-.507,2.9,4.129,4.129,0,0,0-4.5.893Zm8.207-11.739A2.811,2.811,0,0,1,21.229,18.4a2.8,2.8,0,0,1,1.616.534A27.734,27.734,0,0,0,19.492,23.435Zm5.392-6.517a5.65,5.65,0,1,0-6.732,9.043,27.65,27.65,0,0,0-1.076,2.665A8.481,8.481,0,1,1,27.11,15.13a27.891,27.891,0,0,0-2.226,1.787ZM32.12,59.765a25.32,25.32,0,0,1-2.4-1.386V52.364h2.83v7.617ZM26.889,49.533v6.721A24.823,24.823,0,0,1,43.223,12.737h4.13A24.823,24.823,0,0,1,63.686,56.254V38.211H55.194v28.3H49.533V52.364H41.042V66.516H35.381V49.533ZM46.7,66.516h-2.83V55.194H46.7Zm1.415,5.614a6.8,6.8,0,0,0-2.17-2.784h4.193a15.534,15.534,0,0,0,1.118,2.83H48.132c-.006-.016-.008-.031-.014-.047Zm-2.83,14.2a9.918,9.918,0,0,1-9.907-9.907V75.008H55.194v1.415A9.918,9.918,0,0,1,45.288,86.329ZM86.329,68.219a6.876,6.876,0,0,0-4.011,9.687l-4.413,4.411a6.876,6.876,0,0,0-9.686,4.011H61.983a6.728,6.728,0,0,0-5.129-4.608,12.639,12.639,0,0,0,.933-2.879A15.413,15.413,0,0,0,65.1,80.669a15.563,15.563,0,0,0,6.466-29.721,27.237,27.237,0,0,0,1.257-2.586,6.82,6.82,0,0,0,5.082-.477L82.317,52.3a6.876,6.876,0,0,0,4.012,9.687Z" fill="#3747ff"/></g></svg>