<svg xmlns="http://www.w3.org/2000/svg" width="29" height="28.999" viewBox="0 0 29 28.999"><g transform="translate(0 0)"><path d="M28.546,13.643a1.025,1.025,0,0,0-.091-.054L26.4,12.48,14.985,18.523a1.036,1.036,0,0,1-.969,0L2.6,12.48.545,13.589a1.025,1.025,0,0,0-.371,1.477L14.5,22.65l14.326-7.585A1.025,1.025,0,0,0,28.546,13.643Z" fill="#fff"/><path d="M28.875,20.222a1.036,1.036,0,0,0-.419-.419L26.4,18.695,14.985,24.737a1.036,1.036,0,0,1-.969,0L2.6,18.695.545,19.8a1.036,1.036,0,0,0,0,1.823l13.464,7.25a1.036,1.036,0,0,0,.982,0l13.464-7.25A1.036,1.036,0,0,0,28.875,20.222Z" fill="#fff"/><path d="M28.546,7.428a1.025,1.025,0,0,0-.091-.054L14.991.124a1.036,1.036,0,0,0-.982,0L.545,7.374A1.025,1.025,0,0,0,.174,8.851L14.5,16.436,28.826,8.851A1.025,1.025,0,0,0,28.546,7.428Z" fill="#fff"/></g></svg>