<svg xmlns="http://www.w3.org/2000/svg" width="83.925" height="90" viewBox="0 0 83.925 90"><g transform="translate(-3.305 -0.267)"><path d="M77.733,70.409a.573.573,0,0,0-.734.342c-.208.571-.443,1.151-.7,1.726a.572.572,0,0,0,1.046.466c.267-.6.512-1.2.729-1.8A.573.573,0,0,0,77.733,70.409Z" fill="#3747ff"/><path d="M75.577,75.276a.573.573,0,0,0-.78.218,33.917,33.917,0,0,1-5.345,7.12.572.572,0,1,0,.818.8,35.075,35.075,0,0,0,5.526-7.36A.573.573,0,0,0,75.577,75.276Z" fill="#3747ff"/><path d="M11.248,10.882l1.51-.612a.572.572,0,0,0-.43-1.061l-1.51.612a.572.572,0,1,0,.43,1.061Z" fill="#3747ff"/><path d="M15.6,9.115l8.184-3.333a.572.572,0,0,0-.432-1.06L15.166,8.054a.572.572,0,1,0,.432,1.06Z" fill="#3747ff"/><path d="M86.011,19.981a1.956,1.956,0,0,0,0-3.623L47.566.717a6.087,6.087,0,0,0-4.594,0L4.522,16.358a1.956,1.956,0,0,0,0,3.623l13.383,5.441V41.814a4.586,4.586,0,0,0,.252,1.484,31.318,31.318,0,1,0,54.224-.009,4.527,4.527,0,0,0,.247-1.475V25.422l8.643-3.513v9.737a2.866,2.866,0,0,0-1.653,4.621L77.2,43.884a1.4,1.4,0,0,0,1.337,1.823h6.623a1.4,1.4,0,0,0,1.337-1.823l-2.418-7.617a2.871,2.871,0,0,0-1.658-4.621v-10.2ZM18.794,44.5a5.079,5.079,0,0,0,2.739,1.887q3.964,1.147,7.951,1.905a55.571,55.571,0,0,0-1,10.076H15.1a29.971,29.971,0,0,1,3.7-13.868ZM15.1,59.516H28.485a51.019,51.019,0,0,0,3.179,17.753,57.044,57.044,0,0,0-7.85,2.876A30.09,30.09,0,0,1,15.1,59.516Zm9.6,21.49a55.2,55.2,0,0,1,7.4-2.666c2,4.722,4.717,8.345,7.841,10.3A30.156,30.156,0,0,1,24.7,81.006Zm19.992,8.088c-4.64-.325-8.771-4.557-11.528-11.047A48.571,48.571,0,0,1,44.694,76.5Zm0-13.745a49.461,49.461,0,0,0-11.963,1.63,50.388,50.388,0,0,1-3.1-17.464H44.694Zm0-16.978H29.63A54.97,54.97,0,0,1,30.6,48.5a84.7,84.7,0,0,0,14.1,1.3ZM21.849,45.29a3.688,3.688,0,0,1-2.8-3.476V25.889l23.922,9.733a6.066,6.066,0,0,0,4.594,0l23.917-9.733V41.814a3.688,3.688,0,0,1-2.8,3.476,83.219,83.219,0,0,1-46.836,0ZM45.839,58.371V49.8a84.665,84.665,0,0,0,14.1-1.3,55.384,55.384,0,0,1,.971,9.87ZM60.9,59.516A50.281,50.281,0,0,1,57.8,76.98a49.432,49.432,0,0,0-11.963-1.63V59.516ZM45.839,76.5a48.569,48.569,0,0,1,11.528,1.548c-2.757,6.49-6.889,10.722-11.528,11.047Zm4.754,12.142c3.124-1.956,5.84-5.579,7.846-10.3a55.139,55.139,0,0,1,7.392,2.666A30.1,30.1,0,0,1,50.593,88.641Zm16.127-8.5a57.2,57.2,0,0,0-7.846-2.876,51.124,51.124,0,0,0,3.174-17.753H75.431A30.07,30.07,0,0,1,66.72,80.145Zm8.716-21.774H62.053a55.978,55.978,0,0,0-1-10.076q3.985-.763,7.956-1.905A5.085,5.085,0,0,0,71.744,44.5,29.985,29.985,0,0,1,75.436,58.371Z" fill="#3747ff"/></g></svg>