<svg xmlns="http://www.w3.org/2000/svg" width="85.86" height="92" viewBox="0 0 85.86 92"><g transform="translate(-3.568 -0.498)"><path d="M88.572,72.941a.588.588,0,0,0-.588.588,6.649,6.649,0,0,1-2.537,5.6.588.588,0,1,0,.726.925A8.06,8.06,0,0,0,89.16,73.53a.588.588,0,0,0-.588-.588Z" fill="#3747ff"/><path d="M82.858,80.363a7.078,7.078,0,0,1-1.654.167.588.588,0,0,0,0,1.176,7.448,7.448,0,0,0,1.945-.2.561.561,0,0,0,.446-.711.568.568,0,0,0-.738-.429Z" fill="#3747ff"/><path d="M81.387,63.223H11.607A4.012,4.012,0,0,0,7.6,67.232v6.7a4.012,4.012,0,0,0,4.008,4.008H38.48a1.749,1.749,0,0,0,.1,1.289,1.635,1.635,0,0,0,.946.7V91.343a1.155,1.155,0,0,0,2,.786L45.942,87.4a.774.774,0,0,1,1.11,0l4.413,4.733a1.155,1.155,0,0,0,2-.786V79.93a1.659,1.659,0,0,0,.95-.7,1.748,1.748,0,0,0,.1-1.289H81.387A4.012,4.012,0,0,0,85.4,73.936v-6.7A4.011,4.011,0,0,0,81.387,63.223ZM38.711,76.768h-27.1a2.835,2.835,0,0,1-2.832-2.832v-6.7A2.835,2.835,0,0,1,11.607,64.4H39.53v5a1.647,1.647,0,0,0-.946.692,2.17,2.17,0,0,0,0,1.689,2.206,2.206,0,0,1,.127.8,2.244,2.244,0,0,1-.489.593,1.73,1.73,0,0,0,0,2.992,2.314,2.314,0,0,1,.489.588Zm15.234-1.44a2.629,2.629,0,0,0-.8,1.12,2.783,2.783,0,0,0,.127,1.4,1.862,1.862,0,0,1,.118.8c-.07.122-.5.235-.762.306A2.013,2.013,0,0,0,50.783,80.8c-.071.259-.183.692-.306.762a1.922,1.922,0,0,1-.79-.118,2.8,2.8,0,0,0-1.407-.127,2.626,2.626,0,0,0-1.12.8c-.207.2-.513.513-.663.513s-.456-.311-.663-.513a2.588,2.588,0,0,0-1.12-.8,1.47,1.47,0,0,0-.4-.052,3.929,3.929,0,0,0-1,.179,1.956,1.956,0,0,1-.8.118c-.122-.071-.235-.5-.306-.762a2.652,2.652,0,0,0-.583-1.265,2.7,2.7,0,0,0-1.266-.583c-.259-.07-.692-.188-.762-.306a1.939,1.939,0,0,1,.118-.8,2.729,2.729,0,0,0,.127-1.4,2.625,2.625,0,0,0-.8-1.12c-.2-.207-.513-.513-.513-.663s.31-.461.513-.664a2.629,2.629,0,0,0,.8-1.12,2.749,2.749,0,0,0-.127-1.407,1.939,1.939,0,0,1-.118-.8c.07-.118.5-.23.762-.3a2.013,2.013,0,0,0,1.849-1.849c.071-.259.183-.7.306-.762a1.873,1.873,0,0,1,.8.118,2.779,2.779,0,0,0,1.4.127,2.668,2.668,0,0,0,1.12-.8c.207-.207.513-.517.663-.517s.456.311.663.517a2.668,2.668,0,0,0,1.12.8,2.806,2.806,0,0,0,1.407-.127,1.868,1.868,0,0,1,.8-.118c.118.066.23.5.3.762a2.013,2.013,0,0,0,1.849,1.849c.259.07.692.183.762.3a1.862,1.862,0,0,1-.118.8,2.8,2.8,0,0,0-.127,1.407,2.665,2.665,0,0,0,.8,1.12c.207.207.517.513.517.664S54.152,75.121,53.945,75.328Zm30.275-1.393a2.835,2.835,0,0,1-2.832,2.832h-27.1v-.019a2.182,2.182,0,0,1,.485-.588,1.726,1.726,0,0,0,0-2.992,2.121,2.121,0,0,1-.485-.593,2.113,2.113,0,0,1,.127-.8,2.212,2.212,0,0,0,0-1.689,1.674,1.674,0,0,0-.95-.692v-5H81.387a2.835,2.835,0,0,1,2.832,2.832Z" fill="#3747ff"/><path d="M51.047,74.665a4.549,4.549,0,1,1-4.549-4.55A4.552,4.552,0,0,1,51.047,74.665Z" fill="#3747ff"/><path d="M88.181,20.665a2,2,0,0,0,0-3.7L48.845.957a6.237,6.237,0,0,0-4.7,0L4.814,16.962a2,2,0,0,0,0,3.7l13.7,5.57V43a4.929,4.929,0,0,0,3.707,4.681,86.217,86.217,0,0,0,48.562,0A4.934,4.934,0,0,0,74.49,43V26.235l8.835-3.594V32.6a2.938,2.938,0,0,0-1.694,4.733L79.157,45.12a1.434,1.434,0,0,0,1.369,1.868H87.3A1.432,1.432,0,0,0,88.67,45.12L86.2,37.329a2.909,2.909,0,0,0,.659-1.849A2.947,2.947,0,0,0,84.5,32.6V22.161ZM73.314,43a3.772,3.772,0,0,1-2.861,3.552,85.087,85.087,0,0,1-47.913,0A3.768,3.768,0,0,1,19.685,43V26.715L44.15,36.67a6.191,6.191,0,0,0,4.7,0l24.469-9.955Z" fill="#3747ff"/><path d="M13.209,10.754l5.028-2.046a.588.588,0,0,0-.443-1.09l-5.03,2.047a.588.588,0,1,0,.445,1.089Z" fill="#3747ff"/><path d="M21,7.583l1.445-.588A.588.588,0,1,0,22,5.905l-1.445.588A.588.588,0,1,0,21,7.583Z" fill="#3747ff"/></g></svg>