<svg xmlns="http://www.w3.org/2000/svg" width="89.047" height="88" viewBox="0 0 89.047 88"><g transform="translate(-0.392 -0.916)"><path d="M.961,9.637a.568.568,0,0,0-.568.568v1.75a.568.568,0,1,0,1.136,0V10.2a.568.568,0,0,0-.568-.568Z" fill="#3747ff"/><path d="M9.009,2.052a.568.568,0,1,0,0-1.136H8.827a8.484,8.484,0,0,0-8.075,6,.568.568,0,1,0,1.088.327A7.341,7.341,0,0,1,8.827,2.052Z" fill="#3747ff"/><path d="M57.027,79.055v5.885a.568.568,0,0,1-1.136,0V79.055a.568.568,0,0,1,1.136,0Z" fill="#3747ff"/><path d="M84.64,4.551H8.827a4.8,4.8,0,0,0-4.8,4.8V56.869a4.8,4.8,0,0,0,4.8,4.8h23.85c.418.291.9.65.959.882.064.282-.309.941-.582,1.422-.477.841-.968,1.709-.6,2.463.373.773,1.368.927,2.331,1.082a3.31,3.31,0,0,1,1.45.414,3.361,3.361,0,0,1,.086,1.518c-.064.968-.132,1.972.532,2.5s1.622.241,2.549-.036c.2-.064.445-.132.673-.186V87.74a1.174,1.174,0,0,0,2.041.791l4.145-4.567a.658.658,0,0,1,.95,0l4.145,4.567a1.173,1.173,0,0,0,2.041-.791V71.725c.232.055.468.127.677.186.927.277,1.886.568,2.545.036s.6-1.532.532-2.5a3.259,3.259,0,0,1,.091-1.513,3.2,3.2,0,0,1,1.45-.418c.959-.155,1.959-.309,2.327-1.077s-.127-1.627-.6-2.468c-.273-.482-.65-1.141-.582-1.422.05-.232.541-.591.959-.882H84.64a4.806,4.806,0,0,0,4.8-4.8V9.351a4.806,4.806,0,0,0-4.8-4.8ZM60.29,60.632c-.7.482-1.413.977-1.568,1.663a3.436,3.436,0,0,0,.7,2.241c.255.441.677,1.186.568,1.409s-.973.368-1.482.45a3.373,3.373,0,0,0-2.163.832,3.387,3.387,0,0,0-.332,2.3c.032.514.091,1.377-.109,1.536s-1.018-.091-1.513-.236a3.415,3.415,0,0,0-2.322-.186,3.365,3.365,0,0,0-1.286,1.913c-.2.482-.518,1.3-.777,1.354-.236.05-.859-.523-1.232-.864a3.445,3.445,0,0,0-2.041-1.191,3.432,3.432,0,0,0-2.041,1.191c-.377.341-1,.918-1.236.864-.259-.059-.582-.873-.777-1.354A3.36,3.36,0,0,0,41.4,70.639a3.442,3.442,0,0,0-2.327.186c-.491.145-1.318.391-1.513.236s-.141-1.023-.1-1.536a3.426,3.426,0,0,0-.336-2.3,3.383,3.383,0,0,0-2.159-.827c-.514-.082-1.372-.218-1.486-.45s.318-.968.568-1.413a3.423,3.423,0,0,0,.7-2.236c-.159-.686-.877-1.186-1.568-1.663-.464-.318-1.154-.8-1.154-1.073s.7-.754,1.154-1.073c.691-.482,1.409-.977,1.568-1.668a3.429,3.429,0,0,0-.7-2.236c-.25-.445-.673-1.191-.568-1.409.114-.236.973-.368,1.486-.45a3.384,3.384,0,0,0,2.159-.832,3.413,3.413,0,0,0,.336-2.3c-.036-.518-.1-1.377.1-1.536s1.023.086,1.513.236a3.427,3.427,0,0,0,2.327.186,3.375,3.375,0,0,0,1.282-1.913c.2-.486.518-1.3.777-1.354.236-.05.859.518,1.236.864a3.456,3.456,0,0,0,2.041,1.191,3.469,3.469,0,0,0,2.041-1.191c.373-.345,1-.918,1.232-.864.259.059.586.868.777,1.354a3.4,3.4,0,0,0,1.286,1.913,3.43,3.43,0,0,0,2.327-.186c.491-.15,1.313-.4,1.509-.236s.145,1.023.109,1.536a3.387,3.387,0,0,0,.332,2.3,3.373,3.373,0,0,0,2.163.832c.514.082,1.368.218,1.482.45s-.314.964-.568,1.409a3.432,3.432,0,0,0-.7,2.236c.155.691.873,1.186,1.568,1.668.459.318,1.154.8,1.154,1.073s-.7.755-1.154,1.073Zm-27.236-5.49c.1.173.2.364.3.554H17.067a1.272,1.272,0,0,1-1.218-1.013A6.526,6.526,0,0,0,11.013,49.9,1.286,1.286,0,0,1,10,48.679V17.649A1.263,1.263,0,0,1,11,16.435a6.723,6.723,0,0,0,4.845-4.9,1.282,1.282,0,0,1,1.223-1.013H76.4a1.277,1.277,0,0,1,1.218,1.013,6.737,6.737,0,0,0,4.849,4.9,1.263,1.263,0,0,1,1,1.213v31.03A1.287,1.287,0,0,1,82.454,49.9a6.513,6.513,0,0,0-4.835,4.781A1.273,1.273,0,0,1,76.4,55.7H60.108c.1-.191.209-.382.3-.554.477-.836.968-1.7.6-2.463s-1.363-.927-2.327-1.077a3.283,3.283,0,0,1-1.45-.418,3.258,3.258,0,0,1-.091-1.513c.068-.973.136-1.972-.532-2.5S55,46.925,54.069,47.2a3.235,3.235,0,0,1-1.509.25c-.241-.118-.518-.8-.723-1.309-.364-.909-.741-1.85-1.577-2.041-.813-.186-1.545.486-2.254,1.132-.414.377-.977.9-1.273.9s-.863-.518-1.277-.9c-.7-.645-1.436-1.318-2.249-1.132-.841.191-1.218,1.132-1.582,2.041-.2.5-.477,1.191-.723,1.309a3.289,3.289,0,0,1-1.5-.25c-.927-.277-1.886-.564-2.549-.036s-.6,1.532-.532,2.5a3.285,3.285,0,0,1-.086,1.518,3.281,3.281,0,0,1-1.45.418c-.963.15-1.959.309-2.331,1.077S32.577,54.305,33.054,55.142ZM88.3,56.869a3.67,3.67,0,0,1-3.663,3.663H62.185a1.518,1.518,0,0,0,.4-.973c0-.868-.836-1.45-1.645-2.009a6.83,6.83,0,0,1-.927-.718H76.4a2.417,2.417,0,0,0,2.322-1.877,5.4,5.4,0,0,1,4-3.949A2.413,2.413,0,0,0,84.6,48.679V17.649a2.413,2.413,0,0,0-1.868-2.318,5.572,5.572,0,0,1-4.018-4.063A2.409,2.409,0,0,0,76.4,9.387H17.071a2.41,2.41,0,0,0-2.322,1.877,5.585,5.585,0,0,1-4.018,4.067,2.412,2.412,0,0,0-1.872,2.318v31.03a2.418,2.418,0,0,0,1.886,2.327,5.384,5.384,0,0,1,4,3.949,2.418,2.418,0,0,0,2.322,1.877H33.454a6.557,6.557,0,0,1-.927.718c-.8.559-1.641,1.141-1.641,2.009a1.513,1.513,0,0,0,.391.973H8.827a3.667,3.667,0,0,1-3.663-3.663V9.351A3.664,3.664,0,0,1,8.827,5.688H84.64A3.667,3.667,0,0,1,88.3,9.351Z" fill="#3747ff"/><path d="M68.175,17.008v4.735A1.779,1.779,0,0,1,66.4,23.52H27.069a1.777,1.777,0,0,1-1.777-1.777V17.008a1.777,1.777,0,0,1,1.777-1.777H66.4A1.78,1.78,0,0,1,68.175,17.008Z" fill="#3747ff"/><path d="M18.406,29.843H75.059a.568.568,0,0,0,0-1.136H18.406a.568.568,0,0,0,0,1.136Z" fill="#3747ff"/><path d="M18.406,36.085H75.059a.568.568,0,0,0,0-1.136H18.406a.568.568,0,0,0,0,1.136Z" fill="#3747ff"/><path d="M75.627,41.76a.568.568,0,0,0-.568-.568H18.406a.568.568,0,0,0,0,1.136H75.059A.568.568,0,0,0,75.627,41.76Z" fill="#3747ff"/><path d="M26.636,47.434h-8.23a.568.568,0,0,0,0,1.136h8.23a.568.568,0,1,0,0-1.136Z" fill="#3747ff"/><path d="M56.459,73.738a.568.568,0,0,0-.568.568v1.645a.568.568,0,0,0,1.136,0V74.306A.568.568,0,0,0,56.459,73.738Z" fill="#3747ff"/><path d="M55.759,59.559a9.028,9.028,0,1,1-9.026-9.03A9.036,9.036,0,0,1,55.759,59.559Z" fill="#3747ff"/></g></svg>