<svg xmlns="http://www.w3.org/2000/svg" width="80" height="89.362" viewBox="0 0 80 89.362"><g transform="translate(-4.946 -0.265)"><path d="M84.927,73.2a24.783,24.783,0,0,0-3.937-8.265.568.568,0,0,0-.919.669,23.665,23.665,0,0,1,3.758,7.887.568.568,0,1,0,1.1-.291Z" fill="#3747ff"/><path d="M78.23,63.368a.568.568,0,1,0,.843-.762c-.334-.37-.7-.742-1.124-1.138a.568.568,0,1,0-.778.829c.4.375.745.725,1.059,1.072Z" fill="#3747ff"/><path d="M71.771,61.286a104.618,104.618,0,0,0-16.385-7.9v-4.57A19.265,19.265,0,0,0,61.717,34.8,4.689,4.689,0,0,0,63.6,25.787V9.952l8.277-1.86v7.749A3.217,3.217,0,0,0,69.229,19a3.178,3.178,0,0,0,.978,2.3l-1.31,5.18a1.56,1.56,0,0,0,1.51,1.946h4.07a1.558,1.558,0,0,0,1.51-1.942l-1.305-5.189a3.2,3.2,0,0,0-1.669-5.453V7.378a.611.611,0,0,0-.446-.555L44.035.412a5.921,5.921,0,0,0-2.619,0L14.667,6.423a.965.965,0,0,0,0,1.915l8.572,1.924V25.769A4.691,4.691,0,0,0,25.072,34.8a18.491,18.491,0,0,0,6.339,14.1v4.484a104.371,104.371,0,0,0-16.385,7.9A21.526,21.526,0,0,0,4.953,76.138c-.014.091,0-.632,0,12.92a.569.569,0,0,0,.568.568H81.28a.569.569,0,0,0,.568-.568c0-13.616.009-12.829,0-12.92A21.527,21.527,0,0,0,71.771,61.286ZM63.6,27.615V27.06a3.551,3.551,0,0,1-1.874,6.6V29.866A2.3,2.3,0,0,0,63.6,27.615ZM25.072,33.659a3.549,3.549,0,0,1-1.833-6.617v.573a2.3,2.3,0,0,0,1.833,2.246v3.8Zm-.7-12.942v-10.2l17.04,3.829a5.987,5.987,0,0,0,2.619,0l18.427-4.143v10.51a2.557,2.557,0,0,1-1.942,2.4,60.788,60.788,0,0,1-34.207,0A2.553,2.553,0,0,1,24.376,20.717Zm1.833,14.188V29.8a2.29,2.29,0,0,0,1.619-2.183V24.7a61.582,61.582,0,0,0,31.178,0v2.91a2.29,2.29,0,0,0,1.583,2.169V34.4c0,9.582-7.185,17.422-16.358,17.845a17.244,17.244,0,0,1-18.022-17.34ZM43.4,60.454,32.548,53.468V49.812a18.028,18.028,0,0,0,11.737,3.565,17.728,17.728,0,0,0,9.964-3.629v3.72Zm10.5-5.4L51.216,65.11a.871.871,0,0,1-1.392.459l-5.453-4.388Zm-11.469,6.13L36.977,65.57a.877.877,0,0,1-1.4-.459L32.9,55.051Zm-2.437,7.876-.527,4.825A22.24,22.24,0,0,1,22.78,58.366c4.1-2.006,7.531-3.352,8.809-3.838L34.481,65.4a2.013,2.013,0,0,0,3.206,1.055l.746-.6,1.351,2.269A1.515,1.515,0,0,1,39.988,69.058Zm4.129,5.321a22.138,22.138,0,0,1-3.534-.287l.532-4.911a2.624,2.624,0,0,0-.355-1.637l-1.432-2.406,4.07-3.279,4.075,3.279-1.437,2.4a2.644,2.644,0,0,0-.355,1.642l.55,5.093c-.7.064-1.405.1-2.115.1Zm3.242-.246-.546-5.075a1.479,1.479,0,0,1,.2-.932l1.355-2.269.741.6A2.016,2.016,0,0,0,52.317,65.4l2.892-10.869a106.946,106.946,0,0,1,10.064,4.457A22.4,22.4,0,0,1,47.36,74.133Z" fill="#3747ff"/><path d="M11.734,10.053a.569.569,0,0,0,.159-.788,3.35,3.35,0,0,1-.56-1.707.568.568,0,1,0-1.136.049,4.488,4.488,0,0,0,.749,2.286.568.568,0,0,0,.788.159Z" fill="#3747ff"/><path d="M12.153,5.154a3.59,3.59,0,0,1,1.966-1.173L17.18,3.29a.568.568,0,1,0-.251-1.109l-3.061.691a4.722,4.722,0,0,0-2.582,1.546.569.569,0,0,0,.867.736Z" fill="#3747ff"/></g></svg>