<svg xmlns="http://www.w3.org/2000/svg" width="67.617" height="78" viewBox="0 0 67.617 78">
  <g id="training-icon-1-5" transform="translate(-928.192 -2945)">
    <g id="gps" transform="translate(920.039 2941.804)">
      <g id="Layer_3" data-name="Layer 3">
        <path id="Path_48" data-name="Path 48" d="M70.8,32.408H60.286c2.667-5.577,4.906-11.172,4.906-14.233a13.721,13.721,0,0,0-27.443,0c0,3.061,2.239,8.655,4.906,14.233H13.126A3.723,3.723,0,0,0,9.41,36.123V76.23a3.721,3.721,0,0,0,3.715,3.707H39.252V67.105H23.928V43.73l24.616.017h.008c.528.948,1.006,1.795,1.409,2.516l-10.71,8.245v4.026l23.366.034v21.37H70.8a3.726,3.726,0,0,0,3.715-3.707V36.123A3.728,3.728,0,0,0,70.8,32.408ZM45.609,18.175a5.858,5.858,0,1,1,5.861,5.863,5.858,5.858,0,0,1-5.861-5.863Z" fill="#83d0f5"/>
      </g>
      <g id="Layer_4" data-name="Layer 4">
        <path id="Path_49" data-name="Path 49" d="M70.8,31.15H62.265c2.811-6.1,4.186-10.361,4.186-12.975a14.979,14.979,0,0,0-29.959,0c0,2.615,1.375,6.877,4.186,12.975H13.126a4.979,4.979,0,0,0-4.974,4.974V76.23A4.975,4.975,0,0,0,13.126,81.2H70.8a4.975,4.975,0,0,0,4.974-4.965V36.123A4.979,4.979,0,0,0,70.8,31.15ZM39.008,18.175a12.463,12.463,0,0,1,24.926,0c0,5.948-9.483,22.992-12.465,28.186C48.527,41.253,39.008,24.092,39.008,18.175ZM25.186,33.666H41.872c1.3,2.693,2.832,5.65,4.559,8.822l-21.245-.014ZM22.67,78.679H13.126a2.456,2.456,0,0,1-2.457-2.449V44.981l12,.008Zm0-36.207-12-.008V36.123a2.46,2.46,0,0,1,2.457-2.457H22.67ZM37.994,78.679H25.186V68.363H37.994Zm0-24.172V65.847H25.186V44.99l22.628.015.518.923c-10.54,8.115-10.34,7.714-10.34,8.58ZM61.36,78.679H40.51V59.793l20.85.03ZM73.253,76.23A2.457,2.457,0,0,1,70.8,78.679H63.876V48.788h9.377Zm0-29.959H62.618A1.258,1.258,0,0,0,61.36,47.53v9.778l-20.85-.03v-2.15l9.082-6.991c.6,1.036.95,2.02,1.88,1.984a1.258,1.258,0,0,0,1.082-.616c.048-.084,4.673-7.888,8.524-15.84H70.8a2.461,2.461,0,0,1,2.457,2.457Z" fill="#016bbe"/>
        <path id="Path_50" data-name="Path 50" d="M51.472,25.3a7.116,7.116,0,1,0-7.121-7.119A7.116,7.116,0,0,0,51.472,25.3Zm0-11.717a4.6,4.6,0,1,1-4.6,4.6,4.6,4.6,0,0,1,4.6-4.6Z" fill="#016bbe"/>
      </g>
    </g>
  </g>
</svg>
