<svg width="75" height="75" viewBox="0 0 75 75" fill="none" xmlns="http://www.w3.org/2000/svg">
<g clip-path="url(#clip0_417_20)">
<path d="M70.7662 26.6125H53.2258V19.3548H49.597L73.7902 12.0971L37.4999 1.20959L1.20947 12.0971L25.4027 19.3548H21.771V26.6125H4.23351C3.83635 26.6124 3.44306 26.6905 3.07611 26.8424C2.70916 26.9943 2.37574 27.2171 2.09491 27.4979C1.81408 27.7787 1.59133 28.1122 1.43941 28.4791C1.28748 28.8461 1.20935 29.2394 1.20947 29.6365V33.8673H73.7902V29.6365C73.7904 29.2394 73.7122 28.8461 73.5603 28.4791C73.4084 28.1122 73.1856 27.7787 72.9048 27.4979C72.624 27.2171 72.2906 26.9943 71.9236 26.8424C71.5567 26.6905 71.1634 26.6124 70.7662 26.6125Z" fill="#57A4FF"/>
<path d="M70.7664 25.4029H67.7424V15.1741L74.1385 13.251C74.3873 13.176 74.6054 13.0229 74.7604 12.8143C74.9154 12.6057 74.9991 12.3527 74.9991 12.0928C74.9991 11.8329 74.9154 11.58 74.7604 11.3714C74.6054 11.1628 74.3873 11.0096 74.1385 10.9346L37.8481 0.0519529C37.6214 -0.0160156 37.3797 -0.0160156 37.1529 0.0519529L0.861587 10.9385C0.612754 11.0135 0.394687 11.1666 0.239682 11.3752C0.0846772 11.5838 0.000976563 11.8368 0.000976562 12.0967C0.000976562 12.3565 0.0846772 12.6095 0.239682 12.8181C0.394687 13.0267 0.612754 13.1799 0.861587 13.2548L20.5799 19.175C20.5701 19.2361 20.565 19.2978 20.5645 19.3596V25.4077H4.2337C3.11226 25.4098 2.03733 25.8561 1.24434 26.6491C0.45136 27.4421 0.00496654 28.517 0.00293309 29.6385V70.7664C0.00496654 71.8878 0.45136 72.9627 1.24434 73.7557C2.03733 74.5487 3.11226 74.9951 4.2337 74.9971H70.7664C71.8878 74.9951 72.9628 74.5487 73.7558 73.7557C74.5487 72.9627 74.9951 71.8878 74.9972 70.7664V29.6375C74.9951 28.5161 74.5487 27.4412 73.7558 26.6482C72.9628 25.8552 71.8878 25.4088 70.7664 25.4068V25.4029ZM5.41928 12.0971L37.5 2.47215L69.5808 12.0971L37.5 21.7212L5.41928 12.0971ZM54.4202 19.175L65.3222 15.9058V25.4096H54.4356V19.3616C54.4351 19.2997 54.43 19.238 54.4202 19.177V19.175ZM66.5356 42.3481C66.7749 42.3481 67.0087 42.4191 67.2077 42.552C67.4066 42.6849 67.5616 42.8738 67.6532 43.0948C67.7447 43.3159 67.7687 43.5591 67.722 43.7937C67.6753 44.0283 67.5601 44.2439 67.391 44.413C67.2218 44.5822 67.0063 44.6974 66.7716 44.7441C66.537 44.7908 66.2938 44.7668 66.0727 44.6753C65.8517 44.5837 65.6628 44.4287 65.5299 44.2297C65.397 44.0308 65.326 43.797 65.326 43.5577C65.3247 43.3983 65.355 43.2402 65.415 43.0925C65.4751 42.9449 65.5637 42.8105 65.6759 42.6972C65.788 42.5839 65.9214 42.4939 66.0685 42.4323C66.2156 42.3707 66.3733 42.3389 66.5327 42.3385L66.5356 42.3481ZM52.0164 19.901V25.4125H22.9837V19.8914L37.1558 24.1423C37.3825 24.2108 37.6243 24.2108 37.851 24.1423L52.0164 19.901ZM2.41928 29.6375C2.41979 29.1565 2.61111 28.6953 2.95127 28.3551C3.29143 28.0149 3.75264 27.8236 4.2337 27.8231H65.3231V32.6616H2.41928V29.6375ZM72.5808 70.7664C72.5803 71.2474 72.389 71.7086 72.0488 72.0488C71.7087 72.389 71.2475 72.5803 70.7664 72.5808H4.2337C3.75264 72.5803 3.29143 72.389 2.95127 72.0488C2.61111 71.7086 2.41979 71.2474 2.41928 70.7664V35.0808H65.3231V40.1279C64.5161 40.4133 63.8358 40.9747 63.4027 41.7131C62.9696 42.4515 62.8114 43.3192 62.9562 44.1629C63.1009 45.0066 63.5393 45.7719 64.1938 46.3237C64.8482 46.8754 65.6767 47.1781 66.5327 47.1781C67.3888 47.1781 68.2172 46.8754 68.8717 46.3237C69.5262 45.7719 69.9646 45.0066 70.1093 44.1629C70.2541 43.3192 70.0959 42.4515 69.6628 41.7131C69.2296 40.9747 68.5494 40.4133 67.7424 40.1279V35.0808H72.5808V70.7664ZM72.5808 32.6616H67.7424V27.8231H70.7664C71.2475 27.8236 71.7087 28.0149 72.0488 28.3551C72.389 28.6953 72.5803 29.1565 72.5808 29.6375V32.6616Z" fill="#004FAC"/>
<path d="M4.83852 31.4519H6.04814C6.36895 31.4519 6.67662 31.3245 6.90346 31.0977C7.13031 30.8708 7.25775 30.5631 7.25775 30.2423C7.25775 29.9215 7.13031 29.6138 6.90346 29.387C6.67662 29.1602 6.36895 29.0327 6.04814 29.0327H4.83852C4.51771 29.0327 4.21004 29.1602 3.98319 29.387C3.75635 29.6138 3.62891 29.9215 3.62891 30.2423C3.62891 30.5631 3.75635 30.8708 3.98319 31.0977C4.21004 31.3245 4.51771 31.4519 4.83852 31.4519Z" fill="#004FAC"/>
<path d="M9.67788 31.4519H10.8875C11.0463 31.4519 11.2036 31.4207 11.3504 31.3599C11.4971 31.2991 11.6305 31.21 11.7428 31.0977C11.8551 30.9853 11.9442 30.852 12.005 30.7052C12.0658 30.5585 12.0971 30.4012 12.0971 30.2423C12.0971 30.0835 12.0658 29.9262 12.005 29.7794C11.9442 29.6327 11.8551 29.4993 11.7428 29.387C11.6305 29.2747 11.4971 29.1856 11.3504 29.1248C11.2036 29.064 11.0463 29.0327 10.8875 29.0327H9.67788C9.35707 29.0327 9.0494 29.1602 8.82255 29.387C8.5957 29.6138 8.46826 29.9215 8.46826 30.2423C8.46826 30.5631 8.5957 30.8708 8.82255 31.0977C9.0494 31.3245 9.35707 31.4519 9.67788 31.4519Z" fill="#004FAC"/>
<path d="M14.5163 31.4519H15.7259C16.0467 31.4519 16.3544 31.3245 16.5812 31.0977C16.808 30.8708 16.9355 30.5631 16.9355 30.2423C16.9355 29.9215 16.808 29.6138 16.5812 29.387C16.3544 29.1602 16.0467 29.0327 15.7259 29.0327H14.5163C14.3574 29.0327 14.2001 29.064 14.0534 29.1248C13.9066 29.1856 13.7733 29.2747 13.6609 29.387C13.5486 29.4993 13.4595 29.6327 13.3987 29.7794C13.3379 29.9262 13.3066 30.0835 13.3066 30.2423C13.3066 30.4012 13.3379 30.5585 13.3987 30.7052C13.4595 30.852 13.5486 30.9853 13.6609 31.0977C13.7733 31.21 13.9066 31.2991 14.0534 31.3599C14.2001 31.4207 14.3574 31.4519 14.5163 31.4519Z" fill="#004FAC"/>
</g>
<defs>
<clipPath id="clip0_417_20">
<rect width="75" height="75" fill="white"/>
</clipPath>
</defs>
</svg>
