<svg width="95" height="75" viewBox="0 0 95 75" fill="none" xmlns="http://www.w3.org/2000/svg">
<g clip-path="url(#clip0_417_2)">
<path d="M53.5709 15.3065V47.4487H41.3262V61.2234H74.9984L87.243 73.4681V61.2234H93.3659V15.3065H53.5709Z" fill="#57A4FF"/>
<path d="M93.3656 13.7756H55.1006V1.53094C55.1006 1.12491 54.9393 0.735507 54.6522 0.448401C54.3651 0.161294 53.9757 0 53.5696 0H1.52996C1.12393 0 0.734531 0.161294 0.447425 0.448401C0.160318 0.735507 -0.000976562 1.12491 -0.000976562 1.53094V47.4487C-0.000976562 47.8548 0.160318 48.2442 0.447425 48.5313C0.734531 48.8184 1.12393 48.9797 1.52996 48.9797H6.12371V59.6925C6.1236 59.9954 6.21333 60.2915 6.38154 60.5433C6.54976 60.7952 6.7889 60.9915 7.06871 61.1074C7.34852 61.2233 7.65642 61.2537 7.95347 61.1945C8.25052 61.1354 8.52335 60.9895 8.73746 60.7753L20.5303 48.9787H39.795V61.2234C39.795 61.6295 39.9563 62.0189 40.2434 62.306C40.5305 62.5931 40.9199 62.7544 41.3259 62.7544H74.3653L86.16 74.5509C86.3741 74.7651 86.6469 74.911 86.9439 74.9702C87.241 75.0293 87.5489 74.999 87.8287 74.883C88.1085 74.7671 88.3477 74.5708 88.5159 74.319C88.6841 74.0671 88.7738 73.771 88.7737 73.4681V62.7544H93.3675C93.7735 62.7544 94.1629 62.5931 94.45 62.306C94.7371 62.0189 94.8984 61.6295 94.8984 61.2234V15.3066C94.8984 15.1054 94.8587 14.9061 94.7817 14.7203C94.7046 14.5344 94.5917 14.3655 94.4493 14.2234C94.307 14.0812 94.138 13.9684 93.952 13.8916C93.7661 13.8148 93.5668 13.7754 93.3656 13.7756ZM19.8975 45.9178C19.4914 45.9178 19.1019 46.0789 18.8146 46.3659L9.18277 55.9987V47.4487C9.18278 47.0435 9.02212 46.6548 8.73603 46.3679C8.44994 46.0809 8.06174 45.9191 7.65652 45.9178H3.06277V3.06187H52.0396V45.9178H19.8975ZM91.8346 59.6925H87.2409C86.8349 59.6925 86.4455 59.8538 86.1584 60.1409C85.8712 60.428 85.71 60.8174 85.71 61.2234V69.7734L76.0809 60.1406C75.7936 59.8536 75.4041 59.6924 74.9981 59.6925H42.8559V48.9787H53.5706C53.9766 48.9787 54.366 48.8175 54.6531 48.5303C54.9402 48.2432 55.1015 47.8538 55.1015 47.4478V16.8366H91.8346V59.6925Z" fill="#004FAC"/>
<path d="M63.7697 48.8897C64.152 49.0263 64.5729 49.0054 64.9398 48.8317C65.3067 48.658 65.5896 48.3457 65.7263 47.9635L68.0972 41.326H75.7791L78.15 47.9635C78.2162 48.1547 78.3197 48.3309 78.4544 48.4819C78.5892 48.6329 78.7525 48.7557 78.935 48.8432C79.1175 48.9307 79.3155 48.9811 79.5176 48.9916C79.7197 49.0021 79.9219 48.9723 80.1124 48.9042C80.3029 48.836 80.4781 48.7308 80.6277 48.5945C80.7773 48.4582 80.8984 48.2936 80.984 48.1102C81.0696 47.9269 81.118 47.7283 81.1264 47.5261C81.1348 47.3239 81.103 47.1221 81.0328 46.9322L73.3753 25.5057C73.269 25.2085 73.0734 24.9515 72.8154 24.7698C72.5574 24.5881 72.2495 24.4906 71.9339 24.4906C71.6184 24.4906 71.3105 24.5881 71.0525 24.7698C70.7944 24.9515 70.5989 25.2085 70.4925 25.5057L62.8425 46.9341C62.7749 47.1235 62.7453 47.3243 62.7553 47.5251C62.7653 47.7259 62.8148 47.9227 62.9009 48.1044C62.987 48.2861 63.108 48.4491 63.2571 48.584C63.4062 48.7189 63.5804 48.8221 63.7697 48.8897ZM71.9372 30.571L74.6878 38.265H69.1894L71.9372 30.571Z" fill="#004FAC"/>
<path d="M35.6222 30.3975C36.3535 29.0549 36.7358 27.5501 36.734 26.0213V19.8985C36.7691 18.6703 36.5576 17.4477 36.1118 16.3028C35.6661 15.1579 34.9952 14.114 34.139 13.2329C33.2827 12.3518 32.2584 11.6514 31.1267 11.1732C29.995 10.6949 28.7789 10.4485 27.5503 10.4485C26.3217 10.4485 25.1055 10.6949 23.9738 11.1732C22.8421 11.6514 21.8179 12.3518 20.9616 13.2329C20.1053 14.114 19.4345 15.1579 18.9888 16.3028C18.543 17.4477 18.3314 18.6703 18.3665 19.8985V26.0213C18.3654 27.7999 18.8811 29.5406 19.8508 31.0316C20.8205 32.5226 22.2026 33.6998 23.8289 34.42C25.4552 35.1402 27.2557 35.3724 29.0115 35.0884C30.7673 34.8043 32.4028 34.0163 33.719 32.82L35.6512 34.755C35.9401 35.0332 36.3266 35.1869 36.7276 35.1831C37.1286 35.1793 37.5121 35.0184 37.7957 34.7348C38.0793 34.4512 38.2402 34.0677 38.244 33.6667C38.2478 33.2657 38.0941 32.8792 37.8159 32.5903L35.6222 30.3975ZM27.5503 32.1431C25.927 32.1414 24.3706 31.4958 23.2227 30.3479C22.0749 29.2 21.4292 27.6437 21.4275 26.0203V19.8985C21.4175 19.0881 21.5684 18.2838 21.8716 17.5322C22.1748 16.7806 22.6241 16.0967 23.1936 15.5201C23.7631 14.9435 24.4415 14.4857 25.1892 14.1732C25.937 13.8608 26.7394 13.6999 27.5498 13.6999C28.3603 13.6999 29.1626 13.8608 29.9104 14.1732C30.6582 14.4857 31.3365 14.9435 31.906 15.5201C32.4755 16.0967 32.9249 16.7806 33.2281 17.5322C33.5312 18.2838 33.6822 19.0881 33.6722 19.8985V26.0213C33.6721 26.7244 33.5503 27.4222 33.3122 28.0838L31.694 26.4675C31.5529 26.321 31.384 26.204 31.1971 26.1235C31.0102 26.043 30.8092 26.0005 30.6057 25.9986C30.4023 25.9967 30.2004 26.0353 30.0121 26.1123C29.8237 26.1893 29.6526 26.303 29.5087 26.4469C29.3649 26.5908 29.2511 26.7619 29.1741 26.9503C29.0972 27.1386 29.0585 27.3404 29.0604 27.5439C29.0623 27.7474 29.1048 27.9484 29.1853 28.1353C29.2658 28.3221 29.3828 28.4911 29.5294 28.6322L31.5478 30.6506C30.4386 31.6133 29.019 32.1439 27.5503 32.1431Z" fill="#004FAC"/>
</g>
<defs>
<clipPath id="clip0_417_2">
<rect width="94.8966" height="75" fill="white"/>
</clipPath>
</defs>
</svg>
