<svg width="78" height="75" viewBox="0 0 78 75" fill="none" xmlns="http://www.w3.org/2000/svg">
<g clip-path="url(#clip0_417_8)">
<path d="M12.5 43.75C10.8426 43.7505 9.25316 44.4092 8.08117 45.5812C6.90918 46.7532 6.25053 48.3426 6.25 50V53.75L9.212 55.725C9.72561 56.0671 10.3289 56.2498 10.946 56.25H14.176C14.8138 56.25 15.4363 56.055 15.96 55.691L18.75 53.75V50.156C18.7458 48.4754 18.0894 46.8621 16.919 45.656C16.3487 45.0571 15.6633 44.5796 14.904 44.2521C14.1446 43.9246 13.327 43.7538 12.5 43.75Z" fill="#57A4FF"/>
<path d="M38.75 43.75C37.0926 43.7505 35.5032 44.4092 34.3312 45.5812C33.1592 46.7532 32.5005 48.3426 32.5 50V53.75L35.462 55.725C35.9756 56.0671 36.5789 56.2498 37.196 56.25H40.426C41.0638 56.25 41.6863 56.055 42.21 55.691L45 53.75V50.156C44.9958 48.4754 44.3394 46.8621 43.169 45.656C42.5987 45.0571 41.9133 44.5796 41.154 44.2521C40.3946 43.9246 39.577 43.7538 38.75 43.75Z" fill="#57A4FF"/>
<path d="M69.419 45.659C68.849 45.0596 68.1637 44.5815 67.4043 44.2535C66.645 43.9254 65.8272 43.7542 65 43.75C63.3426 43.7505 61.7532 44.4092 60.5812 45.5812C59.4092 46.7532 58.7505 48.3426 58.75 50V53.75L61.712 55.725C62.2256 56.0671 62.8289 56.2498 63.446 56.25H66.676C67.3138 56.25 67.9363 56.055 68.46 55.691L71.25 53.75V50.156C71.2459 48.4754 70.5895 46.862 69.419 45.656V45.659Z" fill="#57A4FF"/>
<path d="M61.25 4.375C61.2501 3.96475 61.1695 3.55849 61.0126 3.17942C60.8557 2.80035 60.6257 2.45589 60.3357 2.16571C60.0457 1.87552 59.7014 1.6453 59.3224 1.48818C58.9435 1.33107 58.5372 1.25013 58.127 1.25H19.375C18.9648 1.24987 18.5585 1.33054 18.1794 1.48742C17.8003 1.64429 17.4559 1.87429 17.1657 2.16429C16.8755 2.45429 16.6453 2.7986 16.4882 3.17757C16.3311 3.55654 16.2501 3.96275 16.25 4.373V26.25H61.25V4.375ZM36.25 18.75V8.75L43.75 13.75L36.25 18.75Z" fill="#57A4FF"/>
<path d="M32.5 31.25L31.25 37.5H46.25L45 31.25H32.5Z" fill="#57A4FF"/>
<path d="M17.5 62.5H16.25V61.5C17.3909 60.8413 18.3381 59.8938 18.9964 58.7527C19.6547 57.6117 20.0008 56.3173 20 55V50.156C20.0008 48.1509 19.2173 46.2251 17.817 44.79C17.1317 44.0685 16.3072 43.4935 15.3933 43.0999C14.4794 42.7063 13.4951 42.5022 12.5 42.5C10.5109 42.5 8.60322 43.2902 7.1967 44.6967C5.79018 46.1032 5 48.0109 5 50V55C4.99916 56.3173 5.3453 57.6117 6.00361 58.7527C6.66191 59.8938 7.60915 60.8413 8.75 61.5V62.5H7.5C5.51153 62.5021 3.6051 63.293 2.19904 64.699C0.792974 66.1051 0.00211765 68.0115 0 70V73.75C0 74.0815 0.131696 74.3995 0.366117 74.6339C0.600537 74.8683 0.918479 75 1.25 75H23.75C24.0815 75 24.3995 74.8683 24.6339 74.6339C24.8683 74.3995 25 74.0815 25 73.75V70C24.9979 68.0115 24.207 66.1051 22.801 64.699C21.3949 63.293 19.4885 62.5021 17.5 62.5ZM7.5 50C7.5 48.6739 8.02678 47.4021 8.96447 46.4645C9.90215 45.5268 11.1739 45 12.5 45C13.1596 45.0033 13.8116 45.1404 14.4167 45.4031C15.0217 45.6657 15.5672 46.0484 16.02 46.528C16.9616 47.5019 17.4917 48.8013 17.5 50.156V53.1L15.25 54.664C14.9364 54.8834 14.5627 55.0007 14.18 55H10.95C10.5793 55.0002 10.217 54.8902 9.909 54.684L7.503 53.084L7.5 50ZM11.25 63.728V60H11.013C10.883 59.8174 10.7061 59.6734 10.501 59.583C9.79544 59.2738 9.17056 58.8062 8.67477 58.2166C8.17898 57.627 7.8256 56.9312 7.642 56.183L8.52 56.769C9.23994 57.2475 10.0856 57.5019 10.95 57.5H14.18C15.0739 57.5015 15.9467 57.2282 16.68 56.717L17.341 56.256C17.1511 56.9891 16.7972 57.6695 16.3059 58.2459C15.8146 58.8222 15.1988 59.2794 14.505 59.583C14.2999 59.6734 14.1231 59.8175 13.993 60H13.75V63.728H11.25ZM13.13 66.253C13.5668 66.3049 14.0095 66.2678 14.4316 66.1441C14.8537 66.0204 15.2464 65.8125 15.586 65.533C15.7421 65.3762 15.8732 65.1964 15.975 65H17.5C18.8261 65 20.0979 65.5268 21.0355 66.4645C21.9732 67.4021 22.5 68.6739 22.5 70V72.5H20V71.25C20 70.9185 19.8683 70.6005 19.6339 70.3661C19.3995 70.1317 19.0815 70 18.75 70C18.4185 70 18.1005 70.1317 17.8661 70.3661C17.6317 70.6005 17.5 70.9185 17.5 71.25V72.5H7.5V71.25C7.5 70.9185 7.3683 70.6005 7.13388 70.3661C6.89946 70.1317 6.58152 70 6.25 70C5.91848 70 5.60054 70.1317 5.36612 70.3661C5.1317 70.6005 5 70.9185 5 71.25V72.5H2.5V70C2.5 68.6739 3.02678 67.4021 3.96447 66.4645C4.90215 65.5268 6.17392 65 7.5 65H9.025C9.12676 65.1964 9.25794 65.3762 9.414 65.533C9.8019 65.834 10.247 66.0529 10.7221 66.1765C11.1973 66.3001 11.6926 66.3258 12.178 66.252L13.13 66.253Z" fill="#004FAC"/>
<path d="M43.75 62.5H42.5V61.5C43.6409 60.8413 44.5881 59.8938 45.2464 58.7527C45.9047 57.6117 46.2508 56.3173 46.25 55V50.156C46.2508 48.1509 45.4673 46.2251 44.067 44.79C43.3817 44.0685 42.5572 43.4935 41.6433 43.0999C40.7294 42.7063 39.7451 42.5022 38.75 42.5C36.7609 42.5 34.8532 43.2902 33.4467 44.6967C32.0402 46.1032 31.25 48.0109 31.25 50V55C31.2492 56.3173 31.5953 57.6117 32.2536 58.7527C32.9119 59.8938 33.8591 60.8413 35 61.5V62.5H33.75C31.7615 62.5021 29.8551 63.293 28.449 64.699C27.043 66.1051 26.2521 68.0115 26.25 70V73.75C26.25 74.0815 26.3817 74.3995 26.6161 74.6339C26.8505 74.8683 27.1685 75 27.5 75H50C50.3315 75 50.6495 74.8683 50.8839 74.6339C51.1183 74.3995 51.25 74.0815 51.25 73.75V70C51.2479 68.0115 50.457 66.1051 49.051 64.699C47.6449 63.293 45.7385 62.5021 43.75 62.5ZM33.75 50C33.75 48.6739 34.2768 47.4021 35.2145 46.4645C36.1521 45.5268 37.4239 45 38.75 45C39.4096 45.0033 40.0616 45.1404 40.6667 45.4031C41.2717 45.6657 41.8172 46.0484 42.27 46.528C43.2116 47.5019 43.7417 48.8013 43.75 50.156V53.1L41.497 54.667C41.1834 54.8864 40.8097 55.0037 40.427 55.003H37.197C36.8263 55.0032 36.464 54.8932 36.156 54.687L33.75 53.081V50ZM37.5 63.728V60H37.263C37.1327 59.8173 36.9555 59.6732 36.75 59.583C36.0444 59.2738 35.4196 58.8062 34.9238 58.2166C34.428 57.627 34.0746 56.9312 33.891 56.183L34.769 56.769C35.4884 57.2471 36.3332 57.5015 37.197 57.5H40.427C41.3209 57.5015 42.1937 57.2282 42.927 56.717L43.588 56.256C43.3979 56.9893 43.0436 57.6699 42.552 58.2462C42.0604 58.8226 41.4442 59.2797 40.75 59.583C40.5446 59.6733 40.3673 59.8173 40.237 60H40V63.728H37.5ZM39.38 66.253C39.8168 66.3049 40.2595 66.2678 40.6816 66.1441C41.1037 66.0204 41.4964 65.8125 41.836 65.533C41.9921 65.3762 42.1232 65.1964 42.225 65H43.75C45.0761 65 46.3479 65.5268 47.2855 66.4645C48.2232 67.4021 48.75 68.6739 48.75 70V72.5H46.25V71.25C46.25 70.9185 46.1183 70.6005 45.8839 70.3661C45.6495 70.1317 45.3315 70 45 70C44.6685 70 44.3505 70.1317 44.1161 70.3661C43.8817 70.6005 43.75 70.9185 43.75 71.25V72.5H33.75V71.25C33.75 70.9185 33.6183 70.6005 33.3839 70.3661C33.1495 70.1317 32.8315 70 32.5 70C32.1685 70 31.8505 70.1317 31.6161 70.3661C31.3817 70.6005 31.25 70.9185 31.25 71.25V72.5H28.75V70C28.75 68.6739 29.2768 67.4021 30.2145 66.4645C31.1521 65.5268 32.4239 65 33.75 65H35.275C35.3768 65.1964 35.5079 65.3762 35.664 65.533C36.0519 65.834 36.497 66.0529 36.9721 66.1765C37.4473 66.3001 37.9426 66.3258 38.428 66.252L39.38 66.253Z" fill="#004FAC"/>
<path d="M70 62.5H68.75V61.5C69.8909 60.8413 70.8381 59.8938 71.4964 58.7527C72.1547 57.6117 72.5008 56.3173 72.5 55V50.156C72.5008 48.1509 71.7173 46.2251 70.317 44.79C69.6317 44.0685 68.8072 43.4935 67.8933 43.0999C66.9794 42.7063 65.9951 42.5022 65 42.5C63.0109 42.5 61.1032 43.2902 59.6967 44.6967C58.2902 46.1032 57.5 48.0109 57.5 50V55C57.4992 56.3173 57.8453 57.6117 58.5036 58.7527C59.1619 59.8938 60.1091 60.8413 61.25 61.5V62.5H60C58.0115 62.5021 56.1051 63.293 54.699 64.699C53.293 66.1051 52.5021 68.0115 52.5 70V73.75C52.5 74.0815 52.6317 74.3995 52.8661 74.6339C53.1005 74.8683 53.4185 75 53.75 75H76.25C76.5815 75 76.8995 74.8683 77.1339 74.6339C77.3683 74.3995 77.5 74.0815 77.5 73.75V70C77.4979 68.0115 76.707 66.1051 75.301 64.699C73.8949 63.293 71.9885 62.5021 70 62.5ZM60 50C60 48.6739 60.5268 47.4021 61.4645 46.4645C62.4021 45.5268 63.6739 45 65 45C65.6596 45.0033 66.3116 45.1404 66.9167 45.4031C67.5217 45.6657 68.0672 46.0484 68.52 46.528C69.4616 47.5019 69.9917 48.8013 70 50.156V53.1L67.75 54.664C67.4364 54.8834 67.0627 55.0007 66.68 55H63.45C63.0793 55.0002 62.717 54.8902 62.409 54.684L60.003 53.084L60 50ZM63.75 63.728V60H63.513C63.3827 59.8173 63.2055 59.6732 63 59.583C62.2944 59.2738 61.6696 58.8062 61.1738 58.2166C60.678 57.627 60.3246 56.9312 60.141 56.183L61.019 56.769C61.7392 57.2477 62.5852 57.5021 63.45 57.5H66.68C67.5739 57.5015 68.4467 57.2282 69.18 56.717L69.841 56.256C69.6511 56.9891 69.2972 57.6695 68.8059 58.2459C68.3146 58.8222 67.6988 59.2794 67.005 59.583C66.7999 59.6734 66.6231 59.8175 66.493 60H66.25V63.728H63.75ZM65.63 66.253C66.0668 66.3049 66.5095 66.2678 66.9316 66.1441C67.3537 66.0204 67.7464 65.8125 68.086 65.533C68.2421 65.3762 68.3732 65.1964 68.475 65H70C71.3261 65 72.5979 65.5268 73.5355 66.4645C74.4732 67.4021 75 68.6739 75 70V72.5H72.5V71.25C72.5 70.9185 72.3683 70.6005 72.1339 70.3661C71.8995 70.1317 71.5815 70 71.25 70C70.9185 70 70.6005 70.1317 70.3661 70.3661C70.1317 70.6005 70 70.9185 70 71.25V72.5H60V71.25C60 70.9185 59.8683 70.6005 59.6339 70.3661C59.3995 70.1317 59.0815 70 58.75 70C58.4185 70 58.1005 70.1317 57.8661 70.3661C57.6317 70.6005 57.5 70.9185 57.5 71.25V72.5H55V70C55 68.6739 55.5268 67.4021 56.4645 66.4645C57.4021 65.5268 58.6739 65 60 65H61.525C61.6268 65.1964 61.7579 65.3762 61.914 65.533C62.3019 65.834 62.747 66.0529 63.2221 66.1765C63.6973 66.3001 64.1926 66.3258 64.678 66.252L65.63 66.253Z" fill="#004FAC"/>
<path d="M58.125 0H19.375C18.2151 0.00132335 17.1031 0.462684 16.2829 1.28287C15.4627 2.10305 15.0013 3.21508 15 4.375V28.125C15.0013 29.2849 15.4627 30.3969 16.2829 31.2171C17.1031 32.0373 18.2151 32.4987 19.375 32.5H30.975L30.225 36.25H26.25C25.9185 36.25 25.6005 36.3817 25.3661 36.6161C25.1317 36.8505 25 37.1685 25 37.5C25 37.8315 25.1317 38.1495 25.3661 38.3839C25.6005 38.6183 25.9185 38.75 26.25 38.75H51.25C51.5815 38.75 51.8995 38.6183 52.1339 38.3839C52.3683 38.1495 52.5 37.8315 52.5 37.5C52.5 37.1685 52.3683 36.8505 52.1339 36.6161C51.8995 36.3817 51.5815 36.25 51.25 36.25H47.275L46.525 32.5H58.125C59.2849 32.4987 60.3969 32.0373 61.2171 31.2171C62.0373 30.3969 62.4987 29.2849 62.5 28.125V4.375C62.4987 3.21508 62.0373 2.10305 61.2171 1.28287C60.3969 0.462684 59.2849 0.00132335 58.125 0ZM32.775 36.25L33.525 32.5H43.975L44.725 36.25H32.775ZM60 28.125C59.9995 28.6221 59.8018 29.0987 59.4502 29.4502C59.0987 29.8018 58.6221 29.9995 58.125 30H19.375C18.8779 29.9995 18.4013 29.8018 18.0498 29.4502C17.6982 29.0987 17.5005 28.6221 17.5 28.125V27.5H60V28.125ZM60 25H17.5V4.375C17.5005 3.87788 17.6982 3.40128 18.0498 3.04976C18.4013 2.69824 18.8779 2.50053 19.375 2.5H58.125C58.6221 2.50053 59.0987 2.69824 59.4502 3.04976C59.8018 3.40128 59.9995 3.87788 60 4.375V25Z" fill="#004FAC"/>
<path d="M35.66 19.8521C35.8595 19.9588 36.0841 20.0094 36.3101 19.9985C36.536 19.9875 36.7548 19.9155 36.943 19.7901L44.443 14.7901C44.6142 14.6759 44.7546 14.5212 44.8517 14.3398C44.9487 14.1584 44.9995 13.9558 44.9995 13.7501C44.9995 13.5443 44.9487 13.3417 44.8517 13.1603C44.7546 12.9789 44.6142 12.8242 44.443 12.7101L36.943 7.71005C36.7548 7.58466 36.536 7.51269 36.3101 7.50181C36.0842 7.49094 35.8595 7.54157 35.6601 7.64831C35.4607 7.75504 35.294 7.91389 35.1777 8.10791C35.0615 8.30194 35.0001 8.52387 35 8.75005V18.7501C35 18.9763 35.0614 19.1982 35.1776 19.3923C35.2939 19.5864 35.4606 19.7453 35.66 19.8521ZM37.5 11.0861L41.5 13.7501L37.5 16.4141V11.0861Z" fill="#004FAC"/>
</g>
<defs>
<clipPath id="clip0_417_8">
<rect width="77.5" height="75" fill="white"/>
</clipPath>
</defs>
</svg>
