<svg xmlns="http://www.w3.org/2000/svg" width="79" height="77.827" viewBox="0 0 79 77.827">
  <g id="training-icon-1-6" transform="translate(-1363 -2944.587)">
    <g id="Layer_x0020_1" transform="translate(1363.003 2944.001)">
      <path id="Path_39" data-name="Path 39" d="M78.886,77.045a.931.931,0,0,1-.82,1.367H9.622c-8.455,0-12.9-10.132-6.779-16.109,2.843-2.788,5.485-2.77,8.947-2.77a5.154,5.154,0,0,1,0-6.651c-3.481,0-6.159.091-9.02-2.77A9.451,9.451,0,0,1,9.439,34H24.856c-1.494-1.622-1.476-3.08-1.476-5.011V15.963l-5.922-2.952a.933.933,0,0,1,0-1.658L38.814.674a.99.99,0,0,1,.82,0L60.918,11.316a.938.938,0,0,1,.583.875V19.9a.929.929,0,0,1-1.859,0V13.685l-4.574,2.278V30.195A5.672,5.672,0,0,1,53.593,34H67.369a.934.934,0,0,1,.838,1.33c-.255.565-3.262,8.036-.237,15.69H73.4a.933.933,0,0,1,.929.929v7.581h3.736a.926.926,0,0,1,.82,1.367C78.576,61.647,75.5,69.337,78.886,77.045ZM25.22,28.063H53.228V16.892l-13.594,6.8h-.82l-13.594-6.8Zm28.008,1.859H25.22A3.822,3.822,0,0,0,29.029,34H49.42A3.822,3.822,0,0,0,53.228,29.922ZM12.555,55.287H56.527a.92.92,0,0,1,0,1.84H12.555a3.324,3.324,0,0,0,3.189,2.405H72.471V52.882H15.744A3.324,3.324,0,0,0,12.555,55.287ZM1.913,68.043H45.957a.929.929,0,0,1,0,1.859H1.913a7.722,7.722,0,0,0,7.708,6.651H76.7a23.883,23.883,0,0,1,.036-15.161H60.116V68.7a.921.921,0,0,1-1.531.692l-3.371-2.679-3.481,2.715A.93.93,0,0,1,50.24,68.7V61.392H9.622A7.722,7.722,0,0,0,1.913,68.043Zm37.32-59.46c9.294,0,9.294,7.2,0,7.2C29.922,15.781,29.922,8.583,39.233,8.583Zm3.918,2.551c-3.553-1.549-9.075-.219-9.075,1.057,0,1.257,5.54,2.606,9.075,1.039C44.773,12.519,44.773,11.845,43.151,11.134ZM6.961,44.026a.929.929,0,0,1,0-1.859H59.132a.929.929,0,0,1,0,1.859ZM52.1,61.392V66.8c3.626-2.843,2.551-2.9,6.177-.018V61.392Zm13.94-25.53H9.439a7.581,7.581,0,0,0,0,15.161H66A24.278,24.278,0,0,1,66.039,35.862ZM53.647,14.615l4.865-2.424L39.233,2.533l-19.3,9.658,19.3,9.64Z" fill="#092f6a"/>
      <path id="Path_40" data-name="Path 40" d="M6.961,42.167H59.132a.929.929,0,0,1,0,1.859H6.961A.929.929,0,0,1,6.961,42.167Zm2.478,8.856H66a24.278,24.278,0,0,1,.036-15.161H9.439a7.581,7.581,0,0,0,0,15.161Z" fill="#fff" fill-rule="evenodd"/>
      <g id="Group_7" data-name="Group 7">
        <path id="Path_41" data-name="Path 41" d="M25.22,29.922A3.822,3.822,0,0,0,29.029,34H49.42a3.822,3.822,0,0,0,3.809-4.082Z" fill="#42a5f5" fill-rule="evenodd"/>
        <path id="Path_42" data-name="Path 42" d="M25.22,28.063H53.228V16.892l-13.594,6.8h-.82l-13.594-6.8Z" fill="#42a5f5" fill-rule="evenodd"/>
        <path id="Path_43" data-name="Path 43" d="M19.936,12.191l19.3,9.64,14.414-7.216,4.865-2.424L39.233,2.533Zm19.3,3.59c-9.312,0-9.312-7.2,0-7.2C48.527,8.583,48.527,15.781,39.233,15.781Z" fill="#42a5f5" fill-rule="evenodd"/>
        <path id="Path_44" data-name="Path 44" d="M34.076,12.191c0,1.257,5.54,2.606,9.075,1.039,1.622-.711,1.622-1.385,0-2.1C39.6,9.585,34.076,10.915,34.076,12.191Z" fill="#42a5f5" fill-rule="evenodd"/>
        <path id="Path_45" data-name="Path 45" d="M72.471,52.882H15.744a3.324,3.324,0,0,0-3.189,2.405H56.527a.92.92,0,0,1,0,1.84H12.555a3.324,3.324,0,0,0,3.189,2.405H72.471Z" fill="#42a5f5" fill-rule="evenodd"/>
        <path id="Path_46" data-name="Path 46" d="M58.276,61.392H52.1V66.8c3.626-2.843,2.551-2.9,6.177-.018Z" fill="#42a5f5" fill-rule="evenodd"/>
      </g>
      <path id="Path_47" data-name="Path 47" d="M60.116,61.392V68.7a.921.921,0,0,1-1.531.692l-3.371-2.679-3.481,2.715A.93.93,0,0,1,50.24,68.7V61.392H9.622a7.722,7.722,0,0,0-7.708,6.651H45.957a.929.929,0,0,1,0,1.859H1.913a7.722,7.722,0,0,0,7.708,6.651H76.7a23.883,23.883,0,0,1,.036-15.161Z" fill="#fff" fill-rule="evenodd"/>
    </g>
  </g>
</svg>
