<svg width="78" height="75" viewBox="0 0 78 75" fill="none" xmlns="http://www.w3.org/2000/svg">
<g clip-path="url(#clip0_417_27)">
<path d="M73.125 31.25H63.75V68.75H13.75V31.25H4.375C3.96458 31.2499 3.55816 31.3306 3.17896 31.4876C2.79976 31.6446 2.45521 31.8748 2.165 32.165C1.87479 32.4552 1.64461 32.7998 1.48761 33.179C1.33061 33.5582 1.24987 33.9646 1.25 34.375V43.75L6.25 45V60L1.25 61.25V70.625C1.24987 71.0354 1.33061 71.4418 1.48761 71.821C1.64461 72.2002 1.87479 72.5448 2.165 72.835C2.45521 73.1252 2.79976 73.3554 3.17896 73.5124C3.55816 73.6694 3.96458 73.7501 4.375 73.75H73.125C73.5354 73.7501 73.9418 73.6694 74.321 73.5124C74.7002 73.3554 75.0448 73.1252 75.335 72.835C75.6252 72.5448 75.8554 72.2002 76.0124 71.821C76.1694 71.4418 76.2501 71.0354 76.25 70.625V34.375C76.2501 33.9646 76.1694 33.5582 76.0124 33.179C75.8554 32.7998 75.6252 32.4552 75.335 32.165C75.0448 31.8748 74.7002 31.6446 74.321 31.4876C73.9418 31.3306 73.5354 31.2499 73.125 31.25Z" fill="#57A4FF"/>
<path d="M56.25 1.25V8.75H63.75L56.25 1.25Z" fill="#57A4FF"/>
<path d="M18.75 16.25H26.25V23.75H18.75V16.25Z" fill="#57A4FF"/>
<path d="M18.75 31.25H26.25V38.75H18.75V31.25Z" fill="#57A4FF"/>
<path d="M18.75 46.25H26.25V53.75H18.75V46.25Z" fill="#57A4FF"/>
<path d="M73.125 30H65V8.75C65 8.41848 64.8683 8.10053 64.634 7.866L57.134 0.366C56.8995 0.131687 56.5815 4.79634e-05 56.25 0H13.75C13.4185 0 13.1005 0.131696 12.8661 0.366117C12.6317 0.600537 12.5 0.918479 12.5 1.25V30H4.375C3.21508 30.0013 2.10305 30.4627 1.28287 31.2829C0.462684 32.1031 0.00132335 33.2151 0 34.375V70.625C0.00132335 71.7849 0.462684 72.8969 1.28287 73.7171C2.10305 74.5373 3.21508 74.9987 4.375 75H73.125C74.2849 74.9987 75.3969 74.5373 76.2171 73.7171C77.0373 72.8969 77.4987 71.7849 77.5 70.625V34.375C77.4987 33.2151 77.0373 32.1031 76.2171 31.2829C75.3969 30.4627 74.2849 30.0013 73.125 30ZM57.5 4.267L60.733 7.5H57.5V4.267ZM15 2.5H55V8.75C55 9.08152 55.1317 9.39946 55.3661 9.63388C55.6005 9.8683 55.9185 10 56.25 10H62.5V67.5H15V2.5ZM2.5 45.352L5 45.977V59.023L2.5 59.648V45.352ZM75 70.625C74.9995 71.1221 74.8018 71.5987 74.4502 71.9502C74.0987 72.3018 73.6221 72.4995 73.125 72.5H4.375C3.87788 72.4995 3.40128 72.3018 3.04976 71.9502C2.69824 71.5987 2.50053 71.1221 2.5 70.625V62.225L6.55 61.213C6.82109 61.146 7.06193 60.9901 7.23411 60.7703C7.40629 60.5504 7.4999 60.2792 7.5 60V45C7.49967 44.7209 7.40596 44.45 7.2338 44.2303C7.06164 44.0107 6.82092 43.855 6.55 43.788L2.5 42.773V34.373C2.50106 33.8762 2.69901 33.4001 3.05046 33.0491C3.40192 32.698 3.87823 32.5005 4.375 32.5H12.5V67.5H10C9.66848 67.5 9.35054 67.6317 9.11612 67.8661C8.8817 68.1005 8.75 68.4185 8.75 68.75C8.75 69.0815 8.8817 69.3995 9.11612 69.6339C9.35054 69.8683 9.66848 70 10 70H67.5C67.8315 70 68.1495 69.8683 68.3839 69.6339C68.6183 69.3995 68.75 69.0815 68.75 68.75C68.75 68.4185 68.6183 68.1005 68.3839 67.8661C68.1495 67.6317 67.8315 67.5 67.5 67.5H65V32.5H73.125C73.6221 32.5005 74.0987 32.6982 74.4502 33.0498C74.8018 33.4013 74.9995 33.8779 75 34.375V70.625Z" fill="#004FAC"/>
<path d="M72.5 45C72.1685 45 71.8505 45.1317 71.6161 45.3661C71.3817 45.6005 71.25 45.9185 71.25 46.25V58.75C71.25 59.0815 71.3817 59.3995 71.6161 59.6339C71.8505 59.8683 72.1685 60 72.5 60C72.8315 60 73.1495 59.8683 73.3839 59.6339C73.6183 59.3995 73.75 59.0815 73.75 58.75V46.25C73.75 45.9185 73.6183 45.6005 73.3839 45.3661C73.1495 45.1317 72.8315 45 72.5 45Z" fill="#004FAC"/>
<path d="M18.75 25H26.25C26.5815 25 26.8995 24.8683 27.1339 24.6339C27.3683 24.3995 27.5 24.0815 27.5 23.75V16.25C27.5 15.9185 27.3683 15.6005 27.1339 15.3661C26.8995 15.1317 26.5815 15 26.25 15H18.75C18.4185 15 18.1005 15.1317 17.8661 15.3661C17.6317 15.6005 17.5 15.9185 17.5 16.25V23.75C17.5 24.0815 17.6317 24.3995 17.8661 24.6339C18.1005 24.8683 18.4185 25 18.75 25ZM20 17.5H25V22.5H20V17.5Z" fill="#004FAC"/>
<path d="M31.25 17.5H58.75C59.0815 17.5 59.3995 17.3683 59.6339 17.1339C59.8683 16.8995 60 16.5815 60 16.25C60 15.9185 59.8683 15.6005 59.6339 15.3661C59.3995 15.1317 59.0815 15 58.75 15H31.25C30.9185 15 30.6005 15.1317 30.3661 15.3661C30.1317 15.6005 30 15.9185 30 16.25C30 16.5815 30.1317 16.8995 30.3661 17.1339C30.6005 17.3683 30.9185 17.5 31.25 17.5Z" fill="#004FAC"/>
<path d="M31.25 21.25H58.75C59.0815 21.25 59.3995 21.1183 59.6339 20.8839C59.8683 20.6495 60 20.3315 60 20C60 19.6685 59.8683 19.3505 59.6339 19.1161C59.3995 18.8817 59.0815 18.75 58.75 18.75H31.25C30.9185 18.75 30.6005 18.8817 30.3661 19.1161C30.1317 19.3505 30 19.6685 30 20C30 20.3315 30.1317 20.6495 30.3661 20.8839C30.6005 21.1183 30.9185 21.25 31.25 21.25Z" fill="#004FAC"/>
<path d="M31.25 25H58.75C59.0815 25 59.3995 24.8683 59.6339 24.6339C59.8683 24.3995 60 24.0815 60 23.75C60 23.4185 59.8683 23.1005 59.6339 22.8661C59.3995 22.6317 59.0815 22.5 58.75 22.5H31.25C30.9185 22.5 30.6005 22.6317 30.3661 22.8661C30.1317 23.1005 30 23.4185 30 23.75C30 24.0815 30.1317 24.3995 30.3661 24.6339C30.6005 24.8683 30.9185 25 31.25 25Z" fill="#004FAC"/>
<path d="M18.75 40H26.25C26.5815 40 26.8995 39.8683 27.1339 39.6339C27.3683 39.3995 27.5 39.0815 27.5 38.75V31.25C27.5 30.9185 27.3683 30.6005 27.1339 30.3661C26.8995 30.1317 26.5815 30 26.25 30H18.75C18.4185 30 18.1005 30.1317 17.8661 30.3661C17.6317 30.6005 17.5 30.9185 17.5 31.25V38.75C17.5 39.0815 17.6317 39.3995 17.8661 39.6339C18.1005 39.8683 18.4185 40 18.75 40ZM20 32.5H25V37.5H20V32.5Z" fill="#004FAC"/>
<path d="M31.25 32.5H58.75C59.0815 32.5 59.3995 32.3683 59.6339 32.1339C59.8683 31.8995 60 31.5815 60 31.25C60 30.9185 59.8683 30.6005 59.6339 30.3661C59.3995 30.1317 59.0815 30 58.75 30H31.25C30.9185 30 30.6005 30.1317 30.3661 30.3661C30.1317 30.6005 30 30.9185 30 31.25C30 31.5815 30.1317 31.8995 30.3661 32.1339C30.6005 32.3683 30.9185 32.5 31.25 32.5Z" fill="#004FAC"/>
<path d="M31.25 36.25H58.75C59.0815 36.25 59.3995 36.1183 59.6339 35.8839C59.8683 35.6495 60 35.3315 60 35C60 34.6685 59.8683 34.3505 59.6339 34.1161C59.3995 33.8817 59.0815 33.75 58.75 33.75H31.25C30.9185 33.75 30.6005 33.8817 30.3661 34.1161C30.1317 34.3505 30 34.6685 30 35C30 35.3315 30.1317 35.6495 30.3661 35.8839C30.6005 36.1183 30.9185 36.25 31.25 36.25Z" fill="#004FAC"/>
<path d="M31.25 40H58.75C59.0815 40 59.3995 39.8683 59.6339 39.6339C59.8683 39.3995 60 39.0815 60 38.75C60 38.4185 59.8683 38.1005 59.6339 37.8661C59.3995 37.6317 59.0815 37.5 58.75 37.5H31.25C30.9185 37.5 30.6005 37.6317 30.3661 37.8661C30.1317 38.1005 30 38.4185 30 38.75C30 39.0815 30.1317 39.3995 30.3661 39.6339C30.6005 39.8683 30.9185 40 31.25 40Z" fill="#004FAC"/>
<path d="M18.75 55H26.25C26.5815 55 26.8995 54.8683 27.1339 54.6339C27.3683 54.3995 27.5 54.0815 27.5 53.75V46.25C27.5 45.9185 27.3683 45.6005 27.1339 45.3661C26.8995 45.1317 26.5815 45 26.25 45H18.75C18.4185 45 18.1005 45.1317 17.8661 45.3661C17.6317 45.6005 17.5 45.9185 17.5 46.25V53.75C17.5 54.0815 17.6317 54.3995 17.8661 54.6339C18.1005 54.8683 18.4185 55 18.75 55ZM20 47.5H25V52.5H20V47.5Z" fill="#004FAC"/>
<path d="M31.25 47.5H58.75C59.0815 47.5 59.3995 47.3683 59.6339 47.1339C59.8683 46.8995 60 46.5815 60 46.25C60 45.9185 59.8683 45.6005 59.6339 45.3661C59.3995 45.1317 59.0815 45 58.75 45H31.25C30.9185 45 30.6005 45.1317 30.3661 45.3661C30.1317 45.6005 30 45.9185 30 46.25C30 46.5815 30.1317 46.8995 30.3661 47.1339C30.6005 47.3683 30.9185 47.5 31.25 47.5Z" fill="#004FAC"/>
<path d="M31.25 51.25H58.75C59.0815 51.25 59.3995 51.1183 59.6339 50.8839C59.8683 50.6495 60 50.3315 60 50C60 49.6685 59.8683 49.3505 59.6339 49.1161C59.3995 48.8817 59.0815 48.75 58.75 48.75H31.25C30.9185 48.75 30.6005 48.8817 30.3661 49.1161C30.1317 49.3505 30 49.6685 30 50C30 50.3315 30.1317 50.6495 30.3661 50.8839C30.6005 51.1183 30.9185 51.25 31.25 51.25Z" fill="#004FAC"/>
<path d="M31.25 55H58.75C59.0815 55 59.3995 54.8683 59.6339 54.6339C59.8683 54.3995 60 54.0815 60 53.75C60 53.4185 59.8683 53.1005 59.6339 52.8661C59.3995 52.6317 59.0815 52.5 58.75 52.5H31.25C30.9185 52.5 30.6005 52.6317 30.3661 52.8661C30.1317 53.1005 30 53.4185 30 53.75C30 54.0815 30.1317 54.3995 30.3661 54.6339C30.6005 54.8683 30.9185 55 31.25 55Z" fill="#004FAC"/>
</g>
<defs>
<clipPath id="clip0_417_27">
<rect width="77.5" height="75" fill="white"/>
</clipPath>
</defs>
</svg>
