<?xml version="1.0" encoding="UTF-8"?>
<!DOCTYPE svg PUBLIC "-//W3C//DTD SVG 1.1//EN" "http://www.w3.org/Graphics/SVG/1.1/DTD/svg11.dtd">
<!-- Creator: CorelDRAW -->
<svg xmlns="http://www.w3.org/2000/svg" xml:space="preserve" width="150mm" height="150mm" version="1.1" style="shape-rendering:geometricPrecision; text-rendering:geometricPrecision; image-rendering:optimizeQuality; fill-rule:evenodd; clip-rule:evenodd"
viewBox="0 0 15000 15000"
 xmlns:xlink="http://www.w3.org/1999/xlink"
 xmlns:xodm="http://www.corel.com/coreldraw/odm/2003">
 <defs>
  <style type="text/css">
   <![CDATA[
    .str2 {stroke:#1B4F72;stroke-width:100;stroke-miterlimit:22.9256}
    .str0 {stroke:#1B4F72;stroke-width:80;stroke-miterlimit:22.9256}
    .str1 {stroke:#1B4F72;stroke-width:120;stroke-miterlimit:22.9256}
    .fil1 {fill:none}
    .fil2 {fill:#6B809C}
    .fil3 {fill:#1B4F72}
    .fil4 {fill:#2E86C1}
    .fil101 {fill:#3D4A53}
    .fil102 {fill:#434D5A}
    .fil104 {fill:#899498}
    .fil5 {fill:#9CCFE2}
    .fil103 {fill:#B3BABD}
    .fil9 {fill:#C2E1ED}
    .fil8 {fill:#C3E1ED}
    .fil7 {fill:#C3E2ED}
    .fil6 {fill:#C4E2ED}
    .fil10 {fill:#C4E2EE}
    .fil11 {fill:#C5E2EE}
    .fil12 {fill:#C5E3EE}
    .fil13 {fill:#C6E3EE}
    .fil14 {fill:#C7E3EE}
    .fil15 {fill:#C7E4EF}
    .fil16 {fill:#C8E4EF}
    .fil17 {fill:#C9E4EF}
    .fil18 {fill:#C9E5EF}
    .fil19 {fill:#CAE5EF}
    .fil20 {fill:#CBE5F0}
    .fil21 {fill:#CBE6F0}
    .fil22 {fill:#CCE6F0}
    .fil23 {fill:#CDE6F0}
    .fil24 {fill:#CDE7F0}
    .fil25 {fill:#CEE7F0}
    .fil26 {fill:#CEE7F1}
    .fil98 {fill:#CEECF5}
    .fil27 {fill:#CFE7F1}
    .fil28 {fill:#CFE8F1}
    .fil29 {fill:#D0E8F1}
    .fil30 {fill:#D1E8F1}
    .fil31 {fill:#D1E9F2}
    .fil0 {fill:#D2E9F2}
    .fil32 {fill:#D3E9F2}
    .fil33 {fill:#D3EAF2}
    .fil34 {fill:#D4EAF2}
    .fil35 {fill:#D5EAF3}
    .fil36 {fill:#D5EBF3}
    .fil37 {fill:#D6EBF3}
    .fil38 {fill:#D7EBF3}
    .fil39 {fill:#D8ECF3}
    .fil40 {fill:#D8ECF4}
    .fil41 {fill:#D9ECF4}
    .fil42 {fill:#D9EDF4}
    .fil43 {fill:#DAEDF4}
    .fil44 {fill:#DBEDF4}
    .fil45 {fill:#DCEEF5}
    .fil46 {fill:#DDEEF5}
    .fil47 {fill:#DEEFF5}
    .fil48 {fill:#DFEFF5}
    .fil49 {fill:#DFEFF6}
    .fil50 {fill:#E0F0F6}
    .fil51 {fill:#E1F0F6}
    .fil52 {fill:#E2F1F6}
    .fil53 {fill:#E2F1F7}
    .fil54 {fill:#E3F1F7}
    .fil55 {fill:#E4F2F7}
    .fil56 {fill:#E5F2F7}
    .fil57 {fill:#E6F3F8}
    .fil58 {fill:#E7F3F8}
    .fil59 {fill:#E8F3F8}
    .fil60 {fill:#E8F4F8}
    .fil61 {fill:#E9F4F8}
    .fil62 {fill:#E9F4F9}
    .fil63 {fill:#EAF5F9}
    .fil64 {fill:#EBF5F9}
    .fil65 {fill:#ECF5F9}
    .fil66 {fill:#ECF6F9}
    .fil67 {fill:#EDF6FA}
    .fil68 {fill:#EEF6FA}
    .fil69 {fill:#EEF7FA}
    .fil70 {fill:#EFF7FA}
    .fil71 {fill:#F0F7FA}
    .fil72 {fill:#F0F8FB}
    .fil73 {fill:#F1F8FB}
    .fil74 {fill:#F2F8FB}
    .fil75 {fill:#F2F9FB}
    .fil76 {fill:#F3F9FB}
    .fil77 {fill:#F3F9FC}
    .fil78 {fill:#F4F9FC}
    .fil79 {fill:#F4FAFC}
    .fil80 {fill:#F5FAFC}
    .fil81 {fill:#F6FAFC}
    .fil82 {fill:#F6FBFC}
    .fil83 {fill:#F7FBFD}
    .fil84 {fill:#F8FBFD}
    .fil85 {fill:#F8FCFD}
    .fil99 {fill:#F9FAFA}
    .fil86 {fill:#F9FCFD}
    .fil87 {fill:#FAFCFD}
    .fil100 {fill:#FAFDFD}
    .fil88 {fill:#FAFDFE}
    .fil89 {fill:#FBFDFE}
    .fil97 {fill:#FCFCFC}
    .fil90 {fill:#FCFDFE}
    .fil91 {fill:#FCFEFE}
    .fil92 {fill:#FDFEFE}
    .fil93 {fill:#FDFEFF}
    .fil94 {fill:#FEFEFF}
    .fil95 {fill:#FEFFFF}
    .fil96 {fill:white}
   ]]>
  </style>
       <clipPath id="id0">
        <path d="M4964.69 3073.14c217,463.74 1041.99,824.54 2079.67,907.17 137.32,-48.37 284.54,-74.59 437.52,-74.59 156.76,0 306.89,26.93 446.26,76.52 1028.43,-77.22 1852.37,-427.29 2090.75,-881.23 0.56,-1.09 1.14,-2.19 1.71,-3.29 -43.5,-84.11 -90.78,-165.82 -141.65,-244.85 -167.88,500.74 -1168.59,884.75 -2371.84,884.75 -1246.23,0 -2263.12,-406.73 -2384.48,-928.86 -56.94,85.01 -109.69,173.25 -157.94,264.38z"/>
       </clipPath>
 </defs>
 <g id="Layer_x0020_1">
  <metadata id="CorelCorpID_0Corel-Layer"/>
  <g id="_105553274574912">
   <polygon class="fil0" points="8485.92,5922.07 10240.72,5153.44 10453.81,5639.92 8699.01,6408.55 "/>
   <g>
    <g>
     <g>
      <path class="fil1" d="M10018.89 3101.01c1.68,1.06 3.36,2.13 5.05,3.2m198.87 2290.75c-401.7,311.48 -972.68,551.54 -1637.88,678.86m-2205.99 -3.23c-664.11,-129.31 -1233.24,-371.18 -1632.16,-684.2m2743.52 -993.15c470.91,0 857.73,403.47 857.73,890.98 0,487.52 -386.82,882.57 -857.73,882.57 -479.33,0 -857.74,-395.05 -857.74,-882.57 0,-487.51 378.41,-890.98 857.74,-890.98zm-8.42 -487.52c748.42,0 1345.47,613.61 1345.47,1378.5 0,756.49 -597.05,1378.5 -1345.47,1378.5 -740.01,0 -1345.47,-622.01 -1345.47,-1378.5 0,-764.89 605.46,-1378.5 1345.47,-1378.5zm8.42 -2378.75c1580.92,0 2867.52,1328.07 2867.52,2967.14 0,1639.07 -1286.6,2958.72 -2867.52,2958.72 -1589.34,0 -2875.94,-1319.65 -2875.94,-2958.72 0,-1639.07 1286.6,-2967.14 2875.94,-2967.14zm2388.65 1325.9c-167.88,500.74 -1168.59,884.75 -2371.84,884.75 -1246.23,0 -2263.12,-406.73 -2384.48,-928.86m4897.97 288.96c-236.12,455.54 -1061.55,807.11 -2092.46,884.52m-883.78 -1.93c-1037.68,-82.63 -1862.67,-443.43 -2079.67,-907.17m5174.45 283.25c-247.78,381.3 -970.45,682.98 -1891.54,791.57m-1525.86 -1.33c-922.08,-110.48 -1643.49,-414.69 -1885.37,-798.17m5401.69 295.02c-275.58,338.8 -921.58,608.11 -1743.3,729.76m-2017.37 -6.38c-833.18,-129.4 -1479.5,-411.51 -1731.48,-762.94m5552.25 285.63c-300.77,337.05 -888.68,607.57 -1625.35,749.04m-2377.14 -5.92c-742.77,-147.36 -1328.85,-427.1 -1615.36,-773.61m5658.42 291.1c-265.78,380.44 -823.3,691.57 -1536.51,865.41m-2639.52 -4.26c-715.52,-177.7 -1270.39,-494.7 -1526.96,-881.09m5722.07 371.94c-283.52,348.29 -834.13,632.82 -1530.51,794.86m-484.98 89.3c-270.61,37.5 -556.48,57.6 -852.02,57.6 -295.58,0 -581.5,-20.11 -852.14,-57.62m-501.72 -93.24c-695.35,-164.33 -1243.39,-451.12 -1522.08,-801.35m5669.06 675.86c-364.09,344.62 -932.5,616.28 -1613.85,764.84m-2370.75 5.61c-669.02,-141.76 -1230.68,-401.07 -1600.99,-731.52"/>
      <path class="fil2" d="M7490.3 6166.79c-445.38,0 -803.63,-341.07 -852.15,-780.49 -3.69,-33.49 -5.59,-67.55 -5.59,-102.08 0,-487.51 378.41,-890.98 857.74,-890.98 470.91,0 857.73,403.47 857.73,890.98 0,34.54 -1.94,68.61 -5.71,102.1 -49.51,439.41 -414.48,780.47 -852.02,780.47zm1182.51 -1528.2c-49.19,-95.78 -109.07,-184.77 -178.05,-265.35 -72.85,-85.11 -155.86,-160.84 -247.16,-225.28 -97.73,-68.97 -204.97,-124.99 -319.46,-165.72 -139.37,-49.59 -289.5,-76.52 -446.26,-76.52 -152.98,0 -300.2,26.22 -437.52,74.59 -115.36,40.62 -223.72,96.87 -322.62,166.32 -89.87,63.11 -171.94,137.13 -244.35,220.23 -70.23,80.61 -131.36,169.76 -181.72,265.81 -61.34,116.99 -106.68,244.2 -132.97,378.64 -17.24,88.14 -26.29,179.4 -26.29,272.91 0,2.95 0.01,5.89 0.03,8.84 1.45,232.67 60.16,452.41 162.38,644.96 24.31,45.79 51.08,90.05 80.12,132.57 243.81,356.98 647.94,592.13 1102.94,592.13 458.79,0 860.69,-233.74 1103.05,-588.9 30.87,-45.24 59.16,-92.46 84.64,-141.41 98.97,-190.11 155.69,-406.44 157.72,-635.39 0.04,-4.26 0.06,-8.53 0.06,-12.8 0,-92 -8.64,-181.82 -25.13,-268.65 -25.43,-133.74 -69.51,-260.38 -129.41,-376.98z"/>
     </g>
     <path class="fil2" d="M7490.3 6166.79c-445.38,0 -803.63,-341.07 -852.15,-780.49 -3.69,-33.49 -5.59,-67.55 -5.59,-102.08 0,-487.51 378.41,-890.98 857.74,-890.98 470.91,0 857.73,403.47 857.73,890.98 0,34.54 -1.94,68.61 -5.71,102.1 -49.51,439.41 -414.48,780.47 -852.02,780.47zm1182.51 -1528.2c-49.19,-95.78 -109.07,-184.77 -178.05,-265.35 -72.85,-85.11 -155.86,-160.84 -247.16,-225.28 -97.73,-68.97 -204.97,-124.99 -319.46,-165.72 -139.37,-49.59 -289.5,-76.52 -446.26,-76.52 -152.98,0 -300.2,26.22 -437.52,74.59 -115.36,40.62 -223.72,96.87 -322.62,166.32 -89.87,63.11 -171.94,137.13 -244.35,220.23 -70.23,80.61 -131.36,169.76 -181.72,265.81 -61.34,116.99 -106.68,244.2 -132.97,378.64 -17.24,88.14 -26.29,179.4 -26.29,272.91 0,2.95 0.01,5.89 0.03,8.84 1.45,232.67 60.16,452.41 162.38,644.96 24.31,45.79 51.08,90.05 80.12,132.57 243.81,356.98 647.94,592.13 1102.94,592.13 458.79,0 860.69,-233.74 1103.05,-588.9 30.87,-45.24 59.16,-92.46 84.64,-141.41 98.97,-190.11 155.69,-406.44 157.72,-635.39 0.04,-4.26 0.06,-8.53 0.06,-12.8 0,-92 -8.64,-181.82 -25.13,-268.65 -25.43,-133.74 -69.51,-260.38 -129.41,-376.98z"/>
     <path class="fil3" d="M7490.3 6166.79c-445.38,0 -803.63,-341.07 -852.15,-780.49 -3.69,-33.49 -5.59,-67.55 -5.59,-102.08 0,-487.51 378.41,-890.98 857.74,-890.98 470.91,0 857.73,403.47 857.73,890.98 0,34.54 -1.94,68.61 -5.71,102.1 -49.51,439.41 -414.48,780.47 -852.02,780.47zm1182.51 -1528.2c-49.19,-95.78 -109.07,-184.77 -178.05,-265.35 -72.85,-85.11 -155.86,-160.84 -247.16,-225.28 -97.73,-68.97 -204.97,-124.99 -319.46,-165.72 -139.37,-49.59 -289.5,-76.52 -446.26,-76.52 -152.98,0 -300.2,26.22 -437.52,74.59 -115.36,40.62 -223.72,96.87 -322.62,166.32 -89.87,63.11 -171.94,137.13 -244.35,220.23 -70.23,80.61 -131.36,169.76 -181.72,265.81 -61.34,116.99 -106.68,244.2 -132.97,378.64 -17.24,88.14 -26.29,179.4 -26.29,272.91 0,2.95 0.01,5.89 0.03,8.84 1.45,232.67 60.16,452.41 162.38,644.96 24.31,45.79 51.08,90.05 80.12,132.57 243.81,356.98 647.94,592.13 1102.94,592.13 458.79,0 860.69,-233.74 1103.05,-588.9 30.87,-45.24 59.16,-92.46 84.64,-141.41 98.97,-190.11 155.69,-406.44 157.72,-635.39 0.04,-4.26 0.06,-8.53 0.06,-12.8 0,-92 -8.64,-181.82 -25.13,-268.65 -25.43,-133.74 -69.51,-260.38 -129.41,-376.98z"/>
     <path class="fil3" d="M8584.93 6073.82c-242.36,355.16 -644.26,588.9 -1103.05,588.9 -455,0 -859.13,-235.15 -1102.94,-592.13 -664.11,-129.31 -1233.24,-371.18 -1632.16,-684.2 367.09,1200.36 1455.97,2066.44 2743.52,2066.44 1277.68,0 2363.13,-861.96 2732.51,-2057.87 -401.7,311.48 -972.68,551.54 -1637.88,678.86z"/>
     <path class="fil4" d="M8584.93 6073.82c-242.36,355.16 -644.26,588.9 -1103.05,588.9 -455,0 -859.13,-235.15 -1102.94,-592.13 -664.11,-129.31 -1233.24,-371.18 -1632.16,-684.2 367.09,1200.36 1455.97,2066.44 2743.52,2066.44 1277.68,0 2363.13,-861.96 2732.51,-2057.87 -401.7,311.48 -972.68,551.54 -1637.88,678.86z"/>
     <path class="fil4" d="M8669.57 5932.41c681.35,-148.56 1249.76,-420.22 1613.85,-764.84 48.1,-213.71 73.8,-436.43 74.39,-665.41 -283.52,348.29 -834.13,632.82 -1530.52,794.86 -2.03,228.95 -58.75,445.28 -157.72,635.39z"/>
     <path class="fil4" d="M6298.82 5938.02c-102.22,-192.55 -160.93,-412.29 -162.38,-644.96 -695.35,-164.33 -1243.39,-451.12 -1522.08,-801.35 0,0.8 0,1.6 0,2.4 0,245.77 28.93,484.36 83.47,712.39 370.31,330.45 931.97,589.76 1600.99,731.52z"/>
     <path class="fil5" d="M6298.82 5938.02c-102.22,-192.55 -160.93,-412.29 -162.38,-644.96 -695.35,-164.33 -1243.39,-451.12 -1522.08,-801.35 0,0.8 0,1.6 0,2.4 0,245.77 28.93,484.36 83.47,712.39 370.31,330.45 931.97,589.76 1600.99,731.52z"/>
     <path class="fil5" d="M7481.88 6662.72c-455,0 -859.13,-235.15 -1102.94,-592.13 -664.11,-129.31 -1233.24,-371.18 -1632.16,-684.2 367.09,1200.36 1455.97,2066.44 2743.52,2066.44 1277.68,0 2363.13,-861.96 2732.51,-2057.87 -401.7,311.48 -972.68,551.54 -1637.88,678.86 -242.36,355.16 -644.26,588.9 -1103.05,588.9z"/>
     <path class="fil5" d="M8827.29 5297.02c-2.03,228.95 -58.75,445.28 -157.72,635.39 681.35,-148.56 1249.76,-420.22 1613.85,-764.84 48.1,-213.71 73.8,-436.43 74.39,-665.41 -283.52,348.29 -834.13,632.82 -1530.52,794.86z"/>
     <path class="fil5" d="M7490.3 6166.79c437.54,0 802.51,-341.06 852.02,-780.47 -270.61,37.5 -556.48,57.6 -852.02,57.6 -295.58,0 -581.5,-20.11 -852.15,-57.62 48.52,439.42 406.77,780.49 852.15,780.49z"/>
     <path class="fil5" d="M8802.22 5015.57c713.21,-173.84 1270.73,-484.97 1536.51,-865.41 -9.84,-88.11 -23.43,-175.03 -40.57,-260.61 -300.77,337.05 -888.68,607.57 -1625.35,749.04 59.9,116.6 103.98,243.24 129.41,376.98z"/>
     <path class="fil5" d="M6162.7 5011.31c26.29,-134.44 71.63,-261.65 132.97,-378.64 -742.77,-147.36 -1328.85,-427.1 -1615.36,-773.61 -18.78,88.96 -33.7,179.42 -44.57,271.16 256.57,386.39 811.44,703.39 1526.96,881.09z"/>
     <path class="fil5" d="M8247.6 4147.96c91.3,64.44 174.31,140.17 247.16,225.28 821.72,-121.65 1467.72,-390.96 1743.3,-729.76 -28.31,-97.92 -61.37,-193.71 -98.92,-287.09 -247.78,381.3 -970.45,682.98 -1891.54,791.57z"/>
     <path class="fil5" d="M6721.74 4146.63c-922.08,-110.48 -1643.49,-414.69 -1885.37,-798.17 -33.8,83.29 -64.01,168.51 -90.46,255.46 251.98,351.43 898.3,633.54 1731.48,762.94 72.41,-83.1 154.48,-157.12 244.35,-220.23z"/>
     <g>
      <g style="clip-path:url(#id0)">
       <polygon class="fil6" points="5206.76,1893.84 5216.77,1895.9 4854.43,3661.17 4844.41,3659.11 "/>
       <polygon id="_1" class="fil7" points="5211.91,1894.9 5226.5,1897.89 4864.15,3663.16 4849.57,3660.17 "/>
       <polygon id="_2" class="fil7" points="5221.64,1896.9 5236.22,1899.89 4873.88,3665.16 4859.29,3662.16 "/>
       <polygon id="_3" class="fil8" points="5231.36,1898.89 5245.94,1901.89 4883.6,3667.15 4869.02,3664.16 "/>
       <polygon id="_4" class="fil8" points="5241.08,1900.89 5255.67,1903.88 4893.32,3669.15 4878.74,3666.16 "/>
       <polygon id="_5" class="fil9" points="5250.81,1902.88 5265.39,1905.88 4903.05,3671.15 4888.46,3668.15 "/>
       <polygon id="_6" class="fil9" points="5260.53,1904.88 5275.11,1907.87 4912.77,3673.14 4898.19,3670.15 "/>
       <polygon id="_7" class="fil9" points="5270.25,1906.88 5284.84,1909.87 4922.49,3675.14 4907.91,3672.14 "/>
       <polygon id="_8" class="fil9" points="5279.98,1908.87 5294.56,1911.87 4932.22,3677.13 4917.63,3674.14 "/>
       <polygon id="_9" class="fil9" points="5289.7,1910.87 5304.29,1913.86 4941.94,3679.13 4927.36,3676.14 "/>
       <polygon id="_10" class="fil8" points="5299.42,1912.86 5314.01,1915.86 4951.67,3681.12 4937.08,3678.13 "/>
       <polygon id="_11" class="fil8" points="5309.15,1914.86 5323.73,1917.85 4961.39,3683.12 4946.8,3680.13 "/>
       <polygon id="_12" class="fil7" points="5318.87,1916.86 5333.46,1919.85 4971.11,3685.12 4956.53,3682.12 "/>
       <polygon id="_13" class="fil7" points="5328.59,1918.85 5343.18,1921.85 4980.84,3687.11 4966.25,3684.12 "/>
       <polygon id="_14" class="fil6" points="5338.32,1920.85 5352.9,1923.84 4990.56,3689.11 4975.97,3686.11 "/>
       <polygon id="_15" class="fil10" points="5348.04,1922.84 5362.63,1925.84 5000.28,3691.1 4985.7,3688.11 "/>
       <polygon id="_16" class="fil10" points="5357.76,1924.84 5372.35,1927.83 5010.01,3693.1 4995.42,3690.11 "/>
       <polygon id="_17" class="fil10" points="5367.49,1926.84 5382.07,1929.83 5019.73,3695.1 5005.14,3692.1 "/>
       <polygon id="_18" class="fil11" points="5377.21,1928.83 5391.8,1931.82 5029.45,3697.09 5014.87,3694.1 "/>
       <polygon id="_19" class="fil11" points="5386.94,1930.83 5401.52,1933.82 5039.18,3699.09 5024.59,3696.09 "/>
       <polygon id="_20" class="fil12" points="5396.66,1932.82 5411.24,1935.82 5048.9,3701.08 5034.32,3698.09 "/>
       <polygon id="_21" class="fil12" points="5406.38,1934.82 5420.97,1937.81 5058.62,3703.08 5044.04,3700.09 "/>
       <polygon id="_22" class="fil13" points="5416.11,1936.81 5430.69,1939.81 5068.35,3705.08 5053.76,3702.08 "/>
       <polygon id="_23" class="fil13" points="5425.83,1938.81 5440.41,1941.8 5078.07,3707.07 5063.49,3704.08 "/>
       <polygon id="_24" class="fil13" points="5435.55,1940.81 5450.14,1943.8 5087.79,3709.07 5073.21,3706.07 "/>
       <polygon id="_25" class="fil13" points="5445.28,1942.8 5459.86,1945.8 5097.52,3711.06 5082.93,3708.07 "/>
       <polygon id="_26" class="fil14" points="5455,1944.8 5469.59,1947.79 5107.24,3713.06 5092.66,3710.07 "/>
       <polygon id="_27" class="fil14" points="5464.72,1946.79 5479.31,1949.79 5116.97,3715.05 5102.38,3712.06 "/>
       <polygon id="_28" class="fil14" points="5474.45,1948.79 5489.03,1951.78 5126.69,3717.05 5112.1,3714.06 "/>
       <polygon id="_29" class="fil15" points="5484.17,1950.79 5498.76,1953.78 5136.41,3719.05 5121.83,3716.05 "/>
       <polygon id="_30" class="fil16" points="5493.89,1952.78 5508.48,1955.78 5146.14,3721.04 5131.55,3718.05 "/>
       <polygon id="_31" class="fil16" points="5503.62,1954.78 5518.2,1957.77 5155.86,3723.04 5141.27,3720.04 "/>
       <polygon id="_32" class="fil16" points="5513.34,1956.77 5527.93,1959.77 5165.58,3725.03 5151,3722.04 "/>
       <polygon id="_33" class="fil16" points="5523.06,1958.77 5537.65,1961.76 5175.31,3727.03 5160.72,3724.04 "/>
       <polygon id="_34" class="fil16" points="5532.79,1960.77 5547.37,1963.76 5185.03,3729.03 5170.44,3726.03 "/>
       <polygon id="_35" class="fil17" points="5542.51,1962.76 5557.1,1965.75 5194.75,3731.02 5180.17,3728.03 "/>
       <polygon id="_36" class="fil17" points="5552.24,1964.76 5566.82,1967.75 5204.48,3733.02 5189.89,3730.02 "/>
       <polygon id="_37" class="fil18" points="5561.96,1966.75 5576.54,1969.75 5214.2,3735.01 5199.62,3732.02 "/>
       <polygon id="_38" class="fil18" points="5571.68,1968.75 5586.27,1971.74 5223.92,3737.01 5209.34,3734.02 "/>
       <polygon id="_39" class="fil19" points="5581.41,1970.74 5595.99,1973.74 5233.65,3739.01 5219.06,3736.01 "/>
       <polygon id="_40" class="fil19" points="5591.13,1972.74 5605.71,1975.73 5243.37,3741 5228.79,3738.01 "/>
       <polygon id="_41" class="fil19" points="5600.85,1974.74 5615.44,1977.73 5253.09,3743 5238.51,3740 "/>
       <polygon id="_42" class="fil19" points="5610.58,1976.73 5625.16,1979.73 5262.82,3744.99 5248.23,3742 "/>
       <polygon id="_43" class="fil20" points="5620.3,1978.73 5634.88,1981.72 5272.54,3746.99 5257.96,3743.99 "/>
       <polygon id="_44" class="fil20" points="5630.02,1980.72 5644.61,1983.72 5282.27,3748.98 5267.68,3745.99 "/>
       <polygon id="_45" class="fil20" points="5639.75,1982.72 5654.33,1985.71 5291.99,3750.98 5277.4,3747.99 "/>
       <polygon id="_46" class="fil21" points="5649.47,1984.72 5664.06,1987.71 5301.71,3752.98 5287.13,3749.98 "/>
       <polygon id="_47" class="fil22" points="5659.19,1986.71 5673.78,1989.71 5311.44,3754.97 5296.85,3751.98 "/>
       <polygon id="_48" class="fil22" points="5668.92,1988.71 5683.5,1991.7 5321.16,3756.97 5306.57,3753.97 "/>
       <polygon id="_49" class="fil22" points="5678.64,1990.7 5693.23,1993.7 5330.88,3758.96 5316.3,3755.97 "/>
       <polygon id="_50" class="fil22" points="5688.36,1992.7 5702.95,1995.69 5340.61,3760.96 5326.02,3757.97 "/>
       <polygon id="_51" class="fil23" points="5698.09,1994.69 5712.67,1997.69 5350.33,3762.96 5335.74,3759.96 "/>
       <polygon id="_52" class="fil23" points="5707.81,1996.69 5722.4,1999.68 5360.05,3764.95 5345.47,3761.96 "/>
       <polygon id="_53" class="fil23" points="5717.53,1998.69 5732.12,2001.68 5369.78,3766.95 5355.19,3763.95 "/>
       <polygon id="_54" class="fil24" points="5727.26,2000.68 5741.84,2003.68 5379.5,3768.94 5364.91,3765.95 "/>
       <polygon id="_55" class="fil24" points="5736.98,2002.68 5751.57,2005.67 5389.22,3770.94 5374.64,3767.95 "/>
       <polygon id="_56" class="fil25" points="5746.71,2004.67 5761.29,2007.67 5398.95,3772.94 5384.36,3769.94 "/>
       <polygon id="_57" class="fil26" points="5756.43,2006.67 5771.01,2009.66 5408.67,3774.93 5394.09,3771.94 "/>
       <polygon id="_58" class="fil26" points="5766.15,2008.67 5780.74,2011.66 5418.39,3776.93 5403.81,3773.93 "/>
       <polygon id="_59" class="fil26" points="5775.88,2010.66 5790.46,2013.66 5428.12,3778.92 5413.53,3775.93 "/>
       <polygon id="_60" class="fil27" points="5785.6,2012.66 5800.18,2015.65 5437.84,3780.92 5423.26,3777.92 "/>
       <polygon id="_61" class="fil27" points="5795.32,2014.65 5809.91,2017.65 5447.56,3782.91 5432.98,3779.92 "/>
       <polygon id="_62" class="fil27" points="5805.05,2016.65 5819.63,2019.64 5457.29,3784.91 5442.7,3781.92 "/>
       <polygon id="_63" class="fil28" points="5814.77,2018.65 5829.36,2021.64 5467.01,3786.91 5452.43,3783.91 "/>
       <polygon id="_64" class="fil29" points="5824.49,2020.64 5839.08,2023.64 5476.74,3788.9 5462.15,3785.91 "/>
       <polygon id="_65" class="fil29" points="5834.22,2022.64 5848.8,2025.63 5486.46,3790.9 5471.87,3787.9 "/>
       <polygon id="_66" class="fil29" points="5843.94,2024.63 5858.53,2027.63 5496.18,3792.89 5481.6,3789.9 "/>
       <polygon id="_67" class="fil29" points="5853.66,2026.63 5868.25,2029.62 5505.91,3794.89 5491.32,3791.9 "/>
       <polygon id="_68" class="fil30" points="5863.39,2028.62 5877.97,2031.62 5515.63,3796.89 5501.04,3793.89 "/>
       <polygon id="_69" class="fil30" points="5873.11,2030.62 5887.7,2033.61 5525.35,3798.88 5510.77,3795.89 "/>
       <polygon id="_70" class="fil30" points="5882.83,2032.62 5897.42,2035.61 5535.08,3800.88 5520.49,3797.88 "/>
       <polygon id="_71" class="fil31" points="5892.56,2034.61 5907.14,2037.61 5544.8,3802.87 5530.21,3799.88 "/>
       <polygon id="_72" class="fil0" points="5902.28,2036.61 5916.87,2039.6 5554.52,3804.87 5539.94,3801.88 "/>
       <polygon id="_73" class="fil0" points="5912.01,2038.6 5926.59,2041.6 5564.25,3806.87 5549.66,3803.87 "/>
       <polygon id="_74" class="fil0" points="5921.73,2040.6 5936.31,2043.59 5573.97,3808.86 5559.39,3805.87 "/>
       <polygon id="_75" class="fil0" points="5931.45,2042.6 5946.04,2045.59 5583.69,3810.86 5569.11,3807.86 "/>
       <polygon id="_76" class="fil32" points="5941.18,2044.59 5955.76,2047.59 5593.42,3812.85 5578.83,3809.86 "/>
       <polygon id="_77" class="fil32" points="5950.9,2046.59 5965.48,2049.58 5603.14,3814.85 5588.56,3811.85 "/>
       <polygon id="_78" class="fil32" points="5960.62,2048.58 5975.21,2051.58 5612.86,3816.84 5598.28,3813.85 "/>
       <polygon id="_79" class="fil32" points="5970.35,2050.58 5984.93,2053.57 5622.59,3818.84 5608,3815.85 "/>
       <polygon id="_80" class="fil33" points="5980.07,2052.58 5994.66,2055.57 5632.31,3820.84 5617.73,3817.84 "/>
       <polygon id="_81" class="fil34" points="5989.79,2054.57 6004.38,2057.57 5642.04,3822.83 5627.45,3819.84 "/>
       <polygon id="_82" class="fil34" points="5999.52,2056.57 6014.1,2059.56 5651.76,3824.83 5637.17,3821.83 "/>
       <polygon id="_83" class="fil34" points="6009.24,2058.56 6023.83,2061.56 5661.48,3826.82 5646.9,3823.83 "/>
       <polygon id="_84" class="fil34" points="6018.96,2060.56 6033.55,2063.55 5671.21,3828.82 5656.62,3825.83 "/>
       <polygon id="_85" class="fil35" points="6028.69,2062.55 6043.27,2065.55 5680.93,3830.82 5666.34,3827.82 "/>
       <polygon id="_86" class="fil35" points="6038.41,2064.55 6053,2067.54 5690.65,3832.81 5676.07,3829.82 "/>
       <polygon id="_87" class="fil35" points="6048.13,2066.55 6062.72,2069.54 5700.38,3834.81 5685.79,3831.81 "/>
       <polygon id="_88" class="fil36" points="6057.86,2068.54 6072.44,2071.54 5710.1,3836.8 5695.51,3833.81 "/>
       <polygon id="_89" class="fil37" points="6067.58,2070.54 6082.17,2073.53 5719.82,3838.8 5705.24,3835.81 "/>
       <polygon id="_90" class="fil37" points="6077.31,2072.53 6091.89,2075.53 5729.55,3840.79 5714.96,3837.8 "/>
       <polygon id="_91" class="fil37" points="6087.03,2074.53 6101.61,2077.52 5739.27,3842.79 5724.69,3839.8 "/>
       <polygon id="_92" class="fil37" points="6096.75,2076.53 6111.34,2079.52 5748.99,3844.79 5734.41,3841.79 "/>
       <polygon id="_93" class="fil38" points="6106.48,2078.52 6121.06,2081.52 5758.72,3846.78 5744.13,3843.79 "/>
       <polygon id="_94" class="fil38" points="6116.2,2080.52 6130.78,2083.51 5768.44,3848.78 5753.86,3845.78 "/>
       <polygon id="_95" class="fil38" points="6125.92,2082.51 6140.51,2085.51 5778.16,3850.77 5763.58,3847.78 "/>
       <polygon id="_96" class="fil38" points="6135.65,2084.51 6150.23,2087.5 5787.89,3852.77 5773.3,3849.78 "/>
       <polygon id="_97" class="fil39" points="6145.37,2086.51 6159.96,2089.5 5797.61,3854.77 5783.03,3851.77 "/>
       <polygon id="_98" class="fil39" points="6155.09,2088.5 6169.68,2091.49 5807.34,3856.76 5792.75,3853.77 "/>
       <polygon id="_99" class="fil39" points="6164.82,2090.5 6179.4,2093.49 5817.06,3858.76 5802.47,3855.76 "/>
       <polygon id="_100" class="fil40" points="6174.54,2092.49 6189.13,2095.49 5826.78,3860.75 5812.2,3857.76 "/>
       <polygon id="_101" class="fil40" points="6184.26,2094.49 6198.85,2097.48 5836.51,3862.75 5821.92,3859.76 "/>
       <polygon id="_102" class="fil41" points="6193.99,2096.48 6208.57,2099.48 5846.23,3864.75 5831.64,3861.75 "/>
       <polygon id="_103" class="fil41" points="6203.71,2098.48 6218.3,2101.47 5855.95,3866.74 5841.37,3863.75 "/>
       <polygon id="_104" class="fil41" points="6213.43,2100.48 6228.02,2103.47 5865.68,3868.74 5851.09,3865.74 "/>
       <polygon id="_105" class="fil42" points="6223.16,2102.47 6237.74,2105.47 5875.4,3870.73 5860.81,3867.74 "/>
       <polygon id="_106" class="fil43" points="6232.88,2104.47 6247.47,2107.46 5885.12,3872.73 5870.54,3869.74 "/>
       <polygon id="_107" class="fil43" points="6242.61,2106.46 6257.19,2109.46 5894.85,3874.72 5880.26,3871.73 "/>
       <polygon id="_108" class="fil43" points="6252.33,2108.46 6266.91,2111.45 5904.57,3876.72 5889.99,3873.73 "/>
       <polygon id="_109" class="fil43" points="6262.05,2110.46 6276.64,2113.45 5914.29,3878.72 5899.71,3875.72 "/>
       <polygon id="_110" class="fil44" points="6271.78,2112.45 6286.36,2115.45 5924.02,3880.71 5909.43,3877.72 "/>
       <polygon id="_111" class="fil44" points="6281.5,2114.45 6296.08,2117.44 5933.74,3882.71 5919.16,3879.71 "/>
       <polygon id="_112" class="fil44" points="6291.22,2116.44 6305.81,2119.44 5943.46,3884.7 5928.88,3881.71 "/>
       <polygon id="_113" class="fil44" points="6300.95,2118.44 6315.53,2121.43 5953.19,3886.7 5938.6,3883.71 "/>
       <polygon id="_114" class="fil45" points="6310.67,2120.44 6325.25,2123.43 5962.91,3888.7 5948.33,3885.7 "/>
       <polygon id="_115" class="fil45" points="6320.39,2122.43 6334.98,2125.42 5972.64,3890.69 5958.05,3887.7 "/>
       <polygon id="_116" class="fil45" points="6330.12,2124.43 6344.7,2127.42 5982.36,3892.69 5967.77,3889.69 "/>
       <polygon id="_117" class="fil45" points="6339.84,2126.42 6354.43,2129.42 5992.08,3894.68 5977.5,3891.69 "/>
       <polygon id="_118" class="fil46" points="6349.56,2128.42 6364.15,2131.41 6001.81,3896.68 5987.22,3893.69 "/>
       <polygon id="_119" class="fil46" points="6359.29,2130.41 6373.87,2133.41 6011.53,3898.68 5996.94,3895.68 "/>
       <polygon id="_120" class="fil46" points="6369.01,2132.41 6383.6,2135.4 6021.25,3900.67 6006.67,3897.68 "/>
       <polygon id="_121" class="fil46" points="6378.73,2134.41 6393.32,2137.4 6030.98,3902.67 6016.39,3899.67 "/>
       <polygon id="_122" class="fil47" points="6388.46,2136.4 6403.04,2139.4 6040.7,3904.66 6026.11,3901.67 "/>
       <polygon id="_123" class="fil47" points="6398.18,2138.4 6412.77,2141.39 6050.42,3906.66 6035.84,3903.67 "/>
       <polygon id="_124" class="fil47" points="6407.9,2140.39 6422.49,2143.39 6060.15,3908.65 6045.56,3905.66 "/>
       <polygon id="_125" class="fil47" points="6417.63,2142.39 6432.21,2145.38 6069.87,3910.65 6055.28,3907.66 "/>
       <polygon id="_126" class="fil47" points="6427.35,2144.39 6441.94,2147.38 6079.59,3912.65 6065.01,3909.65 "/>
       <polygon id="_127" class="fil48" points="6437.08,2146.38 6451.66,2149.38 6089.32,3914.64 6074.73,3911.65 "/>
       <polygon id="_128" class="fil49" points="6446.8,2148.38 6461.38,2151.37 6099.04,3916.64 6084.46,3913.64 "/>
       <polygon id="_129" class="fil49" points="6456.52,2150.37 6471.11,2153.37 6108.76,3918.63 6094.18,3915.64 "/>
       <polygon id="_130" class="fil49" points="6466.25,2152.37 6480.83,2155.36 6118.49,3920.63 6103.9,3917.64 "/>
       <polygon id="_131" class="fil50" points="6475.97,2154.37 6490.55,2157.36 6128.21,3922.63 6113.63,3919.63 "/>
       <polygon id="_132" class="fil50" points="6485.69,2156.36 6500.28,2159.35 6137.93,3924.62 6123.35,3921.63 "/>
       <polygon id="_133" class="fil50" points="6495.42,2158.36 6510,2161.35 6147.66,3926.62 6133.07,3923.62 "/>
       <polygon id="_134" class="fil50" points="6505.14,2160.35 6519.73,2163.35 6157.38,3928.61 6142.8,3925.62 "/>
       <polygon id="_135" class="fil51" points="6514.86,2162.35 6529.45,2165.34 6167.11,3930.61 6152.52,3927.62 "/>
       <polygon id="_136" class="fil51" points="6524.59,2164.34 6539.17,2167.34 6176.83,3932.61 6162.24,3929.61 "/>
       <polygon id="_137" class="fil51" points="6534.31,2166.34 6548.9,2169.33 6186.55,3934.6 6171.97,3931.61 "/>
       <polygon id="_138" class="fil51" points="6544.03,2168.34 6558.62,2171.33 6196.28,3936.6 6181.69,3933.6 "/>
       <polygon id="_139" class="fil52" points="6553.76,2170.33 6568.34,2173.33 6206,3938.59 6191.41,3935.6 "/>
       <polygon id="_140" class="fil52" points="6563.48,2172.33 6578.07,2175.32 6215.72,3940.59 6201.14,3937.59 "/>
       <polygon id="_141" class="fil52" points="6573.2,2174.32 6587.79,2177.32 6225.45,3942.58 6210.86,3939.59 "/>
       <polygon id="_142" class="fil53" points="6582.93,2176.32 6597.51,2179.31 6235.17,3944.58 6220.58,3941.59 "/>
       <polygon id="_143" class="fil54" points="6592.65,2178.32 6607.24,2181.31 6244.89,3946.58 6230.31,3943.58 "/>
       <polygon id="_144" class="fil54" points="6602.38,2180.31 6616.96,2183.31 6254.62,3948.57 6240.03,3945.58 "/>
       <polygon id="_145" class="fil54" points="6612.1,2182.31 6626.68,2185.3 6264.34,3950.57 6249.76,3947.57 "/>
       <polygon id="_146" class="fil54" points="6621.82,2184.3 6636.41,2187.3 6274.06,3952.56 6259.48,3949.57 "/>
       <polygon id="_147" class="fil54" points="6631.55,2186.3 6646.13,2189.29 6283.79,3954.56 6269.2,3951.57 "/>
       <polygon id="_148" class="fil55" points="6641.27,2188.29 6655.85,2191.29 6293.51,3956.56 6278.93,3953.56 "/>
       <polygon id="_149" class="fil55" points="6650.99,2190.29 6665.58,2193.28 6303.23,3958.55 6288.65,3955.56 "/>
       <polygon id="_150" class="fil55" points="6660.72,2192.29 6675.3,2195.28 6312.96,3960.55 6298.37,3957.55 "/>
       <polygon id="_151" class="fil55" points="6670.44,2194.28 6685.03,2197.28 6322.68,3962.54 6308.1,3959.55 "/>
       <polygon id="_152" class="fil56" points="6680.16,2196.28 6694.75,2199.27 6332.41,3964.54 6317.82,3961.55 "/>
       <polygon id="_153" class="fil56" points="6689.89,2198.27 6704.47,2201.27 6342.13,3966.54 6327.54,3963.54 "/>
       <polygon id="_154" class="fil56" points="6699.61,2200.27 6714.2,2203.26 6351.85,3968.53 6337.27,3965.54 "/>
       <polygon id="_155" class="fil56" points="6709.33,2202.27 6723.92,2205.26 6361.58,3970.53 6346.99,3967.53 "/>
       <polygon id="_156" class="fil57" points="6719.06,2204.26 6733.64,2207.26 6371.3,3972.52 6356.71,3969.53 "/>
       <polygon id="_157" class="fil57" points="6728.78,2206.26 6743.37,2209.25 6381.02,3974.52 6366.44,3971.52 "/>
       <polygon id="_158" class="fil57" points="6738.5,2208.25 6753.09,2211.25 6390.75,3976.51 6376.16,3973.52 "/>
       <polygon id="_159" class="fil57" points="6748.23,2210.25 6762.81,2213.24 6400.47,3978.51 6385.88,3975.52 "/>
       <polygon id="_160" class="fil58" points="6757.95,2212.25 6772.54,2215.24 6410.19,3980.51 6395.61,3977.51 "/>
       <polygon id="_161" class="fil58" points="6767.68,2214.24 6782.26,2217.24 6419.92,3982.5 6405.33,3979.51 "/>
       <polygon id="_162" class="fil58" points="6777.4,2216.24 6791.98,2219.23 6429.64,3984.5 6415.06,3981.5 "/>
       <polygon id="_163" class="fil58" points="6787.12,2218.23 6801.71,2221.23 6439.36,3986.49 6424.78,3983.5 "/>
       <polygon id="_164" class="fil59" points="6796.85,2220.23 6811.43,2223.22 6449.09,3988.49 6434.5,3985.5 "/>
       <polygon id="_165" class="fil60" points="6806.57,2222.22 6821.15,2225.22 6458.81,3990.49 6444.23,3987.49 "/>
       <polygon id="_166" class="fil60" points="6816.29,2224.22 6830.88,2227.21 6468.53,3992.48 6453.95,3989.49 "/>
       <polygon id="_167" class="fil60" points="6826.02,2226.22 6840.6,2229.21 6478.26,3994.48 6463.67,3991.48 "/>
       <polygon id="_168" class="fil61" points="6835.74,2228.21 6850.33,2231.21 6487.98,3996.47 6473.4,3993.48 "/>
       <polygon id="_169" class="fil61" points="6845.46,2230.21 6860.05,2233.2 6497.71,3998.47 6483.12,3995.48 "/>
       <polygon id="_170" class="fil62" points="6855.19,2232.2 6869.77,2235.2 6507.43,4000.47 6492.84,3997.47 "/>
       <polygon id="_171" class="fil62" points="6864.91,2234.2 6879.5,2237.19 6517.15,4002.46 6502.57,3999.47 "/>
       <polygon id="_172" class="fil62" points="6874.63,2236.2 6889.22,2239.19 6526.88,4004.46 6512.29,4001.46 "/>
       <polygon id="_173" class="fil63" points="6884.36,2238.19 6898.94,2241.19 6536.6,4006.45 6522.01,4003.46 "/>
       <polygon id="_174" class="fil63" points="6894.08,2240.19 6908.67,2243.18 6546.32,4008.45 6531.74,4005.45 "/>
       <polygon id="_175" class="fil63" points="6903.8,2242.18 6918.39,2245.18 6556.05,4010.44 6541.46,4007.45 "/>
       <polygon id="_176" class="fil63" points="6913.53,2244.18 6928.11,2247.17 6565.77,4012.44 6551.18,4009.45 "/>
       <polygon id="_177" class="fil64" points="6923.25,2246.18 6937.84,2249.17 6575.49,4014.44 6560.91,4011.44 "/>
       <polygon id="_178" class="fil64" points="6932.98,2248.17 6947.56,2251.17 6585.22,4016.43 6570.63,4013.44 "/>
       <polygon id="_179" class="fil64" points="6942.7,2250.17 6957.28,2253.16 6594.94,4018.43 6580.36,4015.43 "/>
       <polygon id="_180" class="fil64" points="6952.42,2252.16 6967.01,2255.16 6604.66,4020.42 6590.08,4017.43 "/>
       <polygon id="_181" class="fil65" points="6962.15,2254.16 6976.73,2257.15 6614.39,4022.42 6599.8,4019.43 "/>
       <polygon id="_182" class="fil66" points="6971.87,2256.15 6986.45,2259.15 6624.11,4024.42 6609.53,4021.42 "/>
       <polygon id="_183" class="fil66" points="6981.59,2258.15 6996.18,2261.14 6633.83,4026.41 6619.25,4023.42 "/>
       <polygon id="_184" class="fil66" points="6991.32,2260.15 7005.9,2263.14 6643.56,4028.41 6628.97,4025.41 "/>
       <polygon id="_185" class="fil67" points="7001.04,2262.14 7015.62,2265.14 6653.28,4030.4 6638.7,4027.41 "/>
       <polygon id="_186" class="fil67" points="7010.76,2264.14 7025.35,2267.13 6663,4032.4 6648.42,4029.41 "/>
       <polygon id="_187" class="fil67" points="7020.49,2266.13 7035.07,2269.13 6672.73,4034.39 6658.14,4031.4 "/>
       <polygon id="_188" class="fil67" points="7030.21,2268.13 7044.8,2271.12 6682.45,4036.39 6667.87,4033.4 "/>
       <polygon id="_189" class="fil68" points="7039.93,2270.13 7054.52,2273.12 6692.18,4038.39 6677.59,4035.39 "/>
       <polygon id="_190" class="fil69" points="7049.66,2272.12 7064.24,2275.12 6701.9,4040.38 6687.31,4037.39 "/>
       <polygon id="_191" class="fil69" points="7059.38,2274.12 7073.97,2277.11 6711.62,4042.38 6697.04,4039.38 "/>
       <polygon id="_192" class="fil69" points="7069.1,2276.11 7083.69,2279.11 6721.35,4044.37 6706.76,4041.38 "/>
       <polygon id="_193" class="fil69" points="7078.83,2278.11 7093.41,2281.1 6731.07,4046.37 6716.48,4043.38 "/>
       <polygon id="_194" class="fil70" points="7088.55,2280.11 7103.14,2283.1 6740.79,4048.37 6726.21,4045.37 "/>
       <polygon id="_195" class="fil70" points="7098.27,2282.1 7112.86,2285.09 6750.52,4050.36 6735.93,4047.37 "/>
       <polygon id="_196" class="fil70" points="7108,2284.1 7122.58,2287.09 6760.24,4052.36 6745.65,4049.36 "/>
       <polygon id="_197" class="fil70" points="7117.72,2286.09 7132.31,2289.09 6769.96,4054.35 6755.38,4051.36 "/>
       <polygon id="_198" class="fil71" points="7127.45,2288.09 7142.03,2291.08 6779.69,4056.35 6765.1,4053.36 "/>
       <polygon id="_199" class="fil72" points="7137.17,2290.08 7151.75,2293.08 6789.41,4058.35 6774.83,4055.35 "/>
       <polygon id="_200" class="fil72" points="7146.89,2292.08 7161.48,2295.07 6799.13,4060.34 6784.55,4057.35 "/>
       <polygon id="_201" class="fil72" points="7156.62,2294.08 7171.2,2297.07 6808.86,4062.34 6794.27,4059.34 "/>
       <polygon id="_202" class="fil73" points="7166.34,2296.07 7180.92,2299.07 6818.58,4064.33 6804,4061.34 "/>
       <polygon id="_203" class="fil73" points="7176.06,2298.07 7190.65,2301.06 6828.3,4066.33 6813.72,4063.34 "/>
       <polygon id="_204" class="fil73" points="7185.79,2300.06 7200.37,2303.06 6838.03,4068.32 6823.44,4065.33 "/>
       <polygon id="_205" class="fil73" points="7195.51,2302.06 7210.1,2305.05 6847.75,4070.32 6833.17,4067.33 "/>
       <polygon id="_206" class="fil74" points="7205.23,2304.06 7219.82,2307.05 6857.48,4072.32 6842.89,4069.32 "/>
       <polygon id="_207" class="fil75" points="7214.96,2306.05 7229.54,2309.05 6867.2,4074.31 6852.61,4071.32 "/>
       <polygon id="_208" class="fil75" points="7224.68,2308.05 7239.27,2311.04 6876.92,4076.31 6862.34,4073.31 "/>
       <polygon id="_209" class="fil75" points="7234.4,2310.04 7248.99,2313.04 6886.65,4078.3 6872.06,4075.31 "/>
       <polygon id="_210" class="fil76" points="7244.13,2312.04 7258.71,2315.03 6896.37,4080.3 6881.78,4077.31 "/>
       <polygon id="_211" class="fil76" points="7253.85,2314.04 7268.44,2317.03 6906.09,4082.3 6891.51,4079.3 "/>
       <polygon id="_212" class="fil76" points="7263.57,2316.03 7278.16,2319.02 6915.82,4084.29 6901.23,4081.3 "/>
       <polygon id="_213" class="fil77" points="7273.3,2318.03 7287.88,2321.02 6925.54,4086.29 6910.95,4083.29 "/>
       <polygon id="_214" class="fil78" points="7283.02,2320.02 7297.61,2323.02 6935.26,4088.28 6920.68,4085.29 "/>
       <polygon id="_215" class="fil78" points="7292.75,2322.02 7307.33,2325.01 6944.99,4090.28 6930.4,4087.29 "/>
       <polygon id="_216" class="fil79" points="7302.47,2324.01 7317.05,2327.01 6954.71,4092.28 6940.13,4089.28 "/>
       <polygon id="_217" class="fil79" points="7312.19,2326.01 7326.78,2329 6964.43,4094.27 6949.85,4091.28 "/>
       <polygon id="_218" class="fil79" points="7321.92,2328.01 7336.5,2331 6974.16,4096.27 6959.57,4093.27 "/>
       <polygon id="_219" class="fil80" points="7331.64,2330 7346.22,2333 6983.88,4098.26 6969.3,4095.27 "/>
       <polygon id="_220" class="fil80" points="7341.36,2332 7355.95,2334.99 6993.6,4100.26 6979.02,4097.27 "/>
       <polygon id="_221" class="fil80" points="7351.09,2333.99 7365.67,2336.99 7003.33,4102.25 6988.74,4099.26 "/>
       <polygon id="_222" class="fil80" points="7360.81,2335.99 7375.4,2338.98 7013.05,4104.25 6998.47,4101.26 "/>
       <polygon id="_223" class="fil81" points="7370.53,2337.99 7385.12,2340.98 7022.78,4106.25 7008.19,4103.25 "/>
       <polygon id="_224" class="fil82" points="7380.26,2339.98 7394.84,2342.98 7032.5,4108.24 7017.91,4105.25 "/>
       <polygon id="_225" class="fil82" points="7389.98,2341.98 7404.57,2344.97 7042.22,4110.24 7027.64,4107.24 "/>
       <polygon id="_226" class="fil82" points="7399.7,2343.97 7414.29,2346.97 7051.95,4112.23 7037.36,4109.24 "/>
       <polygon id="_227" class="fil83" points="7409.43,2345.97 7424.01,2348.96 7061.67,4114.23 7047.08,4111.24 "/>
       <polygon id="_228" class="fil83" points="7419.15,2347.97 7433.74,2350.96 7071.39,4116.23 7056.81,4113.23 "/>
       <polygon id="_229" class="fil83" points="7428.87,2349.96 7443.46,2352.95 7081.12,4118.22 7066.53,4115.23 "/>
       <polygon id="_230" class="fil83" points="7438.6,2351.96 7453.18,2354.95 7090.84,4120.22 7076.25,4117.22 "/>
       <polygon id="_231" class="fil84" points="7448.32,2353.95 7462.91,2356.95 7100.56,4122.21 7085.98,4119.22 "/>
       <polygon id="_232" class="fil84" points="7458.05,2355.95 7472.63,2358.94 7110.29,4124.21 7095.7,4121.22 "/>
       <polygon id="_233" class="fil85" points="7467.77,2357.94 7482.35,2360.94 7120.01,4126.21 7105.43,4123.21 "/>
       <polygon id="_234" class="fil85" points="7477.49,2359.94 7492.08,2362.93 7129.73,4128.2 7115.15,4125.21 "/>
       <polygon id="_235" class="fil86" points="7487.22,2361.94 7501.8,2364.93 7139.46,4130.2 7124.87,4127.2 "/>
       <polygon id="_236" class="fil86" points="7496.94,2363.93 7511.52,2366.93 7149.18,4132.19 7134.6,4129.2 "/>
       <polygon id="_237" class="fil86" points="7506.66,2365.93 7521.25,2368.92 7158.9,4134.19 7144.32,4131.19 "/>
       <polygon id="_238" class="fil86" points="7516.39,2367.92 7530.97,2370.92 7168.63,4136.18 7154.04,4133.19 "/>
       <polygon id="_239" class="fil86" points="7526.11,2369.92 7540.7,2372.91 7178.35,4138.18 7163.77,4135.19 "/>
       <polygon id="_240" class="fil87" points="7535.83,2371.92 7550.42,2374.91 7188.08,4140.18 7173.49,4137.18 "/>
       <polygon id="_241" class="fil88" points="7545.56,2373.91 7560.14,2376.91 7197.8,4142.17 7183.21,4139.18 "/>
       <polygon id="_242" class="fil88" points="7555.28,2375.91 7569.87,2378.9 7207.52,4144.17 7192.94,4141.17 "/>
       <polygon id="_243" class="fil88" points="7565,2377.9 7579.59,2380.9 7217.25,4146.16 7202.66,4143.17 "/>
       <polygon id="_244" class="fil89" points="7574.73,2379.9 7589.31,2382.89 7226.97,4148.16 7212.38,4145.17 "/>
       <polygon id="_245" class="fil89" points="7584.45,2381.89 7599.04,2384.89 7236.69,4150.16 7222.11,4147.16 "/>
       <polygon id="_246" class="fil89" points="7594.17,2383.89 7608.76,2386.88 7246.42,4152.15 7231.83,4149.16 "/>
       <polygon id="_247" class="fil89" points="7603.9,2385.89 7618.48,2388.88 7256.14,4154.15 7241.55,4151.15 "/>
       <polygon id="_248" class="fil90" points="7613.62,2387.88 7628.21,2390.88 7265.86,4156.14 7251.28,4153.15 "/>
       <polygon id="_249" class="fil90" points="7623.34,2389.88 7637.93,2392.87 7275.59,4158.14 7261,4155.15 "/>
       <polygon id="_250" class="fil91" points="7633.07,2391.87 7647.65,2394.87 7285.31,4160.14 7270.73,4157.14 "/>
       <polygon id="_251" class="fil91" points="7642.79,2393.87 7657.38,2396.86 7295.03,4162.13 7280.45,4159.14 "/>
       <polygon id="_252" class="fil92" points="7652.52,2395.87 7667.1,2398.86 7304.76,4164.13 7290.17,4161.13 "/>
       <polygon id="_253" class="fil92" points="7662.24,2397.86 7676.82,2400.86 7314.48,4166.12 7299.9,4163.13 "/>
       <polygon id="_254" class="fil92" points="7671.96,2399.86 7686.55,2402.85 7324.2,4168.12 7309.62,4165.12 "/>
       <polygon id="_255" class="fil93" points="7681.69,2401.85 7696.27,2404.85 7333.93,4170.11 7319.34,4167.12 "/>
       <polygon id="_256" class="fil94" points="7691.41,2403.85 7705.99,2406.84 7343.65,4172.11 7329.07,4169.12 "/>
       <polygon id="_257" class="fil94" points="7701.13,2405.85 7715.72,2408.84 7353.37,4174.11 7338.79,4171.11 "/>
       <polygon id="_258" class="fil95" points="7710.86,2407.84 7725.44,2410.84 7363.1,4176.1 7348.51,4173.11 "/>
       <polygon id="_259" class="fil95" points="7720.58,2409.84 7735.17,2412.83 7372.82,4178.1 7358.24,4175.1 "/>
       <polygon id="_260" class="fil96" points="7730.3,2411.83 7744.89,2414.83 7382.55,4180.09 7367.96,4177.1 "/>
       <polygon id="_261" class="fil96" points="7740.03,2413.83 7754.61,2416.82 7392.27,4182.09 7377.68,4179.1 "/>
       <polygon id="_262" class="fil96" points="7749.75,2415.82 7764.34,2418.82 7401.99,4184.09 7387.41,4181.09 "/>
       <polygon id="_263" class="fil96" points="7759.47,2417.82 7774.06,2420.81 7411.72,4186.08 7397.13,4183.09 "/>
       <polygon id="_264" class="fil96" points="7769.2,2419.82 7783.78,2422.81 7421.44,4188.08 7406.85,4185.08 "/>
       <polygon id="_265" class="fil95" points="7778.92,2421.81 7793.51,2424.81 7431.16,4190.07 7416.58,4187.08 "/>
       <polygon id="_266" class="fil95" points="7788.64,2423.81 7803.23,2426.8 7440.89,4192.07 7426.3,4189.08 "/>
       <polygon id="_267" class="fil94" points="7798.37,2425.8 7812.95,2428.8 7450.61,4194.07 7436.02,4191.07 "/>
       <polygon id="_268" class="fil94" points="7808.09,2427.8 7822.68,2430.79 7460.33,4196.06 7445.75,4193.07 "/>
       <polygon id="_269" class="fil93" points="7817.82,2429.8 7832.4,2432.79 7470.06,4198.06 7455.47,4195.06 "/>
       <polygon id="_270" class="fil92" points="7827.54,2431.79 7842.12,2434.79 7479.78,4200.05 7465.2,4197.06 "/>
       <polygon id="_271" class="fil92" points="7837.26,2433.79 7851.85,2436.78 7489.5,4202.05 7474.92,4199.05 "/>
       <polygon id="_272" class="fil92" points="7846.99,2435.78 7861.57,2438.78 7499.23,4204.04 7484.64,4201.05 "/>
       <polygon id="_273" class="fil91" points="7856.71,2437.78 7871.29,2440.77 7508.95,4206.04 7494.37,4203.05 "/>
       <polygon id="_274" class="fil91" points="7866.43,2439.78 7881.02,2442.77 7518.67,4208.04 7504.09,4205.04 "/>
       <polygon id="_275" class="fil90" points="7876.16,2441.77 7890.74,2444.77 7528.4,4210.03 7513.81,4207.04 "/>
       <polygon id="_276" class="fil90" points="7885.88,2443.77 7900.47,2446.76 7538.12,4212.03 7523.54,4209.03 "/>
       <polygon id="_277" class="fil89" points="7895.6,2445.76 7910.19,2448.76 7547.85,4214.02 7533.26,4211.03 "/>
       <polygon id="_278" class="fil89" points="7905.33,2447.76 7919.91,2450.75 7557.57,4216.02 7542.98,4213.03 "/>
       <polygon id="_279" class="fil89" points="7915.05,2449.75 7929.64,2452.75 7567.29,4218.02 7552.71,4215.02 "/>
       <polygon id="_280" class="fil89" points="7924.77,2451.75 7939.36,2454.74 7577.02,4220.01 7562.43,4217.02 "/>
       <polygon id="_281" class="fil88" points="7934.5,2453.75 7949.08,2456.74 7586.74,4222.01 7572.15,4219.01 "/>
       <polygon id="_282" class="fil88" points="7944.22,2455.74 7958.81,2458.74 7596.46,4224 7581.88,4221.01 "/>
       <polygon id="_283" class="fil88" points="7953.94,2457.74 7968.53,2460.73 7606.19,4226 7591.6,4223.01 "/>
       <polygon id="_284" class="fil87" points="7963.67,2459.73 7978.25,2462.73 7615.91,4227.99 7601.32,4225 "/>
       <polygon id="_285" class="fil86" points="7973.39,2461.73 7987.98,2464.72 7625.63,4229.99 7611.05,4227 "/>
       <polygon id="_286" class="fil86" points="7983.12,2463.73 7997.7,2466.72 7635.36,4231.99 7620.77,4228.99 "/>
       <polygon id="_287" class="fil86" points="7992.84,2465.72 8007.42,2468.72 7645.08,4233.98 7630.5,4230.99 "/>
       <polygon id="_288" class="fil86" points="8002.56,2467.72 8017.15,2470.71 7654.8,4235.98 7640.22,4232.98 "/>
       <polygon id="_289" class="fil86" points="8012.29,2469.71 8026.87,2472.71 7664.53,4237.97 7649.94,4234.98 "/>
       <polygon id="_290" class="fil85" points="8022.01,2471.71 8036.59,2474.7 7674.25,4239.97 7659.67,4236.98 "/>
       <polygon id="_291" class="fil85" points="8031.73,2473.71 8046.32,2476.7 7683.97,4241.97 7669.39,4238.97 "/>
       <polygon id="_292" class="fil84" points="8041.46,2475.7 8056.04,2478.69 7693.7,4243.96 7679.11,4240.97 "/>
       <polygon id="_293" class="fil84" points="8051.18,2477.7 8065.77,2480.69 7703.42,4245.96 7688.84,4242.96 "/>
       <polygon id="_294" class="fil83" points="8060.9,2479.69 8075.49,2482.69 7713.15,4247.95 7698.56,4244.96 "/>
       <polygon id="_295" class="fil83" points="8070.63,2481.69 8085.21,2484.68 7722.87,4249.95 7708.28,4246.96 "/>
       <polygon id="_296" class="fil83" points="8080.35,2483.68 8094.94,2486.68 7732.59,4251.95 7718.01,4248.95 "/>
       <polygon id="_297" class="fil83" points="8090.07,2485.68 8104.66,2488.67 7742.32,4253.94 7727.73,4250.95 "/>
       <polygon id="_298" class="fil82" points="8099.8,2487.68 8114.38,2490.67 7752.04,4255.94 7737.45,4252.94 "/>
       <polygon id="_299" class="fil82" points="8109.52,2489.67 8124.11,2492.67 7761.76,4257.93 7747.18,4254.94 "/>
       <polygon id="_300" class="fil82" points="8119.24,2491.67 8133.83,2494.66 7771.49,4259.93 7756.9,4256.94 "/>
       <polygon id="_301" class="fil81" points="8128.97,2493.66 8143.55,2496.66 7781.21,4261.92 7766.62,4258.93 "/>
       <polygon id="_302" class="fil80" points="8138.69,2495.66 8153.28,2498.65 7790.93,4263.92 7776.35,4260.93 "/>
       <polygon id="_303" class="fil80" points="8148.42,2497.66 8163,2500.65 7800.66,4265.92 7786.07,4262.92 "/>
       <polygon id="_304" class="fil80" points="8158.14,2499.65 8172.72,2502.65 7810.38,4267.91 7795.8,4264.92 "/>
       <polygon id="_305" class="fil80" points="8167.86,2501.65 8182.45,2504.64 7820.1,4269.91 7805.52,4266.91 "/>
       <polygon id="_306" class="fil79" points="8177.59,2503.64 8192.17,2506.64 7829.83,4271.9 7815.24,4268.91 "/>
       <polygon id="_307" class="fil79" points="8187.31,2505.64 8201.89,2508.63 7839.55,4273.9 7824.97,4270.91 "/>
       <polygon id="_308" class="fil79" points="8197.03,2507.64 8211.62,2510.63 7849.27,4275.9 7834.69,4272.9 "/>
       <polygon id="_309" class="fil78" points="8206.76,2509.63 8221.34,2512.62 7859,4277.89 7844.41,4274.9 "/>
       <polygon id="_310" class="fil78" points="8216.48,2511.63 8231.07,2514.62 7868.72,4279.89 7854.14,4276.89 "/>
       <polygon id="_311" class="fil77" points="8226.2,2513.62 8240.79,2516.62 7878.45,4281.88 7863.86,4278.89 "/>
       <polygon id="_312" class="fil76" points="8235.93,2515.62 8250.51,2518.61 7888.17,4283.88 7873.58,4280.89 "/>
       <polygon id="_313" class="fil76" points="8245.65,2517.61 8260.24,2520.61 7897.89,4285.88 7883.31,4282.88 "/>
       <polygon id="_314" class="fil76" points="8255.37,2519.61 8269.96,2522.6 7907.62,4287.87 7893.03,4284.88 "/>
       <polygon id="_315" class="fil75" points="8265.1,2521.61 8279.68,2524.6 7917.34,4289.87 7902.75,4286.87 "/>
       <polygon id="_316" class="fil75" points="8274.82,2523.6 8289.41,2526.6 7927.06,4291.86 7912.48,4288.87 "/>
       <polygon id="_317" class="fil75" points="8284.54,2525.6 8299.13,2528.59 7936.79,4293.86 7922.2,4290.86 "/>
       <polygon id="_318" class="fil74" points="8294.27,2527.59 8308.85,2530.59 7946.51,4295.85 7931.92,4292.86 "/>
       <polygon id="_319" class="fil73" points="8303.99,2529.59 8318.58,2532.58 7956.23,4297.85 7941.65,4294.86 "/>
       <polygon id="_320" class="fil73" points="8313.71,2531.59 8328.3,2534.58 7965.96,4299.85 7951.37,4296.85 "/>
       <polygon id="_321" class="fil73" points="8323.44,2533.58 8338.02,2536.58 7975.68,4301.84 7961.1,4298.85 "/>
       <polygon id="_322" class="fil73" points="8333.16,2535.58 8347.75,2538.57 7985.4,4303.84 7970.82,4300.84 "/>
       <polygon id="_323" class="fil72" points="8342.89,2537.57 8357.47,2540.57 7995.13,4305.83 7980.54,4302.84 "/>
       <polygon id="_324" class="fil72" points="8352.61,2539.57 8367.19,2542.56 8004.85,4307.83 7990.27,4304.84 "/>
       <polygon id="_325" class="fil72" points="8362.33,2541.57 8376.92,2544.56 8014.57,4309.83 7999.99,4306.83 "/>
       <polygon id="_326" class="fil71" points="8372.06,2543.56 8386.64,2546.55 8024.3,4311.82 8009.71,4308.83 "/>
       <polygon id="_327" class="fil70" points="8381.78,2545.56 8396.36,2548.55 8034.02,4313.82 8019.44,4310.82 "/>
       <polygon id="_328" class="fil70" points="8391.5,2547.55 8406.09,2550.55 8043.74,4315.81 8029.16,4312.82 "/>
       <polygon id="_329" class="fil70" points="8401.23,2549.55 8415.81,2552.54 8053.47,4317.81 8038.88,4314.82 "/>
       <polygon id="_330" class="fil70" points="8410.95,2551.54 8425.54,2554.54 8063.19,4319.81 8048.61,4316.81 "/>
       <polygon id="_331" class="fil69" points="8420.67,2553.54 8435.26,2556.53 8072.92,4321.8 8058.33,4318.81 "/>
       <polygon id="_332" class="fil69" points="8430.4,2555.54 8444.98,2558.53 8082.64,4323.8 8068.05,4320.8 "/>
       <polygon id="_333" class="fil69" points="8440.12,2557.53 8454.71,2560.53 8092.36,4325.79 8077.78,4322.8 "/>
       <polygon id="_334" class="fil69" points="8449.84,2559.53 8464.43,2562.52 8102.09,4327.79 8087.5,4324.79 "/>
       <polygon id="_335" class="fil68" points="8459.57,2561.52 8474.15,2564.52 8111.81,4329.78 8097.22,4326.79 "/>
       <polygon id="_336" class="fil67" points="8469.29,2563.52 8483.88,2566.51 8121.53,4331.78 8106.95,4328.79 "/>
       <polygon id="_337" class="fil67" points="8479.01,2565.52 8493.6,2568.51 8131.26,4333.78 8116.67,4330.78 "/>
       <polygon id="_338" class="fil67" points="8488.74,2567.51 8503.32,2570.51 8140.98,4335.77 8126.39,4332.78 "/>
       <polygon id="_339" class="fil67" points="8498.46,2569.51 8513.05,2572.5 8150.7,4337.77 8136.12,4334.77 "/>
       <polygon id="_340" class="fil66" points="8508.19,2571.5 8522.77,2574.5 8160.43,4339.76 8145.84,4336.77 "/>
       <polygon id="_341" class="fil66" points="8517.91,2573.5 8532.49,2576.49 8170.15,4341.76 8155.57,4338.77 "/>
       <polygon id="_342" class="fil66" points="8527.63,2575.49 8542.22,2578.49 8179.87,4343.76 8165.29,4340.76 "/>
       <polygon id="_343" class="fil65" points="8537.36,2577.49 8551.94,2580.48 8189.6,4345.75 8175.01,4342.76 "/>
       <polygon id="_344" class="fil64" points="8547.08,2579.49 8561.66,2582.48 8199.32,4347.75 8184.74,4344.75 "/>
       <polygon id="_345" class="fil64" points="8556.8,2581.48 8571.39,2584.48 8209.04,4349.74 8194.46,4346.75 "/>
       <polygon id="_346" class="fil64" points="8566.53,2583.48 8581.11,2586.47 8218.77,4351.74 8204.18,4348.75 "/>
       <polygon id="_347" class="fil64" points="8576.25,2585.47 8590.84,2588.47 8228.49,4353.74 8213.91,4350.74 "/>
       <polygon id="_348" class="fil63" points="8585.97,2587.47 8600.56,2590.46 8238.22,4355.73 8223.63,4352.74 "/>
       <polygon id="_349" class="fil63" points="8595.7,2589.47 8610.28,2592.46 8247.94,4357.73 8233.35,4354.73 "/>
       <polygon id="_350" class="fil63" points="8605.42,2591.46 8620.01,2594.46 8257.66,4359.72 8243.08,4356.73 "/>
       <polygon id="_351" class="fil63" points="8615.14,2593.46 8629.73,2596.45 8267.39,4361.72 8252.8,4358.72 "/>
       <polygon id="_352" class="fil62" points="8624.87,2595.45 8639.45,2598.45 8277.11,4363.71 8262.52,4360.72 "/>
       <polygon id="_353" class="fil62" points="8634.59,2597.45 8649.18,2600.44 8286.83,4365.71 8272.25,4362.72 "/>
       <polygon id="_354" class="fil62" points="8644.31,2599.45 8658.9,2602.44 8296.56,4367.71 8281.97,4364.71 "/>
       <polygon id="_355" class="fil61" points="8654.04,2601.44 8668.62,2604.44 8306.28,4369.7 8291.69,4366.71 "/>
       <polygon id="_356" class="fil61" points="8663.76,2603.44 8678.35,2606.43 8316,4371.7 8301.42,4368.7 "/>
       <polygon id="_357" class="fil60" points="8673.49,2605.43 8688.07,2608.43 8325.73,4373.69 8311.14,4370.7 "/>
       <polygon id="_358" class="fil60" points="8683.21,2607.43 8697.79,2610.42 8335.45,4375.69 8320.87,4372.7 "/>
       <polygon id="_359" class="fil60" points="8692.93,2609.42 8707.52,2612.42 8345.17,4377.69 8330.59,4374.69 "/>
       <polygon id="_360" class="fil59" points="8702.66,2611.42 8717.24,2614.41 8354.9,4379.68 8340.31,4376.69 "/>
       <polygon id="_361" class="fil58" points="8712.38,2613.42 8726.96,2616.41 8364.62,4381.68 8350.04,4378.68 "/>
       <polygon id="_362" class="fil58" points="8722.1,2615.41 8736.69,2618.41 8374.34,4383.67 8359.76,4380.68 "/>
       <polygon id="_363" class="fil58" points="8731.83,2617.41 8746.41,2620.4 8384.07,4385.67 8369.48,4382.68 "/>
       <polygon id="_364" class="fil58" points="8741.55,2619.4 8756.14,2622.4 8393.79,4387.66 8379.21,4384.67 "/>
       <polygon id="_365" class="fil57" points="8751.27,2621.4 8765.86,2624.39 8403.52,4389.66 8388.93,4386.67 "/>
       <polygon id="_366" class="fil57" points="8761,2623.4 8775.58,2626.39 8413.24,4391.66 8398.65,4388.66 "/>
       <polygon id="_367" class="fil57" points="8770.72,2625.39 8785.31,2628.39 8422.96,4393.65 8408.38,4390.66 "/>
       <polygon id="_368" class="fil57" points="8780.44,2627.39 8795.03,2630.38 8432.69,4395.65 8418.1,4392.65 "/>
       <polygon id="_369" class="fil56" points="8790.17,2629.38 8804.75,2632.38 8442.41,4397.64 8427.82,4394.65 "/>
       <polygon id="_370" class="fil56" points="8799.89,2631.38 8814.48,2634.37 8452.13,4399.64 8437.55,4396.65 "/>
       <polygon id="_371" class="fil56" points="8809.61,2633.38 8824.2,2636.37 8461.86,4401.64 8447.27,4398.64 "/>
       <polygon id="_372" class="fil56" points="8819.34,2635.37 8833.92,2638.37 8471.58,4403.63 8456.99,4400.64 "/>
       <polygon id="_373" class="fil55" points="8829.06,2637.37 8843.65,2640.36 8481.3,4405.63 8466.72,4402.63 "/>
       <polygon id="_374" class="fil55" points="8838.79,2639.36 8853.37,2642.36 8491.03,4407.62 8476.44,4404.63 "/>
       <polygon id="_375" class="fil55" points="8848.51,2641.36 8863.09,2644.35 8500.75,4409.62 8486.17,4406.63 "/>
       <polygon id="_376" class="fil55" points="8858.23,2643.35 8872.82,2646.35 8510.47,4411.62 8495.89,4408.62 "/>
       <polygon id="_377" class="fil54" points="8867.96,2645.35 8882.54,2648.34 8520.2,4413.61 8505.61,4410.62 "/>
       <polygon id="_378" class="fil54" points="8877.68,2647.35 8892.26,2650.34 8529.92,4415.61 8515.34,4412.61 "/>
       <polygon id="_379" class="fil54" points="8887.4,2649.34 8901.99,2652.34 8539.64,4417.6 8525.06,4414.61 "/>
       <polygon id="_380" class="fil54" points="8897.13,2651.34 8911.71,2654.33 8549.37,4419.6 8534.78,4416.61 "/>
       <polygon id="_381" class="fil54" points="8906.85,2653.33 8921.44,2656.33 8559.09,4421.59 8544.51,4418.6 "/>
       <polygon id="_382" class="fil53" points="8916.57,2655.33 8931.16,2658.32 8568.82,4423.59 8554.23,4420.6 "/>
       <polygon id="_383" class="fil52" points="8926.3,2657.33 8940.88,2660.32 8578.54,4425.59 8563.95,4422.59 "/>
       <polygon id="_384" class="fil52" points="8936.02,2659.32 8950.61,2662.32 8588.26,4427.58 8573.68,4424.59 "/>
       <polygon id="_385" class="fil52" points="8945.74,2661.32 8960.33,2664.31 8597.99,4429.58 8583.4,4426.58 "/>
       <polygon id="_386" class="fil51" points="8955.47,2663.31 8970.05,2666.31 8607.71,4431.57 8593.12,4428.58 "/>
       <polygon id="_387" class="fil51" points="8965.19,2665.31 8979.78,2668.3 8617.43,4433.57 8602.85,4430.58 "/>
       <polygon id="_388" class="fil51" points="8974.91,2667.31 8989.5,2670.3 8627.16,4435.57 8612.57,4432.57 "/>
       <polygon id="_389" class="fil51" points="8984.64,2669.3 8999.22,2672.29 8636.88,4437.56 8622.29,4434.57 "/>
       <polygon id="_390" class="fil50" points="8994.36,2671.3 9008.95,2674.29 8646.6,4439.56 8632.02,4436.56 "/>
       <polygon id="_391" class="fil50" points="9004.08,2673.29 9018.67,2676.29 8656.33,4441.55 8641.74,4438.56 "/>
       <polygon id="_392" class="fil50" points="9013.81,2675.29 9028.39,2678.28 8666.05,4443.55 8651.46,4440.56 "/>
       <polygon id="_393" class="fil50" points="9023.53,2677.28 9038.12,2680.28 8675.77,4445.55 8661.19,4442.55 "/>
       <polygon id="_394" class="fil49" points="9033.26,2679.28 9047.84,2682.27 8685.5,4447.54 8670.91,4444.55 "/>
       <polygon id="_395" class="fil49" points="9042.98,2681.28 9057.56,2684.27 8695.22,4449.54 8680.64,4446.54 "/>
       <polygon id="_396" class="fil49" points="9052.7,2683.27 9067.29,2686.27 8704.94,4451.53 8690.36,4448.54 "/>
       <polygon id="_397" class="fil48" points="9062.43,2685.27 9077.01,2688.26 8714.67,4453.53 8700.08,4450.54 "/>
       <polygon id="_398" class="fil47" points="9072.15,2687.26 9086.73,2690.26 8724.39,4455.52 8709.81,4452.53 "/>
       <polygon id="_399" class="fil47" points="9081.87,2689.26 9096.46,2692.25 8734.11,4457.52 8719.53,4454.53 "/>
       <polygon id="_400" class="fil47" points="9091.6,2691.26 9106.18,2694.25 8743.84,4459.52 8729.25,4456.52 "/>
       <polygon id="_401" class="fil47" points="9101.32,2693.25 9115.91,2696.25 8753.56,4461.51 8738.98,4458.52 "/>
       <polygon id="_402" class="fil47" points="9111.04,2695.25 9125.63,2698.24 8763.29,4463.51 8748.7,4460.51 "/>
       <polygon id="_403" class="fil46" points="9120.77,2697.24 9135.35,2700.24 8773.01,4465.5 8758.42,4462.51 "/>
       <polygon id="_404" class="fil46" points="9130.49,2699.24 9145.08,2702.23 8782.73,4467.5 8768.15,4464.51 "/>
       <polygon id="_405" class="fil46" points="9140.21,2701.24 9154.8,2704.23 8792.46,4469.5 8777.87,4466.5 "/>
       <polygon id="_406" class="fil46" points="9149.94,2703.23 9164.52,2706.22 8802.18,4471.49 8787.59,4468.5 "/>
       <polygon id="_407" class="fil45" points="9159.66,2705.23 9174.25,2708.22 8811.9,4473.49 8797.32,4470.49 "/>
       <polygon id="_408" class="fil45" points="9169.38,2707.22 9183.97,2710.22 8821.63,4475.48 8807.04,4472.49 "/>
       <polygon id="_409" class="fil45" points="9179.11,2709.22 9193.69,2712.21 8831.35,4477.48 8816.76,4474.49 "/>
       <polygon id="_410" class="fil45" points="9188.83,2711.21 9203.42,2714.21 8841.07,4479.48 8826.49,4476.48 "/>
       <polygon id="_411" class="fil44" points="9198.56,2713.21 9213.14,2716.2 8850.8,4481.47 8836.21,4478.48 "/>
       <polygon id="_412" class="fil44" points="9208.28,2715.21 9222.86,2718.2 8860.52,4483.47 8845.94,4480.47 "/>
       <polygon id="_413" class="fil44" points="9218,2717.2 9232.59,2720.2 8870.24,4485.46 8855.66,4482.47 "/>
       <polygon id="_414" class="fil44" points="9227.73,2719.2 9242.31,2722.19 8879.97,4487.46 8865.38,4484.46 "/>
       <polygon id="_415" class="fil43" points="9237.45,2721.19 9252.03,2724.19 8889.69,4489.45 8875.11,4486.46 "/>
       <polygon id="_416" class="fil43" points="9247.17,2723.19 9261.76,2726.18 8899.41,4491.45 8884.83,4488.46 "/>
       <polygon id="_417" class="fil43" points="9256.9,2725.19 9271.48,2728.18 8909.14,4493.45 8894.55,4490.45 "/>
       <polygon id="_418" class="fil43" points="9266.62,2727.18 9281.21,2730.18 8918.86,4495.44 8904.28,4492.45 "/>
       <polygon id="_419" class="fil42" points="9276.34,2729.18 9290.93,2732.17 8928.59,4497.44 8914,4494.44 "/>
       <polygon id="_420" class="fil41" points="9286.07,2731.17 9300.65,2734.17 8938.31,4499.43 8923.72,4496.44 "/>
       <polygon id="_421" class="fil41" points="9295.79,2733.17 9310.38,2736.16 8948.03,4501.43 8933.45,4498.44 "/>
       <polygon id="_422" class="fil41" points="9305.51,2735.16 9320.1,2738.16 8957.76,4503.43 8943.17,4500.43 "/>
       <polygon id="_423" class="fil40" points="9315.24,2737.16 9329.82,2740.15 8967.48,4505.42 8952.89,4502.43 "/>
       <polygon id="_424" class="fil40" points="9324.96,2739.16 9339.55,2742.15 8977.2,4507.42 8962.62,4504.42 "/>
       <polygon id="_425" class="fil39" points="9334.68,2741.15 9349.27,2744.15 8986.93,4509.41 8972.34,4506.42 "/>
       <polygon id="_426" class="fil39" points="9344.41,2743.15 9358.99,2746.14 8996.65,4511.41 8982.06,4508.42 "/>
       <polygon id="_427" class="fil39" points="9354.13,2745.14 9368.72,2748.14 9006.37,4513.41 8991.79,4510.41 "/>
       <polygon id="_428" class="fil38" points="9363.86,2747.14 9378.44,2750.13 9016.1,4515.4 9001.51,4512.41 "/>
       <polygon id="_429" class="fil38" points="9373.58,2749.14 9388.16,2752.13 9025.82,4517.4 9011.24,4514.4 "/>
       <polygon id="_430" class="fil38" points="9383.3,2751.13 9397.89,2754.13 9035.54,4519.39 9020.96,4516.4 "/>
       <polygon id="_431" class="fil38" points="9393.03,2753.13 9407.61,2756.12 9045.27,4521.39 9030.68,4518.39 "/>
       <polygon id="_432" class="fil37" points="9402.75,2755.12 9417.33,2758.12 9054.99,4523.38 9040.41,4520.39 "/>
       <polygon id="_433" class="fil37" points="9412.47,2757.12 9427.06,2760.11 9064.71,4525.38 9050.13,4522.39 "/>
       <polygon id="_434" class="fil37" points="9422.2,2759.12 9436.78,2762.11 9074.44,4527.38 9059.85,4524.38 "/>
       <polygon id="_435" class="fil37" points="9431.92,2761.11 9446.51,2764.11 9084.16,4529.37 9069.58,4526.38 "/>
       <polygon id="_436" class="fil36" points="9441.64,2763.11 9456.23,2766.1 9093.89,4531.37 9079.3,4528.37 "/>
       <polygon id="_437" class="fil35" points="9451.37,2765.1 9465.95,2768.1 9103.61,4533.36 9089.02,4530.37 "/>
       <polygon id="_438" class="fil35" points="9461.09,2767.1 9475.68,2770.09 9113.33,4535.36 9098.75,4532.37 "/>
       <polygon id="_439" class="fil35" points="9470.81,2769.09 9485.4,2772.09 9123.06,4537.36 9108.47,4534.36 "/>
       <polygon id="_440" class="fil34" points="9480.54,2771.09 9495.12,2774.08 9132.78,4539.35 9118.19,4536.36 "/>
       <polygon id="_441" class="fil34" points="9490.26,2773.09 9504.85,2776.08 9142.5,4541.35 9127.92,4538.35 "/>
       <polygon id="_442" class="fil34" points="9499.98,2775.08 9514.57,2778.08 9152.23,4543.34 9137.64,4540.35 "/>
       <polygon id="_443" class="fil34" points="9509.71,2777.08 9524.29,2780.07 9161.95,4545.34 9147.36,4542.35 "/>
       <polygon id="_444" class="fil33" points="9519.43,2779.07 9534.02,2782.07 9171.67,4547.34 9157.09,4544.34 "/>
       <polygon id="_445" class="fil32" points="9529.16,2781.07 9543.74,2784.06 9181.4,4549.33 9166.81,4546.34 "/>
       <polygon id="_446" class="fil32" points="9538.88,2783.07 9553.46,2786.06 9191.12,4551.33 9176.54,4548.33 "/>
       <polygon id="_447" class="fil32" points="9548.6,2785.06 9563.19,2788.06 9200.84,4553.32 9186.26,4550.33 "/>
       <polygon id="_448" class="fil32" points="9558.33,2787.06 9572.91,2790.05 9210.57,4555.32 9195.98,4552.32 "/>
       <polygon id="_449" class="fil0" points="9568.05,2789.05 9582.63,2792.05 9220.29,4557.31 9205.71,4554.32 "/>
       <polygon id="_450" class="fil0" points="9577.77,2791.05 9592.36,2794.04 9230.01,4559.31 9215.43,4556.32 "/>
       <polygon id="_451" class="fil0" points="9587.5,2793.05 9602.08,2796.04 9239.74,4561.31 9225.15,4558.31 "/>
       <polygon id="_452" class="fil0" points="9597.22,2795.04 9611.8,2798.04 9249.46,4563.3 9234.88,4560.31 "/>
       <polygon id="_453" class="fil31" points="9606.94,2797.04 9621.53,2800.03 9259.19,4565.3 9244.6,4562.3 "/>
       <polygon id="_454" class="fil30" points="9616.67,2799.03 9631.25,2802.03 9268.91,4567.29 9254.32,4564.3 "/>
       <polygon id="_455" class="fil30" points="9626.39,2801.03 9640.98,2804.02 9278.63,4569.29 9264.05,4566.3 "/>
       <polygon id="_456" class="fil30" points="9636.11,2803.02 9650.7,2806.02 9288.36,4571.29 9273.77,4568.29 "/>
       <polygon id="_457" class="fil29" points="9645.84,2805.02 9660.42,2808.01 9298.08,4573.28 9283.49,4570.29 "/>
       <polygon id="_458" class="fil29" points="9655.56,2807.02 9670.15,2810.01 9307.8,4575.28 9293.22,4572.28 "/>
       <polygon id="_459" class="fil29" points="9665.28,2809.01 9679.87,2812.01 9317.53,4577.27 9302.94,4574.28 "/>
       <polygon id="_460" class="fil29" points="9675.01,2811.01 9689.59,2814 9327.25,4579.27 9312.66,4576.28 "/>
       <polygon id="_461" class="fil28" points="9684.73,2813 9699.32,2816 9336.97,4581.26 9322.39,4578.27 "/>
       <polygon id="_462" class="fil27" points="9694.45,2815 9709.04,2817.99 9346.7,4583.26 9332.11,4580.27 "/>
       <polygon id="_463" class="fil27" points="9704.18,2817 9718.76,2819.99 9356.42,4585.26 9341.83,4582.26 "/>
       <polygon id="_464" class="fil27" points="9713.9,2818.99 9728.49,2821.99 9366.14,4587.25 9351.56,4584.26 "/>
       <polygon id="_465" class="fil26" points="9723.63,2820.99 9738.21,2823.98 9375.87,4589.25 9361.28,4586.25 "/>
       <polygon id="_466" class="fil26" points="9733.35,2822.98 9747.93,2825.98 9385.59,4591.24 9371.01,4588.25 "/>
       <polygon id="_467" class="fil26" points="9743.07,2824.98 9757.66,2827.97 9395.31,4593.24 9380.73,4590.25 "/>
       <polygon id="_468" class="fil25" points="9752.8,2826.98 9767.38,2829.97 9405.04,4595.24 9390.45,4592.24 "/>
       <polygon id="_469" class="fil24" points="9762.52,2828.97 9777.1,2831.96 9414.76,4597.23 9400.18,4594.24 "/>
       <polygon id="_470" class="fil24" points="9772.24,2830.97 9786.83,2833.96 9424.48,4599.23 9409.9,4596.23 "/>
       <polygon id="_471" class="fil23" points="9781.97,2832.96 9796.55,2835.96 9434.21,4601.22 9419.62,4598.23 "/>
       <polygon id="_472" class="fil23" points="9791.69,2834.96 9806.28,2837.95 9443.93,4603.22 9429.35,4600.23 "/>
       <polygon id="_473" class="fil23" points="9801.41,2836.95 9816,2839.95 9453.66,4605.22 9439.07,4602.22 "/>
       <polygon id="_474" class="fil22" points="9811.14,2838.95 9825.72,2841.94 9463.38,4607.21 9448.79,4604.22 "/>
       <polygon id="_475" class="fil22" points="9820.86,2840.95 9835.45,2843.94 9473.1,4609.21 9458.52,4606.21 "/>
       <polygon id="_476" class="fil22" points="9830.58,2842.94 9845.17,2845.94 9482.83,4611.2 9468.24,4608.21 "/>
       <polygon id="_477" class="fil22" points="9840.31,2844.94 9854.89,2847.93 9492.55,4613.2 9477.96,4610.21 "/>
       <polygon id="_478" class="fil21" points="9850.03,2846.93 9864.62,2849.93 9502.27,4615.19 9487.69,4612.2 "/>
       <polygon id="_479" class="fil20" points="9859.75,2848.93 9874.34,2851.92 9512,4617.19 9497.41,4614.2 "/>
       <polygon id="_480" class="fil20" points="9869.48,2850.93 9884.06,2853.92 9521.72,4619.19 9507.13,4616.19 "/>
       <polygon id="_481" class="fil20" points="9879.2,2852.92 9893.79,2855.92 9531.44,4621.18 9516.86,4618.19 "/>
       <polygon id="_482" class="fil19" points="9888.93,2854.92 9903.51,2857.91 9541.17,4623.18 9526.58,4620.18 "/>
       <polygon id="_483" class="fil19" points="9898.65,2856.91 9913.23,2859.91 9550.89,4625.17 9536.31,4622.18 "/>
       <polygon id="_484" class="fil19" points="9908.37,2858.91 9922.96,2861.9 9560.61,4627.17 9546.03,4624.18 "/>
       <polygon id="_485" class="fil19" points="9918.1,2860.91 9932.68,2863.9 9570.34,4629.17 9555.75,4626.17 "/>
       <polygon id="_486" class="fil18" points="9927.82,2862.9 9942.4,2865.89 9580.06,4631.16 9565.48,4628.17 "/>
       <polygon id="_487" class="fil18" points="9937.54,2864.9 9952.13,2867.89 9589.78,4633.16 9575.2,4630.16 "/>
       <polygon id="_488" class="fil17" points="9947.27,2866.89 9961.85,2869.89 9599.51,4635.15 9584.92,4632.16 "/>
       <polygon id="_489" class="fil17" points="9956.99,2868.89 9971.58,2871.88 9609.23,4637.15 9594.65,4634.16 "/>
       <polygon id="_490" class="fil16" points="9966.71,2870.88 9981.3,2873.88 9618.96,4639.15 9604.37,4636.15 "/>
       <polygon id="_491" class="fil16" points="9976.44,2872.88 9991.02,2875.87 9628.68,4641.14 9614.09,4638.15 "/>
       <polygon id="_492" class="fil16" points="9986.16,2874.88 10000.75,2877.87 9638.4,4643.14 9623.82,4640.14 "/>
       <polygon id="_493" class="fil16" points="9995.88,2876.87 10010.47,2879.87 9648.13,4645.13 9633.54,4642.14 "/>
       <polygon id="_494" class="fil16" points="10005.61,2878.87 10020.19,2881.86 9657.85,4647.13 9643.26,4644.14 "/>
       <polygon id="_495" class="fil15" points="10015.33,2880.86 10029.92,2883.86 9667.57,4649.12 9652.99,4646.13 "/>
       <polygon id="_496" class="fil14" points="10025.05,2882.86 10039.64,2885.85 9677.3,4651.12 9662.71,4648.13 "/>
       <polygon id="_497" class="fil14" points="10034.78,2884.86 10049.36,2887.85 9687.02,4653.12 9672.43,4650.12 "/>
       <polygon id="_498" class="fil14" points="10044.5,2886.85 10059.09,2889.85 9696.74,4655.11 9682.16,4652.12 "/>
       <polygon id="_499" class="fil13" points="10054.23,2888.85 10068.81,2891.84 9706.47,4657.11 9691.88,4654.11 "/>
       <polygon id="_500" class="fil13" points="10063.95,2890.84 10063.1,2890.67 9700.76,4655.94 9701.61,4656.11 "/>
      </g>
     </g>
     <path class="fil0" d="M6298.82 5938.02c-669.02,-141.76 -1230.68,-401.07 -1600.99,-731.52 14.52,60.74 30.86,120.72 48.95,179.89 398.92,313.02 968.05,554.89 1632.16,684.2 -29.04,-42.52 -55.81,-86.78 -80.12,-132.57z"/>
     <path class="fil1" d="M6378.94 6070.59c-664.11,-129.31 -1233.24,-371.18 -1632.16,-684.2 367.09,1200.36 1455.97,2066.44 2743.52,2066.44 1277.68,0 2363.13,-861.96 2732.51,-2057.87 -401.7,311.48 -972.68,551.54 -1637.88,678.86 -242.36,355.16 -644.26,588.9 -1103.05,588.9 -455,0 -859.13,-235.15 -1102.94,-592.13z"/>
     <path class="fil1" d="M9878.95 2852.87c-514.33,-799.28 -1393.14,-1325.9 -2388.65,-1325.9 -982.29,0 -1848.93,507.3 -2367.67,1281.79 121.36,522.13 1138.25,928.86 2384.48,928.86 1203.25,0 2203.96,-384.01 2371.84,-884.75z"/>
     <path class="fil1" d="M5481.04 3257.33c423.97,288.83 1171.05,480.29 2026.07,480.29 1203.25,0 2203.96,-384.01 2371.84,-884.75 -514.33,-799.28 -1393.14,-1325.9 -2388.65,-1325.9 -982.29,0 -1848.93,507.3 -2367.67,1281.79 33.48,144 135.05,279.22 290.78,399.55m0 0c0.01,0.01 0.02,0.01 0.03,0.02"/>
    </g>
    <path class="fil1 str0" d="M7486.45 1489.19c1607.49,0 2910.63,1338.36 2910.63,2989.29 0,1650.93 -1303.14,2989.29 -2910.63,2989.29 -1607.5,0 -2910.64,-1338.36 -2910.64,-2989.29 0,-1650.93 1303.14,-2989.29 2910.64,-2989.29z"/>
    <path class="fil1 str1" d="M7485.54 306.55c3916.39,0 7091.28,3199.46 7091.28,7146.28 0,3946.81 -3174.89,7146.27 -7091.28,7146.27 -3916.39,0 -7091.27,-3199.46 -7091.27,-7146.27 0,-3946.82 3174.88,-7146.28 7091.27,-7146.28z"/>
    <path class="fil3" d="M7774.24 11889.82l196.52 -1.66c31.96,72.83 239.04,1197.48 288.77,1237.08 93.44,36.23 659.6,10.19 816.22,13.67 343.89,7.63 383.67,361.51 77.14,362l-3325.88 0.13c-83.07,0.8 -118.79,4.76 -162.99,-40.99 -109.02,-112.83 -64.39,-313.13 209.19,-320.55 277.44,-7.53 564.65,10.03 840.83,-3.35 27.72,-74.26 52.94,-226.84 72.06,-312.96l218.99 -933.39 196.88 -1.96c4.45,52 -18.57,73.14 -20.34,146.4 -8.39,347.02 407.41,400.36 548.37,178.4 105.19,-165.65 14.93,-210.7 44.24,-322.82zm-3732.57 -2440.83c92.81,15.26 192.81,-1.75 282.6,15.77 72.13,14.08 178.63,39.62 246.29,50.59 161.94,26.22 358.17,63.2 508.1,112.83 748.39,247.74 966.93,341.25 1663.82,798.87 221.15,145.21 328.65,255.7 490.9,432.08 74.39,80.88 106.46,63.2 241.09,63.9 144.7,0.75 161.01,25.33 241.95,-61.98 408.3,-440.48 1145.23,-872.43 1699.18,-1074.33 187,-68.15 400.69,-140.04 593.15,-179.88 81.89,-16.95 175.37,-53.06 370.71,-90.73 210.52,-40.59 455.1,-49.6 544.51,-66.7l2.28 -2688.99c70.51,-13.32 230.7,-11.87 300.28,0.38 60.6,10.67 169.31,56.17 188.09,112.76 17.05,51.36 6.24,525.59 6.18,620.2l0.35 2493.7c-0.74,406.65 18.61,851.38 -1.03,1252.81 -36.44,11.11 -7764.37,31.29 -7892.19,0.14 -24.13,-368.69 -4.43,-1468.74 -4.51,-1914.86 -0.04,-244.75 -12.12,-2268.85 9.45,-2405.05 21.82,-137.75 188.73,-175.54 308.47,-182.55 245.98,-14.4 199.94,-32.12 198.48,278.62 -3.61,766.99 -21.42,1702.14 1.85,2432.42zm3554.32 849.36c8.1,-217.79 319.25,-579.21 453.81,-689.86 436.13,-358.61 974.49,-576.93 1505.26,-769.62 184.1,-66.84 735.04,-200.71 950.24,-189.73l2.03 438.67c-743.66,111.97 -1301.65,255.19 -1979.93,583.28 -228.49,110.52 -593.44,343.99 -778.74,513.53 -50.47,46.17 -92.2,96.75 -152.67,113.73zm-3137.19 -1665.47c618.69,5.64 1974.42,506.62 2482.48,980.71 154.27,143.95 452.5,485.55 452.95,709.74 -551.63,-504.19 -1118.22,-783.3 -1865.25,-1010.29 -296.87,-90.21 -643.69,-194.31 -950.97,-216.52 -149.36,-10.79 -125.43,-18.71 -123.66,-171 1.13,-97.39 -4.76,-195.73 4.45,-292.64zm-2207.73 246.27c-24.24,87.54 -13.35,104.93 -60.15,179.76 -34.98,55.94 -63.69,87.94 -117.37,129.56 -306.57,237.66 -827.39,57.57 -777.12,-464.15 11.8,-122.41 101.14,-249.66 175.11,-306.54 369.13,-283.84 884.14,83.66 779.53,461.37zm7626.7 -452.23c-266.06,-11.14 -1391.63,447.56 -1629.86,594.69 -81.61,50.4 -142.47,82.28 -229.04,140.65 -86.59,58.38 -144.33,112.6 -222.79,162.45 5.9,-120.07 244.29,-390.69 323.98,-461.82 143.59,-128.17 302.88,-239.2 477.14,-324.24 274.98,-134.2 311.29,-134.13 565.44,-234.5 99.49,-39.29 203.09,-59.1 299.89,-98.47 71.02,-28.89 231.77,-76.12 303.81,-87.9 16.2,-13.18 5.12,-9.58 33.79,-21.38l136.17 -33.74c132.26,-33.25 461.48,-115.74 570.65,-93.88 24.23,57.01 19.96,277.51 3.98,346.4 -38.84,22.06 -100.96,15.12 -158.45,18.42 -71.28,4.09 -90.69,23.49 -154.2,32.58 -95.85,13.72 -246.77,59.38 -320.51,60.74zm-5424.49 -443.54c189.87,-16.17 687.68,113.12 851.69,156.7 424.81,112.86 356.3,87.54 771.64,244.55 324.1,122.52 699.6,339.14 917.03,605.59 56.24,68.92 177.51,243.1 185.84,318.17l-716.86 -435.41c-57.14,-27.09 -83.48,-49.34 -148.31,-77.76 -135.67,-59.49 -523.96,-213.34 -671.51,-249.46 -265.76,-65.04 -448.02,-120.72 -748.96,-176.06 -142.55,-26.22 -283.58,-26.88 -428.04,-52.98l-12.52 -333.34zm3.53 -645.15c298.8,-25.3 1025.14,207.48 1308.37,326.78 252.18,106.21 854.52,482.24 930.89,700.08 -85.36,-10.53 -192.6,-79.35 -268.44,-118.91l-322.06 -140.57c-288.42,-121.73 -774.53,-278.39 -1060.38,-327.06 -41.93,-7.14 -91.5,-25.87 -137.87,-40.52 -60.45,-19.08 -307.71,-42.97 -450.4,-89.73l-0.11 -310.07zm3787.39 1051.93c160.57,-257.37 664.59,-596.45 947.92,-717.85 277.23,-118.79 981.13,-384.52 1314.93,-363.28l1.14 308.4 -1174.07 330.89c-334.41,108.01 -502.02,170.02 -818.92,322.59 -62.22,29.96 -211.62,115.11 -271,119.25zm-1206.1 -518.26l62.26 58.77c20.98,25.8 27.33,36.3 46.27,60.24 95.65,120.92 224.31,315.08 224.23,477.74l-441.18 -381.05 -509.25 -371.46c-186.82,-128.8 -377.58,-216.35 -565.11,-312.17 -193.56,-98.9 -412.27,-165.05 -641.59,-234.61l-541.6 -118.23c-176.26,-20.36 -217.4,39.62 -216.95,-172.7 0.12,-58.29 -0.88,-115.65 0.75,-173.99 178.27,-6.97 605.61,110.25 789.07,160.28l350.88 124.08c109.28,38.73 210.57,86.11 323.53,134.81 309.45,133.41 947.5,491.4 1118.69,748.29zm1098.45 145.3l-56.96 67.58c-127.8,105.15 -178.91,130.05 -325.63,273.42 -23.78,23.25 -41.05,38.42 -64.19,59.01l-86.64 56.7c3.9,-165.16 204.1,-543.34 317.67,-598.22 18.09,-93.44 520.96,-449.61 651.46,-531.17 410.19,-256.35 1535.06,-711.64 1936.56,-681.22l-3.6 306.12 -351.77 76.91c-414.38,85.56 -591.72,157.26 -977.46,317.09 -224.51,93.03 -370.46,195.13 -556.54,304.67 -116.14,68.37 -454.1,338.65 -482.9,349.11zm5094.99 -1552.22c-108.71,-0.19 -185.1,21.66 -255.13,-40.26 -49.81,-44.04 -83.55,-134.46 -41.14,-212.5 68.01,-125.13 376.27,-83.58 573.35,-83.05 239.3,0.64 630.29,-58.09 594.13,189.51 -19.43,133.04 -115.87,147.52 -255.47,147.18l-615.74 -0.88zm-1659.93 -565.72c126.96,-19.47 358.39,127.29 450.5,202.55 207.53,169.58 292.95,432.9 291.63,700.34 -0.82,165.71 31.15,118.63 209.7,117.16 170.27,-1.41 1246.78,-25.78 1322.23,22.38 63.57,40.57 106.45,134.26 58.19,226.43 -42.42,81.03 -151.22,75.81 -256.63,75.08 -221.51,-1.56 -1188.88,-27.25 -1331.03,9.95 -12.92,440.74 -141.68,342.25 853.77,340.43 86.16,-0.16 582.96,-13.34 641.64,10.84 42.54,17.53 95.85,75.05 101.63,136.02 16.58,175.06 -121.4,176.18 -266.06,175.77l-1317.83 0.96c-31.01,105.61 -14.28,784.8 -8.86,938.43 125.5,-60.83 19.45,-111.5 264.97,-268.08 382.26,-243.8 916.3,-5.5 917.16,507.12 0.53,318.84 -224.74,546.63 -501.32,577.75 -247.04,27.79 -437.01,-61.38 -567.14,-227.63 -43.46,-55.52 -64.28,-115.1 -106.92,-168.82 21.1,36.44 -11.82,-13.28 -11.78,109.71 0.01,41.4 0.96,82.98 0.82,124.62 -0.27,82.09 -0.54,164.2 -0.7,246.29 -0.31,153.6 -10.12,349.21 3.52,497.95 107.76,20.29 971.75,8.74 1189.59,4.84 137.58,-2.46 255.36,8.03 256.81,158.77 2.25,233.58 -261.54,171.31 -641.71,171.12 -266.58,-0.13 -533.63,1.35 -800.14,-1.56 -61.16,412.19 82.58,885.78 -117.9,1299.11 -158.4,326.58 -382.81,566.69 -776,653.45 -262.87,58.01 -1645.36,27.73 -2092.69,27.58 -211.9,-0.07 -515.42,17.68 -716.21,-3.79 -39.28,-59.91 -100.61,-405.59 -127.92,-512.65 -16.38,-64.2 -31.57,-79.28 -26.43,-178.5 126.75,-14.66 977.5,-4.68 1178.42,-4.87 184.34,-0.18 1660.92,12.5 1768.75,-5.95 153.28,-26.24 298.73,-120.54 377.27,-221.39 112.48,-144.44 141.34,-265.53 141.03,-437.13l-0.32 -4156.18c-0.14,-243.1 21.83,-330.61 -82.38,-510.16 -69.16,-119.18 -179.42,-231.08 -326.45,-259.21l-461.91 -0.27c-93,0.82 -99.65,8.79 -122.77,-18 -18.85,-21.84 -17.29,-238.41 -16.52,-290.97l14.15 -76.93c27.67,-31.46 582.42,-33.57 635.84,7.44zm-8185.88 412.07c-115.14,-4.08 -247.88,167.88 -299.27,274.83 -84.32,175.47 -71.01,293.28 -71.3,507.38l1.21 3540.44c0.33,193.44 -5.71,392.74 -0.62,585.3 9.04,342.25 225.93,627.81 517.13,646.6 313.59,20.24 1424.71,2.39 1786.55,1.98 375.43,-0.43 810.42,-19.6 1178.97,3.97 8.45,108.15 -108.44,585.45 -141.17,691.31 -230.26,26.81 -2704.54,15.62 -2812.22,-17.75 -416.48,-129.06 -603.29,-287.96 -783.86,-629.61 -187.85,-355.43 -70.58,-864.4 -118.3,-1315.62 -184.84,-9.79 -384.63,-1.7 -571.39,-2.43 -174.44,-0.69 -407.46,33.65 -419.63,-163.56 -3.58,-57.94 -1.43,-75.26 27.91,-116.75 10.9,-15.42 20.12,-26.32 35.97,-38.6 66.38,-51.41 245.98,-20.85 340.36,-20.62 191.85,0.46 400.37,6.83 590.38,-3.64l0.04 -2330.35c-212.31,-13.57 -1452.15,11.83 -1516.63,-15.44 -50.19,-21.23 -92.63,-92.57 -99.51,-142.61 -12.57,-91.54 49.76,-113.57 71.41,-162.98 70.66,-69.02 266.38,-33.08 353.35,-30.48 364.33,10.85 722.2,-27.57 1159.03,-13.53l3.15 -280.56c-242.2,-20.46 -799.96,-0.07 -1115.38,-5.01 -67.02,-1.06 -303.66,29.02 -321.68,-36.61 -161.6,-16.34 -186.35,-236.1 -50.02,-300.75 115.2,-54.63 1192.87,19.47 1516.4,-21.31 21.96,-180.31 -35.57,-438.52 168.31,-694.63 123.45,-155.08 319.94,-302.19 534.25,-327.96 66.33,-54.73 69.54,-43.21 168.99,-41.72 641.89,9.63 543.37,-61.73 547.18,226.98 3.37,255.76 31.08,209.93 -346.81,207.73 -114.92,-0.68 -227.13,13.75 -332.8,26zm-1812.16 -979.86c214.01,-56.17 418.69,111.36 441.61,283.69 31.26,234.98 -104.02,411.41 -297.14,433.58 -449.04,51.53 -648.43,-584.99 -144.47,-717.27zm10411.12 243.27c-350.56,-0.66 -714.66,9.78 -1063.18,0.84 -186.54,-4.79 -252.92,-204.13 -120.76,-297.73 88.87,-62.94 357.11,-31.67 491.25,-31.64l1816.4 0.18c139.34,0.01 347.98,-39.89 396.59,82.39 28.42,71.48 8.52,157.26 -25.67,196.49 -45.27,51.95 -102.32,48.9 -186.2,49.1l-1308.43 0.37zm-8773.64 -1024.25c691.04,-193.32 972.55,861.6 311.34,1038.88 -723.32,193.93 -1002.84,-845.43 -311.34,-1038.88zm-1126.18 -181.56c271.18,-126.86 505.88,362.2 178.34,482.68 -271.34,99.81 -430.85,-214.85 -322.8,-384.79 35.4,-55.67 84.97,-70.05 144.46,-97.89zm9191.38 -62.99c243.58,-120.24 417.06,290.35 161.78,378.77 -245.16,84.92 -444.19,-239.36 -161.78,-378.77zm-6594.47 -580.29l-7.26 -3.31c6.15,-74.35 105.62,-366.23 143.94,-440.66l33.68 -49.19c8.68,-26.37 15.05,-41.96 30.35,-70.33 0.16,-0.3 20.82,-34.65 21.55,-35.64 24.62,-33.49 -5.55,-8.79 18.74,-18.95 14.23,-68.76 86.7,-187.23 127.42,-253.69 1.26,-2.06 22.69,-35.1 24.57,-37.41 33.81,-41.46 10.46,-15.47 35.98,-34.42l189.03 -264.84c348.77,-401.65 793.33,-734.44 1338.65,-893.04 130.7,-38.02 238.89,-58.13 359.35,-88.44 186.65,-46.97 635.91,-63.83 833.88,-27.45 394.81,72.54 652.16,141.28 1006.29,329.94 245.33,130.71 908.71,651.45 938,837.38 61.9,27.75 143.8,177.59 173.35,234.11 28.32,54.18 50.72,84.1 74.26,125.3 30.18,52.85 50.93,89.26 59.59,140.91 39.48,25.53 51.96,68.35 69.72,116.07 16.95,45.57 29.86,95.15 45.86,141.67 27.92,81.13 89.72,187.71 86.33,266.61l40.69 73.89c18.73,94.83 112.76,681.47 52.84,740.22 17.78,127.95 -11.79,355.17 -38.63,458.74 -17.74,68.45 -55.06,302.48 -81.24,347.47l-34.02 40.01c8.3,51.31 8.24,59.47 -23.86,85.94 -24.65,226.49 -281.65,629.51 -394.78,809.29 -147.56,234.49 -95.78,140.51 -357.18,241.25 -147.86,56.99 -278.42,114.22 -410.41,173.24 -463.78,207.4 -739.15,358.07 -1137.76,649.2 -95.48,69.73 -95.35,55.84 -241.49,55.36 -97.55,-0.31 -194.95,0.67 -292.49,-0.91 -293.14,-4.74 -157.03,22.51 -361.25,-101.77 -529.81,-322.39 -567.95,-386.36 -1246.47,-666.33l-429.06 -169.74c-140.79,-74.21 -472.28,-703.93 -550.56,-927.14 -26.38,-75.24 -63.82,-143.48 -77.18,-231.78 -45.19,-114.39 -136.39,-618.87 -103.7,-772.91 -61.78,-63.64 -10.11,-334.99 3.35,-404.6l36.36 -195.08c10.21,-71.44 -15.48,-125.68 43.56,-178.97zm7442.6 102.36c370.25,-119.95 501.24,471.98 149.94,542.3 -189.02,37.83 -321.67,-66.33 -356.04,-210.56 -19.85,-83.28 -3.19,-164.93 37.39,-220.24 56.78,-77.38 76.92,-81.77 168.71,-111.5zm-8850.83 -1030.23c189.66,-62.87 399.94,10.94 531.03,99.65 431.28,291.81 364.62,989.3 -150.1,1175.14l-73.68 17.98c-745.25,90.36 -998.35,-599.19 -705.63,-1027.47 134.76,-197.17 237.27,-211.9 398.38,-265.3zm7836.96 -508.06c290.28,-81.1 509.8,128.22 573.24,350.63 173.18,607.1 -791.23,835.17 -934.78,212.2 -57.38,-249.01 72.04,-481.94 361.54,-562.83zm-6501.65 -649c140.51,-64.67 291.67,42.66 321.28,145.12 115.02,397.95 -402.31,452.56 -477.59,174 -46.21,-170.97 28.76,-260.41 156.31,-319.12zm5699.53 -196.3c292.04,-145.85 502.01,407.5 175.77,513.93 -164.91,53.81 -306.34,-38.56 -342.81,-164.15 -55.74,-191.98 39.34,-286 167.04,-349.78zm-9915.42 6049.34c4.95,827.11 115.53,1542.79 365.27,2285.5l253.23 637.61c156.67,307.81 278.57,561.95 455.79,852.48 111.53,182.84 417.34,610.88 553.3,770.55 1387.45,1629.36 3242.13,2559.85 5515.49,2559.41 142.21,-0.04 289.1,-0.88 431.01,-5.89 165.12,-5.83 269.56,-26.84 415.05,-36.43 174.28,-11.5 561.71,-88.57 747.5,-132.09 901.11,-211.13 1706.46,-590.45 2439.04,-1097.11 1880.77,-1300.76 3005.51,-3506.14 2998.16,-5849.43 -4.73,-1508.7 -437.36,-2804.71 -1205.08,-3963.66 -166.19,-250.89 -359.27,-502.86 -546.08,-715.54 -681.38,-775.73 -1224.55,-1183.38 -2125.09,-1678.49 -701.3,-385.57 -1593.33,-634.9 -2393.96,-751.87l-652.8 -31.8c-327.75,-4.67 -749.32,10.9 -1078.06,70.93 -183.45,33.5 -387.63,58.06 -587.23,107.15 -127.8,31.43 -246.62,56.12 -375.26,90.82l-693.46 244.39c-775.84,312.31 -1533.02,759.58 -2142.55,1336.11 -42.07,39.79 -84.79,84.25 -125.76,119.84 -454.61,394.98 -1135.66,1294.49 -1398.36,1836.78 -55.02,113.59 -110.12,196.15 -163.11,311.97 -403.55,882.07 -694.04,1868.91 -687.04,3038.77z"/>
    <path class="fil97" d="M7854.2 10899.31c30.64,-55.37 13.23,-43.31 71.23,-73.54l543.55 -193.8c285.22,-75.36 667.51,-141.29 906.31,-203.56 503.16,-131.19 635.87,-146.99 1163.13,-330.35 104.33,-36.28 264.86,-124.57 378.84,-134.8l-8.19 936.75 -417.52 1.63c-857.12,-3.08 -1805.95,21.44 -2637.35,-2.33zm-3805.35 4.96c-25.04,-95.14 -25.33,-835.93 -9.93,-965.64 47.13,-1.54 132.43,46.12 173.3,65.81 62.07,29.9 94.44,47.93 174.47,73.67 71.41,22.97 116.83,41.95 192.88,68.04 167.77,57.56 420.5,140.43 584.48,174.44 73.68,15.29 116.27,36.18 200.76,55.55 177.36,40.66 1655.29,358.02 1738.03,519.52 -26.36,14.01 -2843.25,35.74 -3053.99,8.61zm-7.18 -1455.28c-23.27,-730.28 -5.46,-1665.43 -1.85,-2432.42 1.46,-310.74 47.5,-293.02 -198.48,-278.62 -119.74,7.01 -286.65,44.8 -308.47,182.55 -21.57,136.2 -9.49,2160.3 -9.45,2405.05 0.08,446.12 -19.62,1546.17 4.51,1914.86 127.82,31.15 7855.75,10.97 7892.19,-0.14 19.64,-401.43 0.29,-846.16 1.03,-1252.81l-0.35 -2493.7c0.06,-94.61 10.87,-568.84 -6.18,-620.2 -18.78,-56.59 -127.49,-102.09 -188.09,-112.76 -69.58,-12.25 -229.77,-13.7 -300.28,-0.38l-2.28 2688.99c-89.41,17.1 -333.99,26.11 -544.51,66.7 -195.34,37.67 -288.82,73.78 -370.71,90.73 -192.46,39.84 -406.15,111.73 -593.15,179.88 -553.95,201.9 -1290.88,633.85 -1699.18,1074.33 -80.94,87.31 -97.25,62.73 -241.95,61.98 -134.63,-0.7 -166.7,16.98 -241.09,-63.9 -162.25,-176.38 -269.75,-286.87 -490.9,-432.08 -696.89,-457.62 -915.43,-551.13 -1663.82,-798.87 -149.93,-49.63 -346.16,-86.61 -508.1,-112.83 -67.66,-10.97 -174.16,-36.51 -246.29,-50.59 -89.79,-17.52 -189.79,-0.51 -282.6,-15.77z"/>
    <path class="fil97" d="M12791.91 8900.65c22.07,-16.75 -19.63,-5.09 40.91,-24.26 274.12,-86.81 450.6,281.59 176.52,411.38 -203.15,96.2 -377.85,-97.67 -318.18,-273.93 23.13,-68.35 65.12,-86.17 100.75,-113.19zm-1269.09 -2622.66c147.03,28.13 257.29,140.03 326.45,259.21 104.21,179.55 82.24,267.06 82.38,510.16l0.32 4156.18c0.31,171.6 -28.55,292.69 -141.03,437.13 -78.54,100.85 -223.99,195.15 -377.27,221.39 -107.83,18.45 -1584.41,5.77 -1768.75,5.95 -200.92,0.19 -1051.67,-9.79 -1178.42,4.87 -5.14,99.22 10.05,114.3 26.43,178.5 27.31,107.06 88.64,452.74 127.92,512.65 200.79,21.47 504.31,3.72 716.21,3.79 447.33,0.15 1829.82,30.43 2092.69,-27.58 393.19,-86.76 617.6,-326.87 776,-653.45 200.48,-413.33 56.74,-886.92 117.9,-1299.11 266.51,2.91 533.56,1.43 800.14,1.56 380.17,0.19 643.96,62.46 641.71,-171.12 -1.45,-150.74 -119.23,-161.23 -256.81,-158.77 -217.84,3.9 -1081.83,15.45 -1189.59,-4.84 -13.64,-148.74 -3.83,-344.35 -3.52,-497.95 0.16,-82.09 0.43,-164.2 0.7,-246.29 0.14,-41.64 -0.81,-83.22 -0.82,-124.62 -0.04,-122.99 32.88,-73.27 11.78,-109.71 42.64,53.72 63.46,113.3 106.92,168.82 130.13,166.25 320.1,255.42 567.14,227.63 276.58,-31.12 501.85,-258.91 501.32,-577.75 -0.86,-512.62 -534.9,-750.92 -917.16,-507.12 -245.52,156.58 -139.47,207.25 -264.97,268.08 -5.42,-153.63 -22.15,-832.82 8.86,-938.43l1317.83 -0.96c144.66,0.41 282.64,-0.71 266.06,-175.77 -5.78,-60.97 -59.09,-118.49 -101.63,-136.02 -58.68,-24.18 -555.48,-11 -641.64,-10.84 -995.45,1.82 -866.69,100.31 -853.77,-340.43 142.15,-37.2 1109.52,-11.51 1331.03,-9.95 105.41,0.73 214.21,5.95 256.63,-75.08 48.26,-92.17 5.38,-185.86 -58.19,-226.43 -75.45,-48.16 -1151.96,-23.79 -1322.23,-22.38 -178.55,1.47 -210.52,48.55 -209.7,-117.16 1.32,-267.44 -84.1,-530.76 -291.63,-700.34 -92.11,-75.26 -323.54,-222.02 -450.5,-202.55l-625.5 9.02 6.8 342.67c97.12,-3.35 193.85,0.69 292.91,-2.47 68.54,-2.18 227.61,-18.16 277,29.51z"/>
    <path class="fil97" d="M1180.23 7236.99c299.06,21.11 1340.38,-16.47 1469.9,14.64 3.45,49.28 22.87,295.85 -15.25,329.44 -75.13,46.09 -1305.42,-3.07 -1533.12,22.11 -21.65,49.41 -83.98,71.44 -71.41,162.98 6.88,50.04 49.32,121.38 99.51,142.61 64.48,27.27 1304.32,1.87 1516.63,15.44l-0.04 2330.35c-190.01,10.47 -398.53,4.1 -590.38,3.64 -94.38,-0.23 -273.98,-30.79 -340.36,20.62 -15.85,12.28 -25.07,23.18 -35.97,38.6 -29.34,41.49 -31.49,58.81 -27.91,116.75 12.17,197.21 245.19,162.87 419.63,163.56 186.76,0.73 386.55,-7.36 571.39,2.43 47.72,451.22 -69.55,960.19 118.3,1315.62 180.57,341.65 367.38,500.55 783.86,629.61 107.68,33.37 2581.96,44.56 2812.22,17.75 32.73,-105.86 149.62,-583.16 141.17,-691.31 -368.55,-23.57 -803.54,-4.4 -1178.97,-3.97 -361.84,0.41 -1472.96,18.26 -1786.55,-1.98 -291.2,-18.79 -508.09,-304.35 -517.13,-646.6 -5.09,-192.56 0.95,-391.86 0.62,-585.3l-1.21 -3540.44c0.29,-214.1 -13.02,-331.91 71.3,-507.38 51.39,-106.95 184.13,-278.91 299.27,-274.83 8.62,-10.43 2.34,-29.14 69.94,-40.23l560.43 -6.16c29.18,-74.1 19.36,-287.94 13.2,-377.99l-680.13 5.39c-214.31,25.77 -410.8,172.88 -534.25,327.96 -203.88,256.11 -146.35,514.32 -168.31,694.63 -323.53,40.78 -1401.2,-33.32 -1516.4,21.31 -136.33,64.65 -111.58,284.41 50.02,300.75z"/>
    <path class="fil97" d="M7774.24 11889.82c-29.31,112.12 60.95,157.17 -44.24,322.82 -140.96,221.96 -556.76,168.62 -548.37,-178.4 1.77,-73.26 24.79,-94.4 20.34,-146.4l-196.88 1.96 -218.99 933.39c-19.12,86.12 -44.34,238.7 -72.06,312.96 -276.18,13.38 -563.39,-4.18 -840.83,3.35 -273.58,7.42 -318.21,207.72 -209.19,320.55 44.2,45.75 79.92,41.79 162.99,40.99l3325.88 -0.13c306.53,-0.49 266.75,-354.37 -77.14,-362 -156.62,-3.48 -722.78,22.56 -816.22,-13.67 -49.73,-39.6 -256.81,-1164.25 -288.77,-1237.08l-196.52 1.66z"/>
    <path class="fil98" d="M4048.85 10904.27c210.74,27.13 3027.63,5.4 3053.99,-8.61 -82.74,-161.5 -1560.67,-478.86 -1738.03,-519.52 -84.49,-19.37 -127.08,-40.26 -200.76,-55.55 -163.98,-34.01 -416.71,-116.88 -584.48,-174.44 -76.05,-26.09 -121.47,-45.07 -192.88,-68.04 -80.03,-25.74 -112.4,-43.77 -174.47,-73.67 -40.87,-19.69 -126.17,-67.35 -173.3,-65.81 -15.4,129.71 -15.11,870.5 9.93,965.64z"/>
    <path class="fil98" d="M7854.2 10899.31c831.4,23.77 1780.23,-0.75 2637.35,2.33l417.52 -1.63 8.19 -936.75c-113.98,10.23 -274.51,98.52 -378.84,134.8 -527.26,183.36 -659.97,199.16 -1163.13,330.35 -238.8,62.27 -621.09,128.2 -906.31,203.56l-543.55 193.8c-58,30.23 -40.59,18.17 -71.23,73.54z"/>
    <path class="fil99" d="M4458.8 8632.88c-9.21,96.91 -3.32,195.25 -4.45,292.64 -1.77,152.29 -25.7,160.21 123.66,171 307.28,22.21 654.1,126.31 950.97,216.52 747.03,226.99 1313.62,506.1 1865.25,1010.29 -0.45,-224.19 -298.68,-565.79 -452.95,-709.74 -508.06,-474.09 -1863.79,-975.07 -2482.48,-980.71z"/>
    <path class="fil99" d="M7595.99 10298.35c60.47,-16.98 102.2,-67.56 152.67,-113.73 185.3,-169.54 550.25,-403.01 778.74,-513.53 678.28,-328.09 1236.27,-471.31 1979.93,-583.28l-2.03 -438.67c-215.2,-10.98 -766.14,122.89 -950.24,189.73 -530.77,192.69 -1069.13,411.01 -1505.26,769.62 -134.56,110.65 -445.71,472.07 -453.81,689.86z"/>
    <path class="fil99" d="M3360.17 3116.19c368.01,-110.72 618.08,493.66 149.06,644.69 -295.14,95.03 -541.47,-237.89 -352.9,-522.82 55.94,-84.53 98.18,-90.08 203.84,-121.87zm-86.62 -318.41c-161.11,53.4 -263.62,68.13 -398.38,265.3 -292.72,428.28 -39.62,1117.83 705.63,1027.47l73.68 -17.98c514.72,-185.84 581.38,-883.33 150.1,-1175.14 -131.09,-88.71 -341.37,-162.52 -531.03,-99.65z"/>
    <path class="fil97" d="M11984.69 5574.74l1308.43 -0.37c83.88,-0.2 140.93,2.85 186.2,-49.1 34.19,-39.23 54.09,-125.01 25.67,-196.49 -48.61,-122.28 -257.25,-82.38 -396.59,-82.39l-1816.4 -0.18c-134.14,-0.03 -402.38,-31.3 -491.25,31.64 -132.16,93.6 -65.78,292.94 120.76,297.73 348.52,8.94 712.62,-1.5 1063.18,-0.84z"/>
    <path class="fil99" d="M7920.8 7875.69c-28.82,72.68 53.45,148.09 99.76,197.66 1.71,1.84 5.32,5.74 8.08,8.52l107.91 -64.67c28.8,-10.46 366.76,-280.74 482.9,-349.11 186.08,-109.54 332.03,-211.64 556.54,-304.67 385.74,-159.83 563.08,-231.53 977.46,-317.09l351.77 -76.91 3.6 -306.12c-401.5,-30.42 -1526.37,424.87 -1936.56,681.22 -130.5,81.56 -633.37,437.73 -651.46,531.17z"/>
    <path class="fil99" d="M6929.68 8087.6c45.91,-25.75 36.79,-39.42 68.53,-84.69 30.39,-43.34 47.09,-60.93 39.89,-131.01 -171.19,-256.89 -809.24,-614.88 -1118.69,-748.29 -112.96,-48.7 -214.25,-96.08 -323.53,-134.81l-350.88 -124.08c-183.46,-50.03 -610.8,-167.25 -789.07,-160.28 -1.63,58.34 -0.63,115.7 -0.75,173.99 -0.45,212.32 40.69,152.34 216.95,172.7l541.6 118.23c229.32,69.56 448.03,135.71 641.59,234.61 187.53,95.82 378.29,183.37 565.11,312.17l509.25 371.46z"/>
    <path class="fil99" d="M4893.84 8369.7c300.94,55.34 483.2,111.02 748.96,176.06 147.55,36.12 535.84,189.97 671.51,249.46 64.83,28.42 91.17,50.67 148.31,77.76l716.86 435.41c-8.33,-75.07 -129.6,-249.25 -185.84,-318.17 -217.43,-266.45 -592.93,-483.07 -917.03,-605.59 -415.34,-157.01 -346.83,-131.69 -771.64,-244.55 -164.01,-43.58 -661.82,-172.87 -851.69,-156.7l12.52 333.34c144.46,26.1 285.49,26.76 428.04,52.98z"/>
    <path class="fil99" d="M9766.34 8117.78c-72.04,11.78 -232.79,59.01 -303.81,87.9 -96.8,39.37 -200.4,59.18 -299.89,98.47 -254.15,100.37 -290.46,100.3 -565.44,234.5 -174.26,85.04 -333.55,196.07 -477.14,324.24 -79.69,71.13 -318.08,341.75 -323.98,461.82 78.46,-49.85 136.2,-104.07 222.79,-162.45 86.57,-58.37 147.43,-90.25 229.04,-140.65 238.23,-147.13 1363.8,-605.83 1629.86,-594.69 18.26,-25.07 1.83,-16.59 37.36,-31.07l278.04 -51.41c95.44,-23.34 235.16,-28.87 302.53,-65.65l-4.15 -285.51c-153.14,-35.12 -536.62,119.19 -725.21,124.5z"/>
    <path class="fil99" d="M3233.85 4846.12c4.11,-2.28 9.36,-4.53 12.87,-5.79l40.93 -13.47c345.68,-72.14 450.86,344.18 182.97,467.3 -308.73,141.9 -532.18,-283.64 -236.77,-448.04zm-22.8 -295.63c-691.5,193.45 -411.98,1232.81 311.34,1038.88 661.21,-177.28 379.7,-1232.2 -311.34,-1038.88z"/>
    <path class="fil5" d="M2251.07 8879.15c104.61,-377.71 -410.4,-745.21 -779.53,-461.37 -73.97,56.88 -163.31,184.13 -175.11,306.54 -50.27,521.72 470.55,701.81 777.12,464.15 53.68,-41.62 82.39,-73.62 117.37,-129.56 46.8,-74.83 35.91,-92.22 60.15,-179.76z"/>
    <path class="fil97" d="M11110.51 2289.72c-289.5,80.89 -418.92,313.82 -361.54,562.83 143.55,622.97 1107.96,394.9 934.78,-212.2 -63.44,-222.41 -282.96,-431.73 -573.24,-350.63z"/>
    <path class="fil99" d="M8244.2 8390.16c59.38,-4.14 208.78,-89.29 271,-119.25 316.9,-152.57 484.51,-214.58 818.92,-322.59l1174.07 -330.89 -1.14 -308.4c-333.8,-21.24 -1037.7,244.49 -1314.93,363.28 -283.33,121.4 -787.35,460.48 -947.92,717.85z"/>
    <path class="fil99" d="M4456.92 7648.3c142.69,46.76 389.95,70.65 450.4,89.73 46.37,14.65 95.94,33.38 137.87,40.52 285.85,48.67 771.96,205.33 1060.38,327.06l322.06 140.57c75.84,39.56 183.08,108.38 268.44,118.91 -76.37,-217.84 -678.71,-593.87 -930.89,-700.08 -283.23,-119.3 -1009.57,-352.08 -1308.37,-326.78l0.11 310.07z"/>
    <path class="fil97" d="M1573.57 5331.47c-503.96,132.28 -304.57,768.8 144.47,717.27 193.12,-22.17 328.4,-198.6 297.14,-433.58 -22.92,-172.33 -227.6,-339.86 -441.61,-283.69z"/>
    <path class="fil99" d="M13231.54 6464.98l615.74 0.88c139.6,0.34 236.04,-14.14 255.47,-147.18 36.16,-247.6 -354.83,-188.87 -594.13,-189.51 -197.08,-0.53 -505.34,-42.08 -573.35,83.05 -42.41,78.04 -8.67,168.46 41.14,212.5 70.03,61.92 146.42,40.07 255.13,40.26z"/>
    <path class="fil3" d="M3360.17 3116.19c-105.66,31.79 -147.9,37.34 -203.84,121.87 -188.57,284.93 57.76,617.85 352.9,522.82 469.02,-151.03 218.95,-755.41 -149.06,-644.69z"/>
    <path class="fil99" d="M12124.38 3828.01c-91.79,29.73 -111.93,34.12 -168.71,111.5 -40.58,55.31 -57.24,136.96 -37.39,220.24 34.37,144.23 167.02,248.39 356.04,210.56 351.3,-70.32 220.31,-662.25 -149.94,-542.3z"/>
    <path class="fil5" d="M10308.39 1444.42c-127.7,63.78 -222.78,157.8 -167.04,349.78 36.47,125.59 177.9,217.96 342.81,164.15 326.24,-106.43 116.27,-659.78 -175.77,-513.93z"/>
    <path class="fil99" d="M2084.87 4368.93c-59.49,27.84 -109.06,42.22 -144.46,97.89 -108.05,169.94 51.46,484.6 322.8,384.79 327.54,-120.48 92.84,-609.54 -178.34,-482.68z"/>
    <path class="fil3" d="M3233.85 4846.12c-295.41,164.4 -71.96,589.94 236.77,448.04 267.89,-123.12 162.71,-539.44 -182.97,-467.3l-40.93 13.47c-3.51,1.26 -8.76,3.51 -12.87,5.79z"/>
    <path class="fil100" d="M4608.86 1640.72c-127.55,58.71 -202.52,148.15 -156.31,319.12 75.28,278.56 592.61,223.95 477.59,-174 -29.61,-102.46 -180.77,-209.79 -321.28,-145.12z"/>
    <path class="fil3" d="M12791.91 8900.65c-35.63,27.02 -77.62,44.84 -100.75,113.19 -59.67,176.26 115.03,370.13 318.18,273.93 274.08,-129.79 97.6,-498.19 -176.52,-411.38 -60.54,19.17 -18.84,7.51 -40.91,24.26z"/>
    <path class="fil99" d="M11276.25 4305.94c-282.41,139.41 -83.38,463.69 161.78,378.77 255.28,-88.42 81.8,-499.01 -161.78,-378.77z"/>
    <path class="fil101" d="M1101.76 7603.18c227.7,-25.18 1457.99,23.98 1533.12,-22.11 38.12,-33.59 18.7,-280.16 15.25,-329.44 -129.52,-31.11 -1170.84,6.47 -1469.9,-14.64 18.02,65.63 254.66,35.55 321.68,36.61 315.42,4.94 873.18,-15.45 1115.38,5.01l-3.15 280.56c-436.83,-14.04 -794.7,24.38 -1159.03,13.53 -86.97,-2.6 -282.69,-38.54 -353.35,30.48z"/>
    <path class="fil5" d="M8136.55 8017.2l-107.91 64.67c-2.76,-2.78 -6.37,-6.68 -8.08,-8.52 -46.31,-49.57 -128.58,-124.98 -99.76,-197.66 -113.57,54.88 -313.77,433.06 -317.67,598.22l86.64 -56.7c23.14,-20.59 40.41,-35.76 64.19,-59.01 146.72,-143.37 197.83,-168.27 325.63,-273.42l56.96 -67.58z"/>
    <path class="fil5" d="M6929.68 8087.6l441.18 381.05c0.08,-162.66 -128.58,-356.82 -224.23,-477.74 -18.94,-23.94 -25.29,-34.44 -46.27,-60.24l-62.26 -58.77c7.2,70.08 -9.5,87.67 -39.89,131.01 -31.74,45.27 -22.62,58.94 -68.53,84.69z"/>
    <path class="fil102" d="M3349.17 5892.34l680.13 -5.39c6.16,90.05 15.98,303.89 -13.2,377.99l-560.43 6.16c-67.6,11.09 -61.32,29.8 -69.94,40.23 105.67,-12.25 217.88,-26.68 332.8,-26 377.89,2.2 350.18,48.03 346.81,-207.73 -3.81,-288.71 94.71,-217.35 -547.18,-226.98 -99.45,-1.49 -102.66,-13.01 -168.99,41.72z"/>
    <path class="fil103" d="M11522.82 6277.99c-49.39,-47.67 -208.46,-31.69 -277,-29.51 -99.06,3.16 -195.79,-0.88 -292.91,2.47l-6.8 -342.67 625.5 -9.02c-53.42,-41.01 -608.17,-38.9 -635.84,-7.44l-14.15 76.93c-0.77,52.56 -2.33,269.13 16.52,290.97 23.12,26.79 29.77,18.82 122.77,18l461.91 0.27z"/>
    <path class="fil104" d="M9766.34 8117.78c188.59,-5.31 572.07,-159.62 725.21,-124.5l4.15 285.51c-67.37,36.78 -207.09,42.31 -302.53,65.65l-278.04 51.41c-35.53,14.48 -19.1,6 -37.36,31.07 73.74,-1.36 224.66,-47.02 320.51,-60.74 63.51,-9.09 82.92,-28.49 154.2,-32.58 57.49,-3.3 119.61,3.64 158.45,-18.42 15.98,-68.89 20.25,-289.39 -3.98,-346.4 -109.17,-21.86 -438.39,60.63 -570.65,93.88l-136.17 33.74c-28.67,11.8 -17.59,8.2 -33.79,21.38z"/>
   </g>
   <image x="5369.24" y="844.71" width="4085.63" height="4085.63" xlink:href="LOGO_LMM_Images/LOGO_LMM_ImgID1.png"/>
   <path class="fil1 str2" d="M7484.33 368.14c3882.89,0 7030.58,3172.43 7030.58,7085.82 0,3913.39 -3147.69,7085.82 -7030.58,7085.82 -3882.89,0 -7030.58,-3172.43 -7030.58,-7085.82 0,-3913.39 3147.69,-7085.82 7030.58,-7085.82z"/>
  </g>
 </g>
</svg>
