<svg width="797" height="206" viewBox="0 0 797 206" fill="none" xmlns="http://www.w3.org/2000/svg">
<path d="M274.965 129.455V115.28H306.015V93.95H274.965V80.045H309.525V57.5H249.045V152H310.74V129.455H274.965ZM375.35 52.775V81.8C370.22 78.56 364.01 76.805 357.26 76.805C334.985 76.805 319.055 93.005 319.055 115.55C319.055 138.23 334.985 154.565 357.26 154.565C365.765 154.565 373.325 151.595 379.265 146.6L381.695 152H400.19V52.775H375.35ZM360.635 132.29C351.32 132.29 344.3 125.135 344.3 115.685C344.3 106.1 351.32 98.945 360.635 98.945C370.085 98.945 376.97 106.1 376.97 115.685C376.97 125.135 370.085 132.29 360.635 132.29ZM450.886 154.43C472.486 154.43 486.796 141.2 486.796 120.815V79.1H461.686V119.735C461.686 127.295 457.636 131.885 450.886 131.885C444.271 131.885 440.086 127.43 440.086 119.735V79.1H414.976V120.815C414.976 141.2 429.421 154.43 450.886 154.43ZM537.659 154.43C558.179 154.43 573.839 141.065 576.674 121.355H551.969C549.944 127.835 544.409 132.02 537.659 132.02C528.884 132.02 522.539 125.135 522.539 115.55C522.539 106.1 528.884 99.35 537.659 99.35C544.274 99.35 549.809 103.265 551.834 109.205H576.404C573.569 89.765 558.314 76.94 537.794 76.94C514.169 76.94 497.429 93.005 497.429 115.55C497.429 138.095 514.304 154.43 537.659 154.43ZM587.574 70.055H612.414V48.725H587.574V70.055ZM587.439 152H612.549V79.1H587.439V152ZM672.319 77.075C662.869 77.075 654.769 80.585 649.369 86.66L645.994 79.1H628.309V152H653.419V113.12C653.419 103.805 657.874 98.405 665.704 98.405C672.049 98.405 675.289 102.59 675.289 111.095V152H700.399V107.585C700.399 89.09 689.194 77.075 672.319 77.075ZM751.905 154.43C775.665 154.43 792.81 138.095 792.81 115.55C792.81 93.005 775.665 76.805 751.905 76.805C728.145 76.805 711.135 93.005 711.135 115.55C711.135 138.095 728.145 154.43 751.905 154.43ZM751.905 131.885C742.86 131.885 736.245 125.27 736.245 115.685C736.245 105.965 742.86 99.35 751.905 99.35C761.085 99.35 767.7 106.1 767.7 115.685C767.7 125.27 761.085 131.885 751.905 131.885Z" fill="white"/>
<path d="M113 148.5L181.5 107V127L113 172L39.5 128.5V105L113 148.5Z" fill="#F7D100"/>
<path d="M113 182.5L181.5 141V161L113 206L39.5 162.5V139L113 182.5Z" fill="#8F98FD"/>
<path d="M112.5 139L222.5 71H112.5V0L0.5 71L112.5 139Z" fill="#3747FF"/>
</svg>
